<svg style="position: absolute; width: 0; height: 0; overflow: hidden;" version="1.1" xmlns="http://www.w3.org/2000/svg" xmlns:xlink="http://www.w3.org/1999/xlink">
<defs>
<symbol id="icon-business" viewBox="0 0 32 32">
<title>business</title>
<path fill="#ede5da" style="fill: var(--color1, #ede5da)" d="M9.797 3.692h12.409v24.615h-12.409v-24.615z"></path>
<path fill="#0e2d6d" style="fill: var(--color2, #0e2d6d)" d="M22.449 28.554h-12.898v-25.108h12.898zM10.043 28.062h11.914v-24.123h-11.914z"></path>
<path fill="#ede5da" style="fill: var(--color1, #ede5da)" d="M9.794 28.308h-6.905v-19.513h6.905v19.513z"></path>
<path fill="#0e2d6d" style="fill: var(--color2, #0e2d6d)" d="M10.043 28.554h-7.385v-20.005h7.385zM3.151 28.062h6.4v-19.020h-6.4z"></path>
<path fill="#c0ac8e" style="fill: var(--color3, #c0ac8e)" d="M4.743 10.996h3.202v3.202h-3.202v-3.202z"></path>
<path fill="#0e2d6d" style="fill: var(--color2, #0e2d6d)" d="M8.192 14.444h-3.692v-3.692h3.692zM4.992 13.952h2.708v-2.708h-2.708z"></path>
<path fill="#c0ac8e" style="fill: var(--color3, #c0ac8e)" d="M4.743 16.199h3.202v3.202h-3.202v-3.202z"></path>
<path fill="#0e2d6d" style="fill: var(--color2, #0e2d6d)" d="M8.192 19.648h-3.692v-3.692h3.692zM4.992 19.156h2.708v-2.708h-2.708z"></path>
<path fill="#c0ac8e" style="fill: var(--color3, #c0ac8e)" d="M4.743 21.403h3.202v3.202h-3.202v-3.202z"></path>
<path fill="#0e2d6d" style="fill: var(--color2, #0e2d6d)" d="M8.192 24.862h-3.692v-3.692h3.692zM4.992 24.369h2.708v-2.708h-2.708z"></path>
<path fill="#ede5da" style="fill: var(--color1, #ede5da)" d="M29.11 28.308h-6.905v-19.513h6.905v19.513z"></path>
<path fill="#0e2d6d" style="fill: var(--color2, #0e2d6d)" d="M29.354 28.554h-7.385v-20.005h7.385zM22.462 28.062h6.4v-19.020h-6.4z"></path>
<path fill="#c0ac8e" style="fill: var(--color3, #c0ac8e)" d="M24.054 10.996h3.202v3.202h-3.202v-3.202z"></path>
<path fill="#0e2d6d" style="fill: var(--color2, #0e2d6d)" d="M27.503 14.444h-3.692v-3.692h3.692zM24.303 13.952h2.708v-2.708h-2.708z"></path>
<path fill="#c0ac8e" style="fill: var(--color3, #c0ac8e)" d="M24.054 16.199h3.202v3.202h-3.202v-3.202z"></path>
<path fill="#0e2d6d" style="fill: var(--color2, #0e2d6d)" d="M27.503 19.648h-3.692v-3.692h3.692zM24.303 19.156h2.708v-2.708h-2.708z"></path>
<path fill="#c0ac8e" style="fill: var(--color3, #c0ac8e)" d="M24.054 21.403h3.202v3.202h-3.202v-3.202z"></path>
<path fill="#0e2d6d" style="fill: var(--color2, #0e2d6d)" d="M27.503 24.862h-3.692v-3.692h3.692zM24.303 24.369h2.708v-2.708h-2.708z"></path>
<path fill="#c0ac8e" style="fill: var(--color3, #c0ac8e)" d="M13.898 22.604h4.202v5.703h-4.202v-5.703z"></path>
<path fill="#0e2d6d" style="fill: var(--color2, #0e2d6d)" d="M18.348 28.554h-4.697v-6.196h4.697zM14.146 28.062h3.71v-5.211h-3.712z"></path>
<path fill="#c0ac8e" style="fill: var(--color3, #c0ac8e)" d="M11.83 6.193h3.202v3.202h-3.202v-3.202z"></path>
<path fill="#0e2d6d" style="fill: var(--color2, #0e2d6d)" d="M15.279 9.642h-3.692v-3.692h3.692zM12.079 9.15h2.708v-2.708h-2.708z"></path>
<path fill="#c0ac8e" style="fill: var(--color3, #c0ac8e)" d="M11.83 11.397h3.202v3.202h-3.202v-3.202z"></path>
<path fill="#0e2d6d" style="fill: var(--color2, #0e2d6d)" d="M15.279 14.846h-3.692v-3.692h3.692zM12.079 14.353h2.708v-2.708h-2.708z"></path>
<path fill="#c0ac8e" style="fill: var(--color3, #c0ac8e)" d="M11.83 16.601h3.202v3.202h-3.202v-3.202z"></path>
<path fill="#0e2d6d" style="fill: var(--color2, #0e2d6d)" d="M15.279 20.049h-3.692v-3.692h3.692zM12.079 19.557h2.708v-2.708h-2.708z"></path>
<path fill="#c0ac8e" style="fill: var(--color3, #c0ac8e)" d="M17.068 6.193h3.202v3.202h-3.202v-3.202z"></path>
<path fill="#0e2d6d" style="fill: var(--color2, #0e2d6d)" d="M20.514 9.642h-3.692v-3.692h3.692zM17.314 9.15h2.708v-2.708h-2.708z"></path>
<path fill="#c0ac8e" style="fill: var(--color3, #c0ac8e)" d="M17.068 11.397h3.202v3.202h-3.202v-3.202z"></path>
<path fill="#0e2d6d" style="fill: var(--color2, #0e2d6d)" d="M20.514 14.846h-3.692v-3.692h3.692zM17.314 14.353h2.708v-2.708h-2.708z"></path>
<path fill="#c0ac8e" style="fill: var(--color3, #c0ac8e)" d="M17.068 16.601h3.202v3.202h-3.202v-3.202z"></path>
<path fill="#0e2d6d" style="fill: var(--color2, #0e2d6d)" d="M20.514 20.049h-3.692v-3.692h3.692zM17.314 19.557h2.708v-2.708h-2.708z"></path>
</symbol>
<symbol id="icon-secure" viewBox="0 0 32 32">
<title>secure</title>
<path fill="#ede5da" style="fill: var(--color1, #ede5da)" d="M18.607 3.692h-5.214c-1.338 0-2.422 1.084-2.422 2.422v3.173h1.767v-1.903c0-0.973 0.789-1.762 1.762-1.762h2.998c0.973 0 1.762 0.789 1.762 1.762v1.913h1.767v-3.183c0-1.338-1.084-2.422-2.422-2.422z"></path>
<path fill="#0e2d6d" style="fill: var(--color2, #0e2d6d)" d="M21.275 9.534h-2.26v-2.149c0-0.837-0.679-1.516-1.516-1.516h-2.998c-0.837 0-1.516 0.679-1.516 1.516v2.159h-2.26v-3.429c0.001-1.473 1.195-2.667 2.668-2.668h5.214c1.473 0.001 2.667 1.195 2.668 2.668zM19.508 9.041h1.275v-2.927c-0.001-1.201-0.975-2.175-2.176-2.176h-5.214c-1.201 0.001-2.175 0.975-2.176 2.176v2.927h1.275v-1.657c0.001-1.109 0.9-2.007 2.008-2.009h2.998c1.109 0.001 2.007 0.9 2.009 2.008z"></path>
<path fill="#c0ac8e" style="fill: var(--color3, #c0ac8e)" d="M21.435 9.012h-10.87c-1.495 0-2.708 1.212-2.708 2.708v9.25c0 1.495 1.212 2.708 2.708 2.708h10.87c1.495 0 2.708-1.212 2.708-2.708v-9.241c0-0.003 0-0.006 0-0.010 0-1.495-1.212-2.708-2.708-2.708 0 0 0 0-0 0zM17.925 19.323h-3.85l0.679-3.68c-0.531-0.389-0.873-1.011-0.873-1.713 0-1.169 0.948-2.117 2.117-2.117s2.117 0.948 2.117 2.117c0 0.701-0.341 1.323-0.867 1.708z"></path>
<path fill="#0e2d6d" style="fill: var(--color2, #0e2d6d)" d="M21.435 23.934h-10.87c-1.628-0.008-2.946-1.326-2.954-2.953v-9.251c0.008-1.628 1.326-2.946 2.953-2.954h10.871c1.628 0.008 2.945 1.326 2.954 2.953v9.241c-0.003 1.632-1.322 2.955-2.953 2.964zM10.565 9.258c-1.357 0.007-2.455 1.105-2.462 2.461v9.251c0.007 1.357 1.105 2.455 2.461 2.462h10.871c1.357-0.007 2.455-1.105 2.462-2.461v-9.241c-0.007-1.357-1.105-2.455-2.461-2.462zM18.215 19.569h-4.431l0.702-3.815c-0.521-0.436-0.849-1.087-0.849-1.815 0-1.305 1.058-2.363 2.363-2.363s2.363 1.058 2.363 2.363c0 0.727-0.329 1.378-0.846 1.812zM14.366 19.077h3.264l-0.645-3.542 0.126-0.091c0.469-0.344 0.77-0.893 0.77-1.513 0-1.033-0.838-1.871-1.871-1.871s-1.871 0.838-1.871 1.871c0 0.62 0.301 1.169 0.765 1.509l0.131 0.095z"></path>
<path fill="#ede5da" style="fill: var(--color1, #ede5da)" d="M21.332 25.209h-7.85l-1.63-1.632 2.242-2.038 0.61 0.815 1.019-1.019 1.019 1.019 1.223-1.019 1.019 1.019 1.223-1.019 1.036 0.854z"></path>
<path fill="#0e2d6d" style="fill: var(--color2, #0e2d6d)" d="M21.332 25.455h-7.951l-1.886-1.886 2.634-2.395 0.603 0.805 0.992-0.992 1.036 1.034 1.223-1.019 1.017 1.019 1.209-1.007 1.191 0.985-0.313 0.382-0.879-0.726-1.238 1.034-1.019-1.019-1.223 1.019-1.004-1.004-1.046 1.046-0.618-0.827-1.851 1.684 1.376 1.376h7.746v0.492z"></path>
<path fill="#ede5da" style="fill: var(--color1, #ede5da)" d="M29.994 23.577c0 2.477-2.008 4.485-4.485 4.485s-4.485-2.008-4.485-4.485c0-2.477 2.008-4.485 4.485-4.485s4.485 2.008 4.485 4.485zM26.528 21.947c-0.9 0-1.63 0.73-1.63 1.63s0.73 1.63 1.63 1.63c0.9 0 1.63-0.73 1.63-1.63s-0.73-1.63-1.63-1.63z"></path>
<path fill="#0e2d6d" style="fill: var(--color2, #0e2d6d)" d="M25.509 28.308c-2.613 0-4.731-2.118-4.731-4.731s2.118-4.731 4.731-4.731c2.613 0 4.731 2.118 4.731 4.731-0.003 2.612-2.119 4.728-4.731 4.731zM25.509 19.338c-2.341 0-4.239 1.898-4.239 4.239s1.898 4.239 4.239 4.239c2.341 0 4.239-1.898 4.239-4.239-0.003-2.34-1.899-4.236-4.239-4.239zM26.528 25.452c-1.035-0.001-1.873-0.841-1.873-1.876s0.84-1.876 1.876-1.876 1.876 0.84 1.876 1.876c0 1.037-0.841 1.878-1.878 1.878zM26.528 22.191c-0.763 0.001-1.381 0.62-1.381 1.383s0.619 1.383 1.383 1.383c0.763 0 1.382-0.618 1.383-1.381-0.001-0.764-0.621-1.384-1.386-1.384 0 0 0 0 0 0z"></path>
</symbol>
<symbol id="icon-success" viewBox="0 0 32 32">
<title>success</title>
<path fill="#ede5da" style="fill: var(--color1, #ede5da)" d="M25.361 8.615h2.998v14.319h-2.998v-14.319z"></path>
<path fill="#0e2d6d" style="fill: var(--color2, #0e2d6d)" d="M28.606 23.18h-3.498v-14.811h3.49zM25.607 22.688h2.506v-13.826h-2.513z"></path>
<path fill="#c0ac8e" style="fill: var(--color3, #c0ac8e)" d="M19.865 13.814h2.998v9.122h-2.998v-9.122z"></path>
<path fill="#0e2d6d" style="fill: var(--color2, #0e2d6d)" d="M23.109 23.18h-3.49v-9.612h3.49zM20.111 22.688h2.506v-8.628h-2.506z"></path>
<path fill="#c0ac8e" style="fill: var(--color3, #c0ac8e)" d="M14.366 16.561h2.998v6.373h-2.998v-6.373z"></path>
<path fill="#0e2d6d" style="fill: var(--color2, #0e2d6d)" d="M17.61 23.18h-3.49v-6.865h3.49zM14.612 22.688h2.506v-5.881h-2.506z"></path>
<path fill="#c0ac8e" style="fill: var(--color3, #c0ac8e)" d="M8.869 18.937h2.998v3.998h-2.998v-3.998z"></path>
<path fill="#0e2d6d" style="fill: var(--color2, #0e2d6d)" d="M12.113 23.18h-3.498v-4.49h3.498zM9.108 22.688h2.513v-3.505h-2.513z"></path>
<path fill="#0e2d6d" style="fill: var(--color2, #0e2d6d)" d="M25.004 6.939l-0.473-2.966-2.966 0.473-0.076-0.487 3.451-0.546 0.549 3.451-0.485 0.076z"></path>
<path fill="#0e2d6d" style="fill: var(--color2, #0e2d6d)" d="M8.273 16.93l-0.059-0.492c0.081 0 8.244-1.142 16.32-12.891l0.406 0.278c-8.217 11.956-16.325 13.066-16.667 13.105z"></path>
<path fill="#0e2d6d" style="fill: var(--color2, #0e2d6d)" d="M2.87 24.438h26.26v0.492h-26.26v-0.492z"></path>
<path fill="#0e2d6d" style="fill: var(--color2, #0e2d6d)" d="M6.122 5.066h0.492v23.242h-0.492v-23.242z"></path>
</symbol>
<symbol id="icon-team" viewBox="0 0 32 32">
<title>team</title>
<path fill="#c0ac8e" style="fill: var(--color3, #c0ac8e)" d="M19.045 15.092h-0.283c-0.013 0.001-0.028 0.001-0.043 0.001-0.604 0-1.093-0.489-1.093-1.093 0-0.015 0-0.030 0.001-0.045l-0-2.802c0-1.122 2.058-1.703 3.121-1.703s3.129 0.581 3.129 1.703v2.804c0.001 0.013 0.001 0.028 0.001 0.043 0 0.604-0.489 1.093-1.093 1.093-0.015 0-0.030-0-0.045-0.001l-0.291 0z"></path>
<path fill="#0e2d6d" style="fill: var(--color2, #0e2d6d)" d="M22.732 15.338h-0.283v-0.492h0.283c0.015 0.001 0.033 0.002 0.050 0.002 0.469 0 0.849-0.38 0.849-0.849 0-0.014-0-0.029-0.001-0.043l0-2.802c0-0.903-1.861-1.457-2.875-1.457s-2.875 0.554-2.875 1.457v2.804c-0.001 0.012-0.001 0.026-0.001 0.040 0 0.469 0.38 0.849 0.849 0.849 0.014 0 0.028-0 0.042-0.001l0.281 0v0.492h-0.29c-0.013 0-0.029 0.001-0.045 0.001-0.738 0-1.337-0.598-1.337-1.337 0-0.016 0-0.032 0.001-0.047l-0-2.801c0-1.297 2.159-1.95 3.367-1.95s3.375 0.642 3.375 1.95v2.804c0 0.014 0.001 0.029 0.001 0.045 0 0.738-0.598 1.337-1.337 1.337-0.019 0-0.039-0-0.058-0.001z"></path>
<path fill="#c0ac8e" style="fill: var(--color3, #c0ac8e)" d="M20.748 9.531c0.779-0.012 1.406-0.647 1.406-1.428 0-0.007-0-0.014-0-0.021v-0.491c0-0.784-0.635-1.419-1.419-1.419s-1.419 0.635-1.419 1.419v0.492c-0 0.006-0 0.013-0 0.020 0 0.789 0.639 1.428 1.428 1.428 0.002 0 0.004 0 0.005 0z"></path>
<path fill="#0e2d6d" style="fill: var(--color2, #0e2d6d)" d="M20.748 9.777c-0.921-0.010-1.664-0.759-1.664-1.681 0-0.004 0-0.009 0-0.013v-0.492c0-0.92 0.746-1.665 1.665-1.665s1.665 0.746 1.665 1.665v0.492c0 0.004 0 0.008 0 0.012 0 0.923-0.744 1.673-1.666 1.681zM20.748 6.4c-0.649 0.010-1.172 0.538-1.172 1.189 0 0.004 0 0.009 0 0.013v0.492c0 0.648 0.525 1.173 1.173 1.173s1.173-0.525 1.173-1.173v-0.492c0-0.004 0-0.008 0-0.012 0-0.651-0.524-1.181-1.173-1.189z"></path>
<path fill="#c0ac8e" style="fill: var(--color3, #c0ac8e)" d="M19.045 12.288v4.539h3.404v-4.539z"></path>
<path fill="#0e2d6d" style="fill: var(--color2, #0e2d6d)" d="M22.695 17.073h-3.897v-4.785h0.492v4.293h2.912v-4.293h0.492v4.785z"></path>
<path fill="#c0ac8e" style="fill: var(--color3, #c0ac8e)" d="M9.551 15.092h-0.283c-0.016 0.001-0.034 0.001-0.053 0.001-0.604 0-1.093-0.489-1.093-1.093 0-0.015 0-0.030 0.001-0.045l-0-2.802c0-1.122 2.058-1.703 3.121-1.703s3.121 0.578 3.121 1.703v2.804c0.001 0.013 0.001 0.028 0.001 0.043 0 0.604-0.489 1.093-1.093 1.093-0.015 0-0.030-0-0.045-0.001l-0.274 0z"></path>
<path fill="#0e2d6d" style="fill: var(--color2, #0e2d6d)" d="M13.238 15.338h-0.283v-0.492h0.283c0.012 0.001 0.026 0.001 0.040 0.001 0.469 0 0.849-0.38 0.849-0.849 0-0.014-0-0.028-0.001-0.042l0-2.802c0-0.903-1.861-1.457-2.875-1.457s-2.882 0.554-2.882 1.457v2.804c-0.001 0.012-0.001 0.026-0.001 0.040 0 0.469 0.38 0.849 0.849 0.849 0.014 0 0.028-0 0.042-0.001l0.291 0v0.492h-0.283c-0.016 0.001-0.036 0.001-0.055 0.001-0.738 0-1.337-0.598-1.337-1.337 0-0.016 0-0.032 0.001-0.048l-0-2.801c0-1.297 2.159-1.95 3.367-1.95s3.375 0.642 3.375 1.95v2.804c0 0.013 0.001 0.029 0.001 0.045 0 0.738-0.598 1.337-1.337 1.337-0.016 0-0.032-0-0.047-0.001z"></path>
<path fill="#c0ac8e" style="fill: var(--color3, #c0ac8e)" d="M11.252 9.531c0.784-0.005 1.418-0.643 1.418-1.428 0-0.007-0-0.014-0-0.021v-0.491c0-0.784-0.635-1.419-1.419-1.419s-1.419 0.635-1.419 1.419v0.492c-0 0.006-0 0.013-0 0.020 0 0.786 0.635 1.424 1.42 1.428z"></path>
<path fill="#0e2d6d" style="fill: var(--color2, #0e2d6d)" d="M11.252 9.777c-0.916-0.017-1.652-0.763-1.652-1.681 0-0.004 0-0.009 0-0.013v-0.492c0-0.92 0.746-1.665 1.665-1.665s1.665 0.746 1.665 1.665v0.492c0 0.004 0 0.008 0 0.012 0 0.928-0.751 1.68-1.679 1.681zM11.252 6.4c-0.644 0.016-1.159 0.542-1.159 1.189 0 0.004 0 0.009 0 0.013v0.492c0 0.648 0.525 1.173 1.173 1.173s1.173-0.525 1.173-1.173v-0.492c0-0.004 0-0.008 0-0.012 0-0.656-0.531-1.188-1.186-1.189z"></path>
<path fill="#c0ac8e" style="fill: var(--color3, #c0ac8e)" d="M9.551 12.288v4.539h3.404v-4.539z"></path>
<path fill="#0e2d6d" style="fill: var(--color2, #0e2d6d)" d="M13.201 17.073h-3.897v-4.785h0.492v4.293h2.912v-4.293h0.492v4.785z"></path>
<path fill="#ede5da" style="fill: var(--color1, #ede5da)" d="M22.491 22.203h-0.414c-0.016 0.001-0.034 0.001-0.053 0.001-0.881 0-1.595-0.714-1.595-1.595 0-0.021 0-0.042 0.001-0.063l-0-4.086c0-1.637 3.001-2.484 4.551-2.484s4.551 0.844 4.551 2.484v4.089c0.001 0.018 0.001 0.039 0.001 0.060 0 0.881-0.714 1.595-1.595 1.595-0.021 0-0.042-0-0.063-0.001l-0.411 0z"></path>
<path fill="#0e2d6d" style="fill: var(--color2, #0e2d6d)" d="M27.87 22.449h-0.414v-0.492h0.414c0.018 0.001 0.039 0.001 0.060 0.001 0.745 0 1.349-0.604 1.349-1.349 0-0.021-0-0.042-0.001-0.063l0-4.086c0-0.825-0.97-1.376-1.548-1.63-0.811-0.357-1.755-0.577-2.746-0.605-1.013 0.029-1.956 0.248-2.816 0.624-0.53 0.227-1.5 0.786-1.5 1.611v4.089c-0.001 0.018-0.001 0.039-0.001 0.060 0 0.745 0.604 1.349 1.349 1.349 0.021 0 0.042-0 0.063-0.001l0.411 0v0.492h-0.411c-0.016 0.001-0.036 0.001-0.055 0.001-1.016 0-1.839-0.823-1.839-1.839 0-0.022 0-0.044 0.001-0.066l-0-4.085c0-1.817 3.077-2.73 4.798-2.73s4.798 0.911 4.798 2.73v4.089c0.001 0.019 0.001 0.041 0.001 0.063 0 1.016-0.823 1.839-1.839 1.839-0.025 0-0.051-0.001-0.076-0.002z"></path>
<path fill="#ede5da" style="fill: var(--color1, #ede5da)" d="M24.972 14.095c1.144-0.008 2.068-0.937 2.068-2.082 0-0.010-0-0.021-0-0.031l0-0.7c0.001-0.021 0.001-0.046 0.001-0.071 0-1.143-0.927-2.070-2.070-2.070s-2.070 0.927-2.070 2.070c0 0.025 0 0.050 0.001 0.075l-0 0.7c-0 0.008-0 0.018-0 0.027 0 1.146 0.925 2.076 2.070 2.082z"></path>
<path fill="#0e2d6d" style="fill: var(--color2, #0e2d6d)" d="M24.972 14.341c-1.286-0.007-2.326-1.051-2.326-2.338 0-0.006 0-0.012 0-0.018v-0.703c-0.001-0.023-0.001-0.049-0.001-0.075 0-1.279 1.037-2.316 2.316-2.316s2.316 1.037 2.316 2.316c0 0.027-0 0.053-0.001 0.079l0 0.7c0 0.005 0 0.011 0 0.017 0 1.279-1.027 2.319-2.302 2.338zM24.972 9.418c-1.014 0.007-1.834 0.831-1.834 1.846 0 0.006 0 0.012 0 0.018v0.703c-0.001 0.020-0.001 0.043-0.001 0.067 0 1.007 0.817 1.824 1.824 1.824s1.824-0.817 1.824-1.824c0-0.024-0-0.047-0.001-0.070l0-0.701c0-0.006 0-0.013 0-0.020 0-1.008-0.807-1.827-1.81-1.846z"></path>
<path fill="#ede5da" style="fill: var(--color1, #ede5da)" d="M22.491 18.114v6.619h4.965v-6.619z"></path>
<path fill="#0e2d6d" style="fill: var(--color2, #0e2d6d)" d="M27.702 24.98h-5.457v-6.865h0.492v6.373h4.473v-6.373h0.492v6.865z"></path>
<path fill="#ede5da" style="fill: var(--color1, #ede5da)" d="M4.544 22.203h-0.414c-0.018 0.001-0.039 0.001-0.060 0.001-0.881 0-1.595-0.714-1.595-1.595 0-0.021 0-0.042 0.001-0.063l-0-4.086c0-1.637 3.001-2.484 4.551-2.484s4.542 0.844 4.542 2.484v4.089c0.001 0.018 0.001 0.039 0.001 0.060 0 0.881-0.714 1.595-1.595 1.595-0.021 0-0.042-0-0.063-0.001l-0.403 0z"></path>
<path fill="#0e2d6d" style="fill: var(--color2, #0e2d6d)" d="M9.922 22.449h-0.414v-0.492h0.414c0.016 0.001 0.034 0.001 0.053 0.001 0.745 0 1.349-0.604 1.349-1.349 0-0.021-0.001-0.042-0.001-0.063l0-4.086c0-1.388-2.786-2.238-4.305-2.238-1.002 0.029-1.946 0.249-2.805 0.624-0.53 0.227-1.5 0.786-1.5 1.611v4.091c-0.001 0.018-0.001 0.039-0.001 0.060 0 0.745 0.604 1.349 1.349 1.349 0.021 0 0.042-0 0.063-0.001l0.411 0v0.492h-0.404c-0.019 0.001-0.041 0.001-0.063 0.001-1.016 0-1.839-0.823-1.839-1.839 0-0.022 0-0.044 0.001-0.066l-0-4.085c0-1.817 3.077-2.73 4.798-2.73s4.788 0.911 4.788 2.73v4.089c0.001 0.019 0.001 0.040 0.001 0.062 0 1.016-0.823 1.839-1.839 1.839-0.019 0-0.039-0-0.058-0.001z"></path>
<path fill="#ede5da" style="fill: var(--color1, #ede5da)" d="M7.028 14.095c1.149-0.001 2.080-0.933 2.080-2.082 0-0.010-0-0.019-0-0.029v-0.703c0.001-0.021 0.001-0.046 0.001-0.071 0-1.143-0.927-2.070-2.070-2.070s-2.070 0.927-2.070 2.070c0 0.025 0 0.050 0.001 0.075l-0 0.7c-0 0.008-0 0.018-0 0.027 0 1.142 0.918 2.069 2.057 2.082z"></path>
<path fill="#0e2d6d" style="fill: var(--color2, #0e2d6d)" d="M7.028 14.341c-1.281-0.014-2.314-1.055-2.314-2.338 0-0.007 0-0.014 0-0.021v-0.7c-0.001-0.023-0.001-0.049-0.001-0.075 0-1.279 1.037-2.316 2.316-2.316s2.316 1.037 2.316 2.316c0 0.027-0 0.053-0.001 0.079l0 0.7c0 0.005 0 0.011 0 0.017 0 1.284-1.034 2.326-2.315 2.338zM7.028 9.418c-1.009 0.014-1.822 0.835-1.822 1.846 0 0.007 0 0.014 0 0.021v0.703c-0.001 0.020-0.001 0.043-0.001 0.067 0 1.007 0.817 1.824 1.824 1.824s1.824-0.817 1.824-1.824c0-0.024-0-0.047-0.001-0.070l0-0.703c0-0.006 0-0.013 0-0.020 0-1.012-0.814-1.834-1.823-1.846z"></path>
<path fill="#ede5da" style="fill: var(--color1, #ede5da)" d="M4.544 18.114v6.619h4.965v-6.619z"></path>
<path fill="#0e2d6d" style="fill: var(--color2, #0e2d6d)" d="M9.755 24.98h-5.457v-6.865h0.492v6.373h4.473v-6.373h0.492v6.865z"></path>
<path fill="#ede5da" style="fill: var(--color1, #ede5da)" d="M13.162 22.954h-0.473c-0.021 0.001-0.046 0.001-0.070 0.001-1.006 0-1.822-0.816-1.822-1.822 0-0.025 0.001-0.049 0.001-0.074l-0-4.673c0-1.863 3.431-2.836 5.201-2.836s5.201 0.972 5.201 2.838v4.677c0.001 0.021 0.001 0.046 0.001 0.070 0 1.006-0.816 1.822-1.822 1.822-0.025 0-0.049-0-0.074-0.001l-0.469 0z"></path>
<path fill="#0e2d6d" style="fill: var(--color2, #0e2d6d)" d="M19.311 23.2h-0.473v-0.492h0.473c0.021 0.001 0.046 0.002 0.070 0.002 0.87 0 1.575-0.705 1.575-1.575 0-0.025-0.001-0.049-0.002-0.074l0-4.673c0-1.676-3.274-2.592-4.955-2.592s-4.955 0.918-4.955 2.594v4.677c-0.001 0.021-0.002 0.046-0.002 0.070 0 0.87 0.705 1.575 1.575 1.575 0.025 0 0.049-0.001 0.074-0.002l0.469 0v0.492h-0.473c-0.021 0.001-0.045 0.001-0.070 0.001-1.142 0-2.068-0.926-2.068-2.068 0-0.025 0-0.049 0.001-0.074l-0-4.673c0-0.933 0.721-1.745 2.082-2.346 0.99-0.438 2.142-0.707 3.353-0.738 1.235 0.031 2.387 0.3 3.435 0.761 1.306 0.578 2.024 1.388 2.024 2.323v4.677c0.001 0.020 0.001 0.044 0.001 0.068 0 1.142-0.926 2.068-2.068 2.068-0.025 0-0.049-0-0.074-0.001z"></path>
<path fill="#ede5da" style="fill: var(--color1, #ede5da)" d="M16 13.689c1.308-0.008 2.366-1.071 2.366-2.38 0-0.011-0-0.023-0-0.034l0-0.803c0.001-0.023 0.001-0.049 0.001-0.076 0-1.306-1.059-2.366-2.366-2.366s-2.366 1.059-2.366 2.366c0 0.027 0 0.054 0.001 0.080l-0 0.799c-0 0.010-0 0.022-0 0.035 0 1.309 1.056 2.371 2.362 2.38z"></path>
<path fill="#0e2d6d" style="fill: var(--color2, #0e2d6d)" d="M16 13.935c-1.445-0.017-2.609-1.192-2.609-2.639 0-0.008 0-0.016 0-0.024v-0.801c-0.001-0.024-0.001-0.052-0.001-0.080 0-1.442 1.169-2.612 2.612-2.612s2.612 1.169 2.612 2.612c0 0.028-0 0.056-0.001 0.084l0 0.798c0 0.007 0 0.014 0 0.022 0 1.448-1.166 2.623-2.61 2.639zM16 8.305c-1.172 0.015-2.117 0.969-2.117 2.144 0 0.008 0 0.016 0 0.024v0.801c-0.001 0.022-0.001 0.047-0.001 0.072 0 1.171 0.949 2.119 2.119 2.119s2.119-0.949 2.119-2.119c0-0.025-0-0.051-0.001-0.076l0-0.799c0-0.007 0-0.016 0-0.025 0-1.175-0.946-2.13-2.118-2.144z"></path>
<path fill="#ede5da" style="fill: var(--color1, #ede5da)" d="M13.162 18.279v7.567h5.676v-7.567z"></path>
<path fill="#0e2d6d" style="fill: var(--color2, #0e2d6d)" d="M19.084 26.092h-6.169v-7.813h0.492v7.321h5.184v-7.321h0.492v7.813z"></path>
</symbol>
<symbol id="icon-estate" viewBox="0 0 32 32">
<title>estate</title>
<path fill="#ede5da" style="fill: var(--color1, #ede5da)" d="M4.512 13.046v12.49h22.905v-12.49z"></path>
<path fill="#0e2d6d" style="fill: var(--color2, #0e2d6d)" d="M27.663 25.782h-23.397v-12.736h0.492v12.244h22.412v-12.244h0.492v12.736z"></path>
<path fill="#c0ac8e" style="fill: var(--color3, #c0ac8e)" d="M6.582 7.574h0.064v5.836c0 0.837-0.679 1.516-1.516 1.516h-0.071c-0.837 0-1.516-0.679-1.516-1.516v-2.804c0 0 0 0 0 0 0-1.675 1.358-3.033 3.033-3.033 0.003 0 0.005 0 0.008 0z"></path>
<path fill="#0e2d6d" style="fill: var(--color2, #0e2d6d)" d="M5.135 15.173h-0.071c-0.973-0.001-1.761-0.79-1.762-1.762v-2.804c0.003-1.811 1.47-3.277 3.281-3.279h0.31v6.082c-0.001 0.971-0.787 1.758-1.757 1.762zM6.4 7.825c-1.461 0.097-2.609 1.305-2.612 2.781v2.804c0.001 0.701 0.569 1.269 1.27 1.27h0.072c0.701-0.001 1.269-0.569 1.27-1.27z"></path>
<path fill="#ede5da" style="fill: var(--color1, #ede5da)" d="M6.646 7.574h3.109v5.836c0 0.837-0.679 1.516-1.516 1.516h-0.071c-0.001 0-0.003 0-0.005 0-0.837 0-1.516-0.679-1.516-1.516 0 0 0 0 0 0v-5.836z"></path>
<path fill="#0e2d6d" style="fill: var(--color2, #0e2d6d)" d="M8.239 15.173h-0.071c-0.001 0-0.002 0-0.002 0-0.974 0-1.764-0.789-1.765-1.762v-6.083h3.601v6.082c-0.001 0.973-0.79 1.761-1.762 1.762zM6.892 7.82v5.59c0.001 0.701 0.569 1.269 1.27 1.27h0.072c0.701-0.001 1.269-0.569 1.27-1.27v-5.59z"></path>
<path fill="#c0ac8e" style="fill: var(--color3, #c0ac8e)" d="M9.755 7.574h3.104v5.836c0 0.837-0.679 1.516-1.516 1.516h-0.071c-0.837 0-1.516-0.679-1.516-1.516v-5.836cz"></path>
<path fill="#0e2d6d" style="fill: var(--color2, #0e2d6d)" d="M11.343 15.173h-0.071c-0.973-0.001-1.761-0.79-1.762-1.762v-6.083h3.596v6.082c-0.001 0.973-0.79 1.761-1.762 1.762zM10.001 7.82v5.59c0.001 0.701 0.569 1.269 1.27 1.27h0.072c0.701-0.001 1.269-0.569 1.27-1.27v-5.59z"></path>
<path fill="#ede5da" style="fill: var(--color1, #ede5da)" d="M12.859 7.574h3.104v5.836c0 0.837-0.679 1.516-1.516 1.516h-0.071c-0.837 0-1.516-0.679-1.516-1.516v-5.836cz"></path>
<path fill="#0e2d6d" style="fill: var(--color2, #0e2d6d)" d="M14.447 15.173h-0.071c-0.973-0.001-1.761-0.79-1.762-1.762v-6.083h3.596v6.082c-0.001 0.973-0.79 1.761-1.762 1.762zM13.105 7.82v5.59c0.001 0.701 0.569 1.269 1.27 1.27h0.072c0.701-0.001 1.269-0.569 1.27-1.27v-5.59z"></path>
<path fill="#c0ac8e" style="fill: var(--color3, #c0ac8e)" d="M15.963 7.574h3.104v5.836c0 0.837-0.679 1.516-1.516 1.516h-0.074c-0.837 0-1.516-0.679-1.516-1.516v-5.836z"></path>
<path fill="#0e2d6d" style="fill: var(--color2, #0e2d6d)" d="M17.551 15.173h-0.074c-0.973-0.001-1.761-0.79-1.762-1.762v-6.083h3.599v6.082c-0.001 0.973-0.79 1.761-1.762 1.762zM16.209 7.82v5.59c0.001 0.7 0.568 1.267 1.267 1.27h0.072c0.701-0.001 1.269-0.569 1.27-1.27v-5.59z"></path>
<path fill="#ede5da" style="fill: var(--color1, #ede5da)" d="M19.067 7.574h3.104v5.836c0 0.837-0.679 1.516-1.516 1.516h-0.071c-0.837 0-1.516-0.679-1.516-1.516v-5.836z"></path>
<path fill="#0e2d6d" style="fill: var(--color2, #0e2d6d)" d="M20.655 15.173h-0.071c-0.973-0.001-1.761-0.79-1.762-1.762v-6.083h3.596v6.082c-0.001 0.973-0.79 1.761-1.762 1.762zM19.313 7.82v5.59c0.001 0.701 0.569 1.269 1.27 1.27h0.072c0.701-0.001 1.269-0.569 1.27-1.27v-5.59z"></path>
<path fill="#c0ac8e" style="fill: var(--color3, #c0ac8e)" d="M22.171 7.574h3.104v5.836c0 0.837-0.679 1.516-1.516 1.516h-0.071c-0.837 0-1.516-0.679-1.516-1.516v-5.836z"></path>
<path fill="#0e2d6d" style="fill: var(--color2, #0e2d6d)" d="M23.759 15.173h-0.071c-0.973-0.001-1.761-0.79-1.762-1.762v-6.083h3.596v6.082c-0.001 0.973-0.79 1.761-1.762 1.762zM22.417 7.82v5.59c0.001 0.701 0.569 1.269 1.27 1.27h0.072c0.701-0.001 1.269-0.569 1.27-1.27v-5.59z"></path>
<path fill="#ede5da" style="fill: var(--color1, #ede5da)" d="M25.275 7.574h0.079c1.675 0 3.033 1.358 3.033 3.033v2.804c0 0.837-0.679 1.516-1.516 1.516h-0.071c-0.837 0-1.516-0.679-1.516-1.516v-5.836z"></path>
<path fill="#0e2d6d" style="fill: var(--color2, #0e2d6d)" d="M26.863 15.173h-0.071c-0.973-0.001-1.761-0.79-1.762-1.762v-6.083h0.325c1.81 0.003 3.276 1.469 3.279 3.279v2.804c-0.001 0.974-0.791 1.762-1.765 1.762-0.002 0-0.003 0-0.005 0zM25.521 7.825v5.585c0.001 0.701 0.569 1.269 1.27 1.27h0.072c0.701-0.001 1.269-0.569 1.27-1.27v-2.804c-0.002-1.477-1.151-2.684-2.603-2.781z"></path>
<path fill="#c0ac8e" style="fill: var(--color3, #c0ac8e)" d="M13.553 16.857h4.822v8.679h-4.822v-8.679z"></path>
<path fill="#0e2d6d" style="fill: var(--color2, #0e2d6d)" d="M18.622 25.782h-5.314v-9.172h5.314zM13.799 25.29h4.33v-8.187h-4.33z"></path>
<path fill="#c0ac8e" style="fill: var(--color3, #c0ac8e)" d="M6.442 16.977h4.822v5.787h-4.822v-5.787z"></path>
<path fill="#0e2d6d" style="fill: var(--color2, #0e2d6d)" d="M11.508 23.008h-5.312v-6.27h5.312zM6.686 22.516h4.33v-5.285h-4.327z"></path>
<path fill="#c0ac8e" style="fill: var(--color3, #c0ac8e)" d="M20.665 16.977h4.822v5.787h-4.822v-5.787z"></path>
<path fill="#0e2d6d" style="fill: var(--color2, #0e2d6d)" d="M25.733 23.008h-5.302v-6.27h5.314zM20.923 22.516h4.33v-5.285h-4.33z"></path>
<path fill="#c0ac8e" style="fill: var(--color3, #c0ac8e)" d="M13.191 3.717h5.546c2.13 0 3.857 1.727 3.857 3.857h-13.26c0-2.13 1.727-3.857 3.857-3.857z"></path>
<path fill="#0e2d6d" style="fill: var(--color2, #0e2d6d)" d="M22.841 7.82h-13.753v-0.246c0.003-2.265 1.838-4.101 4.103-4.103h5.546c2.265 0.003 4.101 1.838 4.103 4.103zM9.6 7.328h12.751c-0.135-1.886-1.699-3.365-3.607-3.365-0.002 0-0.004 0-0.007 0h-5.546c-1.902 0.009-3.457 1.484-3.591 3.353z"></path>
</symbol>
<symbol id="icon-stocks" viewBox="0 0 32 32">
<title>stocks</title>
<path fill="#0e2d6d" style="fill: var(--color2, #0e2d6d)" d="M1.438 16.812l-0.684-0.709 5.743-5.548 2.607 2.678 7.183-6.917 4.34 3.781 9.172-8.945 0.687 0.704-9.822 9.58-4.345-3.786-7.237 6.971-2.607-2.676-5.036 4.866z"></path>
<path fill="#0e2d6d" style="fill: var(--color2, #0e2d6d)" d="M24.994 0.898l0.022 0.985 4.854-0.116-0.239 4.849 0.985 0.047 0.288-5.905-5.91 0.14z"></path>
<path fill="#c0ac8e" style="fill: var(--color3, #c0ac8e)" d="M1.442 11.151l-0.697-0.694 4.953-4.953 2.54 2.54 6.858-6.858 3.303 3.301 3.34-3.343 0.697 0.697-4.037 4.039-3.303-3.303-6.858 6.858-2.54-2.538-4.256 4.254z"></path>
<path fill="#c0ac8e" style="fill: var(--color3, #c0ac8e)" d="M16.935 0.953l0.034 0.985 4.852-0.177-0.177 4.852 0.985 0.034 0.214-5.908-5.908 0.214z"></path>
<path fill="#ede5da" style="fill: var(--color1, #ede5da)" d="M17.969 27.239c-2.954 0-5.349-1.044-5.349-2.324 0-0.194 0.025-2.247 0.030-2.319 0.049-1.164 2.821-1.617 5.319-1.617 2.54 0 4.839 0.539 5.378 1.573 0 0-0.030 2.188-0.030 2.363-0.007 1.28-2.41 2.324-5.349 2.324z"></path>
<path fill="#0e2d6d" style="fill: var(--color2, #0e2d6d)" d="M17.969 27.486c-3.138 0-5.595-1.13-5.595-2.57 0-0.18 0.025-2.247 0.030-2.329 0.074-1.765 4.65-1.854 5.566-1.854 2.274 0 4.94 0.448 5.595 1.706l0.030 0.054v0.062s-0.030 2.186-0.030 2.361c-0.007 1.44-2.464 2.57-5.595 2.57zM17.969 21.223c-2.907 0-5.041 0.581-5.073 1.383 0 0.059-0.030 2.090-0.030 2.309 0 1.004 2.050 2.078 5.103 2.078s5.103-1.076 5.103-2.078c0-0.158 0.022-1.935 0.027-2.302-0.51-0.834-2.553-1.391-5.13-1.391z"></path>
<path fill="#ede5da" style="fill: var(--color1, #ede5da)" d="M17.969 25.371c-2.954 0-5.349-1.044-5.349-2.324 0-0.194 0.025-2.247 0.030-2.319 0.049-1.164 2.821-1.617 5.319-1.617 2.54 0 4.839 0.539 5.378 1.573 0 0-0.030 2.188-0.030 2.363-0.007 1.278-2.41 2.324-5.349 2.324z"></path>
<path fill="#0e2d6d" style="fill: var(--color2, #0e2d6d)" d="M17.969 25.617c-3.138 0-5.595-1.13-5.595-2.57 0-0.18 0.025-2.247 0.030-2.329 0.066-1.765 4.642-1.856 5.566-1.856 2.274 0 4.94 0.448 5.595 1.706l0.030 0.054v0.054s-0.030 2.186-0.030 2.361c-0.007 1.45-2.464 2.58-5.595 2.58zM17.969 19.355c-2.907 0-5.041 0.581-5.073 1.383 0 0.059-0.030 2.090-0.030 2.309 0 1.004 2.050 2.078 5.103 2.078s5.095-1.076 5.095-2.080c0-0.158 0.022-1.935 0.027-2.302-0.502-0.832-2.545-1.388-5.122-1.388z"></path>
<path fill="#ede5da" style="fill: var(--color1, #ede5da)" d="M17.969 23.5c-2.954 0-5.349-1.044-5.349-2.324 0-0.194 0.025-2.247 0.030-2.319 0.042-1.164 2.814-1.627 5.319-1.627 2.54 0 4.839 0.539 5.378 1.573 0 0-0.030 2.188-0.030 2.363-0.007 1.29-2.41 2.334-5.349 2.334z"></path>
<path fill="#0e2d6d" style="fill: var(--color2, #0e2d6d)" d="M17.969 23.746c-3.138 0-5.595-1.13-5.595-2.57 0-0.18 0.025-2.247 0.030-2.329 0.066-1.765 4.642-1.863 5.566-1.863 2.27 0 4.923 0.458 5.59 1.723l0.030 0.054v0.062s-0.032 2.178-0.032 2.346c0 1.45-2.457 2.577-5.588 2.577zM17.969 17.477c-2.912 0-5.046 0.591-5.081 1.391 0 0.059-0.030 2.090-0.030 2.309 0 1.004 2.050 2.078 5.103 2.078s5.103-1.073 5.103-2.085c0-0.158 0.022-1.935 0.027-2.302-0.502-0.825-2.545-1.391-5.122-1.391z"></path>
<path fill="#ede5da" style="fill: var(--color1, #ede5da)" d="M17.969 21.632c-2.954 0-5.349-1.044-5.349-2.324 0-0.194 0.025-2.247 0.030-2.319 0.049-1.164 2.821-1.617 5.319-1.617 2.54 0 4.839 0.539 5.378 1.573 0 0-0.030 2.188-0.030 2.363-0.007 1.28-2.41 2.324-5.349 2.324z"></path>
<path fill="#0e2d6d" style="fill: var(--color2, #0e2d6d)" d="M17.969 21.878c-3.138 0-5.595-1.13-5.595-2.57 0-0.18 0.025-2.247 0.030-2.329 0.074-1.765 4.65-1.854 5.566-1.854 2.274 0 4.94 0.448 5.595 1.706l0.030 0.054v0.062s-0.030 2.186-0.030 2.361c-0.007 1.44-2.464 2.57-5.595 2.57zM17.969 15.616c-2.907 0-5.041 0.581-5.073 1.383 0 0.059-0.030 2.090-0.030 2.309 0 1.004 2.050 2.078 5.103 2.078s5.095-1.076 5.095-2.078c0-0.158 0.022-1.935 0.027-2.302-0.502-0.834-2.545-1.391-5.122-1.391z"></path>
<path fill="#ede5da" style="fill: var(--color1, #ede5da)" d="M17.969 19.761c-2.954 0-5.349-1.044-5.349-2.324 0-0.194 0.025-2.247 0.030-2.319 0.049-1.164 2.821-1.617 5.319-1.617 2.54 0 4.839 0.539 5.378 1.573 0 0-0.030 2.188-0.030 2.363-0.007 1.27-2.41 2.324-5.349 2.324z"></path>
<path fill="#0e2d6d" style="fill: var(--color2, #0e2d6d)" d="M17.969 20.007c-3.138 0-5.595-1.13-5.595-2.57 0-0.18 0.025-2.247 0.030-2.329 0.074-1.765 4.65-1.854 5.566-1.854 2.274 0 4.94 0.448 5.595 1.706l0.030 0.054v0.062s-0.030 2.186-0.030 2.361c-0.007 1.442-2.464 2.57-5.595 2.57zM17.969 13.745c-2.907 0-5.041 0.581-5.073 1.383 0 0.059-0.030 2.090-0.030 2.309 0 1.004 2.050 2.078 5.103 2.078s5.095-1.073 5.095-2.078c0-0.158 0.022-1.935 0.027-2.302-0.502-0.832-2.545-1.388-5.122-1.388z"></path>
<path fill="#ede5da" style="fill: var(--color1, #ede5da)" d="M17.969 17.893c-2.954 0-5.349-1.044-5.349-2.324 0-0.194 0.025-2.247 0.030-2.319 0.049-1.164 2.821-1.617 5.319-1.617 2.54 0 4.839 0.539 5.378 1.573 0 0-0.030 2.188-0.030 2.363-0.007 1.28-2.41 2.324-5.349 2.324z"></path>
<path fill="#0e2d6d" style="fill: var(--color2, #0e2d6d)" d="M17.969 18.139c-3.138 0-5.595-1.13-5.595-2.57 0-0.18 0.025-2.247 0.030-2.329 0.074-1.765 4.65-1.854 5.566-1.854 2.277 0 4.94 0.448 5.595 1.706l0.030 0.054v0.062s-0.030 2.186-0.030 2.361c-0.007 1.44-2.464 2.57-5.595 2.57zM17.969 11.877c-2.907 0-5.041 0.581-5.073 1.383 0 0.059-0.030 2.090-0.030 2.309 0 1.004 2.050 2.078 5.103 2.078s5.095-1.076 5.095-2.078c0-0.158 0.022-1.935 0.027-2.302-0.502-0.834-2.545-1.391-5.122-1.391z"></path>
<path fill="#ede5da" style="fill: var(--color1, #ede5da)" d="M17.969 16.025c-2.954 0-5.349-1.044-5.349-2.324 0-0.194 0.025-2.247 0.030-2.319 0.049-1.164 2.821-1.617 5.319-1.617 2.54 0 4.839 0.539 5.378 1.573 0 0-0.030 2.188-0.030 2.363-0.007 1.278-2.41 2.324-5.349 2.324z"></path>
<path fill="#0e2d6d" style="fill: var(--color2, #0e2d6d)" d="M17.969 16.271c-3.138 0-5.595-1.13-5.595-2.57 0-0.18 0.025-2.247 0.030-2.329 0.066-1.772 4.642-1.856 5.566-1.856 2.274 0 4.94 0.448 5.595 1.706l0.030 0.054v0.062s-0.030 2.186-0.030 2.361c-0.007 1.442-2.464 2.572-5.595 2.572zM17.969 10.009c-2.907 0-5.041 0.581-5.073 1.383 0 0.059-0.030 2.090-0.030 2.309 0 1.004 2.050 2.078 5.103 2.078s5.095-1.076 5.095-2.080c0-0.158 0.022-1.935 0.027-2.302-0.502-0.832-2.545-1.388-5.122-1.388z"></path>
<path fill="#ede5da" style="fill: var(--color1, #ede5da)" d="M17.969 13.972c-2.954 0-5.349-1.044-5.349-2.324s2.41-2.324 5.349-2.324 5.349 1.044 5.349 2.324-2.395 2.324-5.349 2.324z"></path>
<path fill="#0e2d6d" style="fill: var(--color2, #0e2d6d)" d="M17.969 14.218c-3.138 0-5.595-1.13-5.595-2.57s2.466-2.57 5.595-2.57 5.595 1.13 5.595 2.57-2.449 2.57-5.595 2.57zM17.969 9.57c-3.052 0-5.103 1.076-5.103 2.078s2.058 2.078 5.103 2.078 5.103-1.076 5.103-2.078-2.043-2.078-5.103-2.078z"></path>
<path fill="#ede5da" style="fill: var(--color1, #ede5da)" d="M9.329 27.815c-2.954 0-5.349-1.044-5.349-2.324 0-0.194 0.025-2.247 0.030-2.319 0.049-1.164 2.821-1.617 5.319-1.617 2.54 0 4.839 0.539 5.378 1.573 0 0-0.030 2.188-0.030 2.363 0 1.28-2.402 2.324-5.349 2.324z"></path>
<path fill="#0e2d6d" style="fill: var(--color2, #0e2d6d)" d="M9.329 28.062c-3.138 0-5.595-1.13-5.595-2.57 0-0.18 0.025-2.247 0.030-2.329 0.074-1.765 4.65-1.854 5.566-1.854 2.274 0 4.94 0.448 5.595 1.706l0.030 0.054v0.069s-0.030 2.186-0.030 2.361c0 1.433-2.457 2.562-5.595 2.562zM9.329 21.799c-2.907 0-5.041 0.581-5.073 1.383 0 0.059-0.030 2.090-0.030 2.309 0 1.004 2.050 2.078 5.103 2.078s5.103-1.076 5.103-2.078c0-0.158 0.022-1.935 0.027-2.302-0.502-0.834-2.545-1.391-5.13-1.391z"></path>
<path fill="#ede5da" style="fill: var(--color1, #ede5da)" d="M9.329 25.947c-2.954 0-5.349-1.044-5.349-2.324 0-0.194 0.025-2.247 0.030-2.319 0.049-1.167 2.821-1.612 5.319-1.612 2.54 0 4.839 0.539 5.378 1.573 0 0-0.030 2.188-0.030 2.363 0 1.273-2.402 2.319-5.349 2.319z"></path>
<path fill="#0e2d6d" style="fill: var(--color2, #0e2d6d)" d="M9.329 26.193c-3.138 0-5.595-1.13-5.595-2.57 0-0.18 0.025-2.247 0.030-2.329 0.076-1.767 4.65-1.849 5.566-1.849 2.277 0 4.948 0.441 5.598 1.698l0.030 0.054v0.062s-0.030 2.186-0.030 2.361c-0.002 1.442-2.459 2.572-5.598 2.572zM9.329 19.938c-2.907 0-5.041 0.581-5.073 1.383 0 0.059-0.030 2.090-0.030 2.309 0 1.004 2.050 2.078 5.103 2.078s5.103-1.093 5.103-2.078c0-0.158 0.022-1.935 0.027-2.302-0.502-0.842-2.545-1.391-5.13-1.391z"></path>
<path fill="#ede5da" style="fill: var(--color1, #ede5da)" d="M9.329 24.076c-2.954 0-5.349-1.044-5.349-2.324 0-0.194 0.025-2.247 0.030-2.319 0.049-1.164 2.821-1.617 5.319-1.617 2.54 0 4.839 0.539 5.378 1.573 0 0-0.030 2.188-0.030 2.363 0 1.28-2.402 2.324-5.349 2.324z"></path>
<path fill="#0e2d6d" style="fill: var(--color2, #0e2d6d)" d="M9.329 24.322c-3.138 0-5.595-1.13-5.595-2.57 0-0.18 0.025-2.247 0.030-2.329 0.074-1.765 4.65-1.854 5.566-1.854 2.274 0 4.94 0.448 5.595 1.706l0.030 0.054v0.062s-0.030 2.186-0.030 2.361c0 1.442-2.457 2.57-5.595 2.57zM9.329 18.060c-2.907 0-5.041 0.581-5.073 1.383 0 0.059-0.030 2.090-0.030 2.309 0 1.004 2.050 2.078 5.103 2.078s5.103-1.076 5.103-2.078c0-0.158 0.022-1.935 0.027-2.302-0.502-0.832-2.545-1.391-5.13-1.391z"></path>
<path fill="#ede5da" style="fill: var(--color1, #ede5da)" d="M9.354 22.026c-2.954 0-5.349-1.044-5.349-2.324s2.395-2.326 5.349-2.326 5.339 1.044 5.339 2.316-2.402 2.334-5.339 2.334z"></path>
<path fill="#0e2d6d" style="fill: var(--color2, #0e2d6d)" d="M9.354 22.272c-3.138 0-5.595-1.13-5.595-2.57s2.449-2.572 5.595-2.572 5.585 1.13 5.585 2.562-2.457 2.58-5.585 2.58zM9.354 17.625c-3.062-0.002-5.113 1.083-5.113 2.068s2.050 2.087 5.113 2.087 5.093-1.076 5.093-2.087-2.050-2.070-5.093-2.070z"></path>
</symbol>
<symbol id="icon-money" viewBox="0 0 32 32">
<title>money</title>
<path fill="#c0ac8e" style="fill: var(--color3, #c0ac8e)" d="M15.173 8.539h5.871c0.412 0 0.746 0.334 0.746 0.746v0.682c0 0.412-0.334 0.746-0.746 0.746h-5.871c-0.412 0-0.746-0.334-0.746-0.746v-0.682c0-0.412 0.334-0.746 0.746-0.746z"></path>
<path fill="#0e2d6d" style="fill: var(--color2, #0e2d6d)" d="M21.044 10.959h-5.871c-0.544 0-0.985-0.441-0.985-0.985v-0.689c0-0.544 0.441-0.985 0.985-0.985h5.871c0.544 0 0.985 0.441 0.985 0.985v0.682c0 0.002 0 0.005 0 0.007 0 0.544-0.441 0.985-0.985 0.985 0 0-0 0-0 0zM15.173 8.785c-0.272 0-0.492 0.22-0.492 0.492v0.682c0 0.272 0.22 0.492 0.492 0.492h5.871c0.272 0 0.492-0.22 0.492-0.492v-0.674c0-0.272-0.22-0.492-0.492-0.492z"></path>
<path fill="#c0ac8e" style="fill: var(--color3, #c0ac8e)" d="M26.361 23.961c-0.19-0.725-0.299-1.558-0.299-2.416 0-0.276 0.011-0.549 0.033-0.82l-0.202-3.374c0.155-1.922-0.63-3.813-2.166-5.221-0.588-0.535-1.263-0.989-1.999-1.335l-0.101-0.021h-6.786c-0.782 0.367-1.455 0.819-2.047 1.357-1.529 1.402-2.315 3.293-2.16 5.215l-0.199 3.409c0.020 0.235 0.031 0.508 0.031 0.784 0 0.858-0.109 1.691-0.315 2.485l-0.327 1.295c-0.010 0.041-0.016 0.088-0.016 0.137 0 0.194 0.091 0.367 0.233 0.478 0.149 0.12 0.339 0.193 0.546 0.193 0.069 0 0.136-0.008 0.2-0.023l1.299-0.257c0.956-0.208 2.055-0.327 3.182-0.327 0.006 0 0.013 0 0.019 0h5.956c0.005 0 0.012 0 0.018 0 1.127 0 2.225 0.119 3.284 0.346l1.222 0.257c0.058 0.014 0.125 0.022 0.194 0.022 0.207 0 0.397-0.072 0.546-0.193 0.142-0.111 0.233-0.283 0.233-0.477 0-0.048-0.006-0.096-0.016-0.141z"></path>
<path fill="#0e2d6d" style="fill: var(--color2, #0e2d6d)" d="M10.585 26.375c-0.002 0-0.005 0-0.008 0-0.263 0-0.504-0.093-0.693-0.248-0.196-0.156-0.321-0.397-0.321-0.668 0-0.070 0.008-0.138 0.024-0.203l0.334-1.355c0.185-0.707 0.292-1.519 0.292-2.355 0-0.271-0.011-0.54-0.033-0.806l0.002 0.018 0.199-3.412c-0.009-0.126-0.013-0.273-0.013-0.421 0-1.987 0.872-3.77 2.253-4.988 0.613-0.558 1.308-1.026 2.066-1.383l0.105-0.046h6.939l0.054 0.025c0.809 0.379 1.504 0.846 2.116 1.404 1.382 1.218 2.254 3.001 2.254 4.988 0 0.148-0.005 0.295-0.014 0.441l0.198 3.392v0.017c-0.020 0.231-0.031 0.5-0.031 0.771 0 0.836 0.106 1.648 0.306 2.422l0.327 1.297c0.015 0.059 0.023 0.127 0.023 0.197 0 0.27-0.126 0.511-0.322 0.668-0.191 0.155-0.435 0.248-0.701 0.248-0.084 0-0.165-0.009-0.244-0.027l-1.317-0.274c-0.942-0.205-2.025-0.322-3.135-0.322-0.001 0-0.003 0-0.004 0h-5.969c-0.001 0-0.002 0-0.004 0-1.11 0-2.192 0.117-3.236 0.341l-1.223 0.258c-0.068 0.014-0.145 0.022-0.225 0.022-0.001 0-0.001 0-0.001 0zM10.683 20.753c0.020 0.237 0.031 0.513 0.031 0.792 0 0.879-0.112 1.732-0.322 2.545l-0.327 1.293c-0.005 0.023-0.008 0.049-0.008 0.076 0 0.119 0.057 0.224 0.145 0.29 0.106 0.083 0.24 0.133 0.386 0.133 0.048 0 0.094-0.005 0.138-0.015l1.31-0.267c0.972-0.211 2.088-0.332 3.233-0.332 0.002 0 0.004 0 0.007 0h5.966c0.002 0 0.004 0 0.006 0 1.145 0 2.261 0.121 3.337 0.351l1.22 0.257c0.040 0.009 0.087 0.015 0.134 0.015 0.146 0 0.28-0.050 0.387-0.134 0.088-0.066 0.145-0.171 0.145-0.289 0-0.027-0.003-0.053-0.009-0.079l-0.342-1.361c-0.195-0.743-0.307-1.597-0.307-2.476 0-0.281 0.011-0.559 0.034-0.834l-0.202-3.373v-0.017c0.008-0.116 0.012-0.252 0.012-0.389 0-1.843-0.81-3.496-2.093-4.624-0.561-0.511-1.196-0.941-1.887-1.273l-6.794-0.020c-0.737 0.352-1.371 0.783-1.931 1.293-1.284 1.128-2.094 2.782-2.094 4.624 0 0.137 0.004 0.273 0.013 0.408l-0.001-0.001z"></path>
<path fill="#c0ac8e" style="fill: var(--color3, #c0ac8e)" d="M15.429 8.482h5.846l0.14-0.406 0.534-1.59c0.080-0.232 0.126-0.499 0.126-0.777 0-0.678-0.274-1.291-0.717-1.736l-0.034-0.034c-0.155-0.155-0.368-0.251-0.604-0.251s-0.45 0.096-0.604 0.251c-0.155 0.155-0.368 0.251-0.604 0.251s-0.45-0.096-0.604-0.251c-0.155-0.155-0.368-0.251-0.604-0.251s-0.45 0.096-0.604 0.251c-0.154 0.154-0.368 0.249-0.603 0.249s-0.449-0.095-0.603-0.249c-0.155-0.155-0.368-0.251-0.604-0.251s-0.45 0.096-0.604 0.251c-0.443 0.445-0.717 1.059-0.717 1.737 0 0.3 0.054 0.587 0.152 0.853z"></path>
<path fill="#0e2d6d" style="fill: var(--color2, #0e2d6d)" d="M21.452 8.729h-6.191l-0.775-2.129c-0.102-0.274-0.161-0.59-0.161-0.92 0-0.746 0.301-1.421 0.789-1.911 0.199-0.199 0.474-0.322 0.778-0.322s0.579 0.123 0.778 0.322c0.11 0.109 0.262 0.177 0.43 0.177s0.319-0.067 0.43-0.177c0.199-0.199 0.474-0.322 0.778-0.322s0.579 0.123 0.778 0.322c0.11 0.11 0.262 0.178 0.43 0.178s0.32-0.068 0.43-0.178c0.199-0.198 0.473-0.321 0.775-0.322 0.001 0 0.002 0 0.003 0 0.303 0 0.577 0.123 0.775 0.322l0.030 0.030c0.491 0.486 0.794 1.16 0.794 1.906 0 0.308-0.052 0.604-0.148 0.88zM15.604 8.236h5.494l0.613-1.836c0.071-0.206 0.112-0.444 0.112-0.691 0-0.611-0.25-1.164-0.653-1.561l-0.030-0.030c-0.112-0.106-0.263-0.171-0.43-0.171s-0.318 0.065-0.43 0.171c-0.199 0.198-0.474 0.321-0.778 0.321s-0.578-0.123-0.778-0.321c-0.111-0.106-0.263-0.172-0.43-0.172s-0.318 0.065-0.43 0.172c-0.199 0.198-0.474 0.321-0.778 0.321s-0.578-0.123-0.778-0.321c-0.111-0.106-0.263-0.172-0.43-0.172s-0.318 0.065-0.43 0.172c-0.398 0.4-0.643 0.952-0.643 1.561 0 0.27 0.048 0.529 0.137 0.768z"></path>
<path fill="#ede5da" style="fill: var(--color1, #ede5da)" d="M10.112 28.308c2.646 0 4.807-0.938 4.807-2.087 0-0.175-0.022-2.018-0.025-2.082-0.044-1.046-2.535-1.455-4.78-1.455-2.284 0-4.347 0.492-4.832 1.413 0 0 0.025 1.969 0.025 2.124 0 1.15 2.159 2.087 4.805 2.087z"></path>
<path fill="#0e2d6d" style="fill: var(--color2, #0e2d6d)" d="M10.112 28.554c-2.833 0-5.054-1.026-5.054-2.334 0-0.158-0.025-2.119-0.025-2.119v-0.062l0.030-0.054c0.593-1.14 2.998-1.546 5.051-1.546 1.162 0 4.96 0.123 5.026 1.691 0 0.071 0.027 1.93 0.027 2.095-0.002 1.302-2.223 2.329-5.056 2.329zM5.529 24.158c0 0.345 0.025 1.92 0.025 2.060 0 1.086 2.402 1.841 4.561 1.841s4.561-0.756 4.561-1.841c0-0.162-0.022-1.984-0.025-2.075-0.030-0.706-1.937-1.218-4.534-1.218-2.311 0.002-4.135 0.495-4.588 1.233z"></path>
<path fill="#ede5da" style="fill: var(--color1, #ede5da)" d="M10.112 26.629c2.646 0 4.807-0.938 4.807-2.087 0-0.175-0.022-2.018-0.025-2.082-0.044-1.046-2.535-1.455-4.78-1.455-2.284 0-4.347 0.492-4.832 1.413 0 0 0.025 1.969 0.025 2.124 0 1.15 2.159 2.087 4.805 2.087z"></path>
<path fill="#0e2d6d" style="fill: var(--color2, #0e2d6d)" d="M10.112 26.875c-2.833 0-5.054-1.026-5.054-2.334 0-0.158-0.025-2.119-0.025-2.119v-0.062l0.030-0.054c0.598-1.137 2.998-1.551 5.049-1.551 1.162 0 4.96 0.123 5.026 1.691 0 0.071 0.027 1.93 0.027 2.095 0 1.305-2.22 2.334-5.054 2.334zM5.529 22.479c0 0.345 0.025 1.92 0.025 2.060 0 1.086 2.402 1.841 4.561 1.841s4.561-0.756 4.561-1.841c0-0.162-0.022-1.984-0.025-2.075-0.030-0.706-1.937-1.218-4.534-1.218-2.311 0.002-4.135 0.495-4.588 1.233z"></path>
<path fill="#ede5da" style="fill: var(--color1, #ede5da)" d="M10.112 24.948c2.646 0 4.807-0.938 4.807-2.087 0-0.175-0.022-2.018-0.025-2.082-0.044-1.046-2.535-1.455-4.78-1.455-2.284 0-4.347 0.492-4.832 1.413 0 0 0.025 1.969 0.025 2.124 0 1.15 2.159 2.087 4.805 2.087z"></path>
<path fill="#0e2d6d" style="fill: var(--color2, #0e2d6d)" d="M10.112 25.194c-2.833 0-5.054-1.026-5.054-2.334 0-0.158-0.025-2.119-0.025-2.119v-0.064l0.030-0.054c0.598-1.14 2.998-1.546 5.049-1.546 1.162 0 4.96 0.123 5.026 1.691 0 0.071 0.027 1.93 0.027 2.095 0 1.307-2.22 2.331-5.054 2.331zM5.529 20.8c0 0.345 0.025 1.92 0.025 2.060 0 1.086 2.402 1.841 4.561 1.841s4.561-0.756 4.561-1.841c0-0.162-0.022-1.984-0.025-2.075-0.030-0.706-1.937-1.218-4.534-1.218-2.311 0.002-4.135 0.495-4.588 1.233z"></path>
<path fill="#ede5da" style="fill: var(--color1, #ede5da)" d="M10.112 23.269c2.646 0 4.807-0.938 4.807-2.087 0-0.175-0.022-2.018-0.025-2.082-0.044-1.046-2.535-1.455-4.78-1.455-2.284 0-4.347 0.492-4.832 1.413 0 0 0.025 1.969 0.025 2.124 0 1.15 2.159 2.087 4.805 2.087z"></path>
<path fill="#0e2d6d" style="fill: var(--color2, #0e2d6d)" d="M10.112 23.515c-2.833 0-5.054-1.026-5.054-2.334 0-0.158-0.025-2.119-0.025-2.119v-0.062l0.030-0.054c0.593-1.14 2.998-1.546 5.051-1.546 1.162 0 4.96 0.123 5.026 1.691 0 0.071 0.027 1.93 0.027 2.095-0.002 1.302-2.223 2.329-5.056 2.329zM5.529 19.119c0 0.345 0.025 1.92 0.025 2.060 0 1.086 2.402 1.841 4.561 1.841s4.559-0.753 4.559-1.851c0-0.162-0.022-1.984-0.025-2.075-0.030-0.706-1.937-1.218-4.534-1.218-2.309 0.012-4.133 0.505-4.586 1.243z"></path>
<path fill="#ede5da" style="fill: var(--color1, #ede5da)" d="M10.112 21.588c2.646 0 4.807-0.938 4.807-2.087 0-0.175-0.022-2.018-0.025-2.082-0.044-1.046-2.535-1.455-4.78-1.455-2.284 0-4.347 0.492-4.832 1.413 0 0 0.025 1.969 0.025 2.124 0 1.15 2.159 2.087 4.805 2.087z"></path>
<path fill="#0e2d6d" style="fill: var(--color2, #0e2d6d)" d="M10.112 21.836c-2.833 0-5.054-1.026-5.054-2.334 0-0.158-0.025-2.119-0.025-2.119v-0.062l0.030-0.054c0.598-1.145 2.998-1.551 5.049-1.551 1.162 0 4.96 0.123 5.026 1.691 0 0.071 0.027 1.93 0.027 2.095 0 1.307-2.22 2.334-5.054 2.334zM5.529 17.44c0 0.345 0.025 1.92 0.025 2.060 0 1.086 2.402 1.841 4.561 1.841s4.561-0.756 4.561-1.841c0-0.162-0.022-1.984-0.025-2.075-0.030-0.706-1.937-1.218-4.534-1.218-2.311 0.002-4.135 0.495-4.588 1.233z"></path>
<path fill="#ede5da" style="fill: var(--color1, #ede5da)" d="M10.112 19.909c2.646 0 4.807-0.938 4.807-2.087 0-0.175-0.022-2.018-0.025-2.082-0.047-1.049-2.538-1.462-4.783-1.462-2.284 0-4.347 0.492-4.832 1.413 0 0 0.025 1.969 0.025 2.124 0.002 1.157 2.161 2.095 4.807 2.095z"></path>
<path fill="#0e2d6d" style="fill: var(--color2, #0e2d6d)" d="M10.112 20.155c-2.833 0-5.054-1.026-5.054-2.334 0-0.158-0.025-2.119-0.025-2.119v-0.062l0.030-0.054c0.598-1.145 2.998-1.556 5.049-1.556 1.162 0 4.96 0.123 5.026 1.691 0 0.071 0.027 1.93 0.027 2.095 0 1.314-2.22 2.338-5.054 2.338zM5.529 15.754c0 0.345 0.025 1.92 0.025 2.060 0 1.086 2.402 1.841 4.561 1.841s4.561-0.756 4.561-1.841c0-0.162-0.022-1.984-0.025-2.075-0.034-0.697-1.94-1.216-4.539-1.216-2.306 0-4.13 0.492-4.583 1.231z"></path>
<path fill="#ede5da" style="fill: var(--color1, #ede5da)" d="M10.112 18.23c2.646 0 4.807-0.938 4.807-2.087 0-0.175-0.022-2.018-0.025-2.082-0.044-1.046-2.535-1.455-4.78-1.455-2.284 0-4.347 0.492-4.832 1.413 0 0 0.025 1.969 0.025 2.124 0 1.15 2.159 2.087 4.805 2.087z"></path>
<path fill="#0e2d6d" style="fill: var(--color2, #0e2d6d)" d="M10.112 18.476c-2.833 0-5.054-1.026-5.054-2.334 0-0.158-0.025-2.119-0.025-2.119v-0.062l0.030-0.054c0.598-1.145 2.998-1.551 5.049-1.551 1.162 0 4.96 0.123 5.026 1.691 0 0.071 0.027 1.93 0.027 2.095 0 1.307-2.22 2.334-5.054 2.334zM5.529 14.080c0 0.345 0.025 1.92 0.025 2.060 0 1.086 2.402 1.841 4.561 1.841s4.559-0.751 4.559-1.841c0-0.162-0.022-1.984-0.025-2.075-0.030-0.706-1.937-1.218-4.534-1.218-2.309 0.002-4.133 0.495-4.586 1.233z"></path>
<path fill="#ede5da" style="fill: var(--color1, #ede5da)" d="M10.092 16.386c2.646 0 4.807-0.938 4.807-2.087s-2.154-2.090-4.807-2.090-4.8 0.938-4.8 2.087 2.161 2.090 4.8 2.090z"></path>
<path fill="#0e2d6d" style="fill: var(--color2, #0e2d6d)" d="M10.092 16.633c-2.833 0-5.054-1.026-5.054-2.334s2.215-2.334 5.054-2.334 5.054 1.026 5.054 2.334-2.213 2.334-5.054 2.334zM10.092 12.448c-2.156 0-4.561 0.756-4.561 1.841s2.412 1.851 4.561 1.851 4.561-0.756 4.561-1.841-2.398-1.844-4.561-1.844z"></path>
</symbol>
<symbol id="icon-rocket" viewBox="0 0 32 32">
<title>rocket</title>
<path fill="#ede5da" style="fill: var(--color1, #ede5da)" d="M16.751 4.044v0c-0.182-0.213-0.451-0.348-0.751-0.348s-0.569 0.134-0.75 0.346l-0.001 0.001c-1.472 1.757-2.366 4.042-2.366 6.535 0 0.002 0 0.003 0 0.005v9.019h6.233v-9.019c0-0.001 0-0.003 0-0.005 0-2.494-0.894-4.778-2.379-6.551z"></path>
<path fill="#0e2d6d" style="fill: var(--color2, #0e2d6d)" d="M19.362 19.85h-6.725v-9.265c0.002-2.554 0.918-4.893 2.438-6.709 0.214-0.251 0.551-0.42 0.927-0.42s0.713 0.169 0.939 0.435l0.001 0.002c1.505 1.8 2.419 4.14 2.42 6.693zM13.127 19.358h5.743v-8.773c-0.002-2.433-0.874-4.662-2.322-6.394l0.013 0.016c-0.136-0.159-0.337-0.259-0.561-0.259s-0.425 0.1-0.56 0.258c-1.436 1.716-2.308 3.946-2.31 6.378z"></path>
<path fill="#ded1be" style="fill: var(--color4, #ded1be)" d="M9.268 13.492v0c0.689 0 1.248 0.559 1.248 1.248v4.987h-2.496v-4.987c0-0.689 0.559-1.248 1.248-1.248z"></path>
<path fill="#0e2d6d" style="fill: var(--color2, #0e2d6d)" d="M10.759 19.973h-2.986v-5.233c0.033-0.799 0.689-1.434 1.493-1.434s1.459 0.635 1.493 1.431zM8.266 19.481h2.001v-4.741c-0.027-0.532-0.465-0.952-1.001-0.952s-0.973 0.421-1.001 0.95z"></path>
<path fill="#c0ac8e" style="fill: var(--color3, #c0ac8e)" d="M12.884 14.988l-2.37 1.497v1.996h2.37v-3.493z"></path>
<path fill="#0e2d6d" style="fill: var(--color2, #0e2d6d)" d="M13.13 18.727h-2.863v-2.378l2.86-1.807zM10.762 18.235h1.876v-2.799l-1.876 1.186z"></path>
<path fill="#ded1be" style="fill: var(--color4, #ded1be)" d="M23.98 19.729h-2.494v-4.99c0-0.689 0.559-1.248 1.248-1.248v0c0.689 0 1.248 0.559 1.248 1.248v4.99z"></path>
<path fill="#0e2d6d" style="fill: var(--color2, #0e2d6d)" d="M24.226 19.973h-2.986v-5.233c0.033-0.799 0.689-1.434 1.493-1.434s1.459 0.635 1.493 1.431zM21.733 19.481h2.001v-4.741c-0.027-0.532-0.465-0.952-1.001-0.952s-0.973 0.421-1.001 0.95z"></path>
<path fill="#c0ac8e" style="fill: var(--color3, #c0ac8e)" d="M19.116 14.988l2.37 1.497v1.996h-2.37v-3.493z"></path>
<path fill="#0e2d6d" style="fill: var(--color2, #0e2d6d)" d="M21.733 18.727h-2.863v-4.185l2.86 1.807zM19.365 18.235h1.876v-1.615l-1.876-1.186z"></path>
<path fill="#0e2d6d" style="fill: var(--color2, #0e2d6d)" d="M8.020 17.236h2.494v0.492h-2.494v-0.492z"></path>
<path fill="#0e2d6d" style="fill: var(--color2, #0e2d6d)" d="M21.487 17.236h2.494v0.492h-2.494v-0.492z"></path>
<path fill="#1a2268" style="fill: var(--color5, #1a2268)" d="M16 26.068c-0.136 0-0.246-0.11-0.246-0.246v-3.102c0-0.136 0.11-0.246 0.246-0.246s0.246 0.11 0.246 0.246v3.102c0 0.136-0.11 0.246-0.246 0.246z"></path>
<path fill="#1a2268" style="fill: var(--color5, #1a2268)" d="M16 28.554c-0.136 0-0.246-0.11-0.246-0.246v-1.349c0-0.136 0.11-0.246 0.246-0.246s0.246 0.11 0.246 0.246v1.349c0 0.136-0.11 0.246-0.246 0.246z"></path>
<path fill="#1a2268" style="fill: var(--color5, #1a2268)" d="M14.503 24.315c-0.136 0-0.246-0.11-0.246-0.246v-1.349c0-0.136 0.11-0.246 0.246-0.246s0.246 0.11 0.246 0.246v1.349c0 0.136-0.11 0.246-0.246 0.246z"></path>
<path fill="#1a2268" style="fill: var(--color5, #1a2268)" d="M9.268 22.57c-0.136 0-0.246-0.11-0.246-0.246v-1.349c0-0.136 0.11-0.246 0.246-0.246s0.246 0.11 0.246 0.246v1.349c0 0.136-0.11 0.246-0.246 0.246z"></path>
<path fill="#1a2268" style="fill: var(--color5, #1a2268)" d="M22.732 22.57c-0.136 0-0.246-0.11-0.246-0.246v-1.349c0-0.136 0.11-0.246 0.246-0.246s0.246 0.11 0.246 0.246v1.349c0 0.136-0.11 0.246-0.246 0.246z"></path>
<path fill="#1a2268" style="fill: var(--color5, #1a2268)" d="M17.497 24.315c-0.136 0-0.246-0.11-0.246-0.246v-1.349c0-0.136 0.11-0.246 0.246-0.246s0.246 0.11 0.246 0.246v1.349c0 0.136-0.11 0.246-0.246 0.246z"></path>
<path fill="#0e2d6d" style="fill: var(--color2, #0e2d6d)" d="M16.374 18.188c0 0.207-0.168 0.374-0.374 0.374s-0.374-0.168-0.374-0.374c0-0.207 0.168-0.374 0.374-0.374s0.374 0.168 0.374 0.374z"></path>
<path fill="#0e2d6d" style="fill: var(--color2, #0e2d6d)" d="M16.374 16.209c0 0.207-0.168 0.374-0.374 0.374s-0.374-0.168-0.374-0.374c0-0.207 0.168-0.374 0.374-0.374s0.374 0.167 0.374 0.374z"></path>
<path fill="#0e2d6d" style="fill: var(--color2, #0e2d6d)" d="M16.374 14.23c0 0.207-0.168 0.374-0.374 0.374s-0.374-0.168-0.374-0.374c0-0.207 0.168-0.374 0.374-0.374s0.374 0.168 0.374 0.374z"></path>
<path fill="#ede5da" style="fill: var(--color1, #ede5da)" d="M17.622 11.006c0 0.896-0.726 1.622-1.622 1.622s-1.622-0.726-1.622-1.622c0-0.896 0.726-1.622 1.622-1.622s1.622 0.726 1.622 1.622z"></path>
<path fill="#0e2d6d" style="fill: var(--color2, #0e2d6d)" d="M16 12.871c-1.032 0-1.868-0.836-1.868-1.868s0.836-1.868 1.868-1.868c1.032 0 1.868 0.836 1.868 1.868s-0.836 1.868-1.868 1.868zM16 9.63c-0.76 0-1.376 0.616-1.376 1.376s0.616 1.376 1.376 1.376c0.76 0 1.376-0.616 1.376-1.376s-0.616-1.376-1.376-1.376z"></path>
<path fill="#0e2d6d" style="fill: var(--color2, #0e2d6d)" d="M13.506 7.262h4.987v0.492h-4.987v-0.492z"></path>
<path fill="#ede5da" style="fill: var(--color1, #ede5da)" d="M17.915 21.248l-0.379-1.647h-3.070l-0.382 1.647c-0.005 0.021-0.009 0.044-0.009 0.069 0 0.153 0.122 0.277 0.274 0.281h3.299c0.152-0.003 0.274-0.128 0.274-0.281 0-0.024-0.003-0.048-0.009-0.071z"></path>
<path fill="#0e2d6d" style="fill: var(--color2, #0e2d6d)" d="M17.649 21.844h-3.298c-0.163-0-0.309-0.077-0.403-0.196-0.073-0.091-0.117-0.206-0.117-0.332 0-0.044 0.005-0.087 0.015-0.128l0.43-1.83h3.446l0.423 1.836c0.009 0.036 0.014 0.077 0.014 0.119 0 0.127-0.044 0.243-0.118 0.335-0.092 0.117-0.233 0.192-0.392 0.196zM14.663 19.85l-0.337 1.455c-0.003 0.005-0.004 0.012-0.004 0.018s0.002 0.013 0.004 0.019l3.316-0c0.022-0.017 0.030-0.030 0.027-0.047l-0.335-1.455z"></path>
</symbol>
</defs>
</svg>
