<svg style="position: absolute; width: 0; height: 0; overflow: hidden;" version="1.1" xmlns="http://www.w3.org/2000/svg" xmlns:xlink="http://www.w3.org/1999/xlink">
<defs>
<symbol id="icon-people" viewBox="0 0 48 32">
<title>people</title>
<path fill="#fff" stroke="#1a2268" stroke-width="1.5112" stroke-miterlimit="4" stroke-linecap="round" stroke-linejoin="round" d="M35.060 24.999h-0.71c-0.031 0.001-0.067 0.002-0.104 0.002-1.511 0-2.735-1.225-2.735-2.735 0-0.037 0.001-0.073 0.002-0.109l-0 0.005v-7.008c0-2.807 5.146-4.254 7.802-4.254s7.802 1.447 7.802 4.254v7.008c0.001 0.031 0.002 0.067 0.002 0.104 0 1.511-1.225 2.735-2.735 2.735-0.037 0-0.073-0.001-0.109-0.002l0.005 0h-0.71"></path>
<path fill="#fff" stroke="#1a2268" stroke-width="1.5112" stroke-miterlimit="4" stroke-linecap="round" stroke-linejoin="round" d="M39.314 11.104c1.962-0.013 3.548-1.606 3.548-3.57 0-0.017-0-0.035-0-0.052l0 0.003v-1.205c0.001-0.035 0.002-0.075 0.002-0.116 0-1.959-1.588-3.548-3.548-3.548s-3.548 1.588-3.548 3.548c0 0.041 0.001 0.081 0.002 0.122l-0-0.006v1.205c-0 0.015-0 0.032-0 0.049 0 1.963 1.584 3.555 3.543 3.57h0.001z"></path>
<path fill="#fff" stroke="#1a2268" stroke-width="1.5112" stroke-miterlimit="4" stroke-linecap="round" stroke-linejoin="round" d="M35.060 17.991v11.349h8.508v-11.349"></path>
<path fill="#fff" stroke="#1a2268" stroke-width="1.5112" stroke-miterlimit="4" stroke-linecap="round" stroke-linejoin="round" d="M4.303 24.999h-0.71c-0.031 0.001-0.067 0.002-0.104 0.002-1.511 0-2.735-1.225-2.735-2.735 0-0.037 0.001-0.073 0.002-0.109l-0 0.005v-7.008c0-2.807 5.146-4.254 7.802-4.254s7.802 1.451 7.802 4.254v7.008c0.001 0.031 0.002 0.067 0.002 0.104 0 1.511-1.225 2.735-2.735 2.735-0.037 0-0.073-0.001-0.109-0.002l0.005 0h-0.71"></path>
<path fill="#fff" stroke="#1a2268" stroke-width="1.5112" stroke-miterlimit="4" stroke-linecap="round" stroke-linejoin="round" d="M8.557 11.104c1.956-0.021 3.533-1.611 3.533-3.57 0-0.017-0-0.035-0-0.052l0 0.003v-1.205c0.001-0.035 0.002-0.075 0.002-0.116 0-1.959-1.588-3.548-3.548-3.548s-3.548 1.588-3.548 3.548c0 0.041 0.001 0.081 0.002 0.122l-0-0.006v1.205c-0 0.015-0 0.032-0 0.049 0 1.968 1.592 3.564 3.559 3.57h0.001z"></path>
<path fill="#fff" stroke="#1a2268" stroke-width="1.5112" stroke-miterlimit="4" stroke-linecap="round" stroke-linejoin="round" d="M4.299 17.991v11.349h8.512v-11.349"></path>
<path fill="#fff" stroke="#1a2268" stroke-width="1.5112" stroke-miterlimit="4" stroke-linecap="round" stroke-linejoin="round" d="M19.072 26.284h-0.808c-0.036 0.001-0.077 0.002-0.119 0.002-1.726 0-3.124-1.399-3.124-3.124 0-0.041 0.001-0.081 0.002-0.121l-0 0.006v-8.013c0-3.208 5.879-4.862 8.916-4.862s8.916 1.655 8.916 4.862v8.013c0.001 0.036 0.002 0.077 0.002 0.119 0 1.726-1.399 3.124-3.124 3.124-0.042 0-0.084-0.001-0.125-0.002l0.006 0h-0.816"></path>
<path fill="#fff" stroke="#1a2268" stroke-width="1.5112" stroke-miterlimit="4" stroke-linecap="round" stroke-linejoin="round" d="M23.934 10.405c2.242-0.013 4.054-1.833 4.054-4.076 0-0.020-0-0.040-0-0.060l0 0.003v-1.379c0.001-0.037 0.002-0.080 0.002-0.124 0-2.239-1.815-4.054-4.054-4.054s-4.054 1.815-4.054 4.054c0 0.043 0.001 0.087 0.002 0.13l-0-0.006v1.379c-0 0.017-0 0.037-0 0.057 0 2.242 1.81 4.062 4.049 4.076h0.001z"></path>
<path fill="#fff" stroke="#1a2268" stroke-width="1.5112" stroke-miterlimit="4" stroke-linecap="round" stroke-linejoin="round" d="M19.072 18.278v12.966h9.725v-12.966"></path>
</symbol>
<symbol id="icon-commercial" viewBox="0 0 21 32">
<title>commercial</title>
<path fill="none" stroke="#1a2268" stroke-width="1.5112" stroke-miterlimit="10" stroke-linecap="butt" stroke-linejoin="miter" d="M5.625 3.665h9.445v27.58h-9.445v-27.58z"></path>
<path fill="none" stroke="#1a2268" stroke-width="1.5112" stroke-miterlimit="10" stroke-linecap="butt" stroke-linejoin="miter" d="M8.081 28.947h1.511"></path>
<path fill="none" stroke="#1a2268" stroke-width="1.5112" stroke-miterlimit="10" stroke-linecap="butt" stroke-linejoin="miter" d="M8.081 26.65h1.511"></path>
<path fill="none" stroke="#1a2268" stroke-width="1.5112" stroke-miterlimit="10" stroke-linecap="butt" stroke-linejoin="miter" d="M8.081 24.349h1.511"></path>
<path fill="none" stroke="#1a2268" stroke-width="1.5112" stroke-miterlimit="10" stroke-linecap="butt" stroke-linejoin="miter" d="M8.081 22.052h1.511"></path>
<path fill="none" stroke="#1a2268" stroke-width="1.5112" stroke-miterlimit="10" stroke-linecap="butt" stroke-linejoin="miter" d="M8.081 19.755h1.511"></path>
<path fill="none" stroke="#1a2268" stroke-width="1.5112" stroke-miterlimit="10" stroke-linecap="butt" stroke-linejoin="miter" d="M8.081 17.455h1.511"></path>
<path fill="none" stroke="#1a2268" stroke-width="1.5112" stroke-miterlimit="10" stroke-linecap="butt" stroke-linejoin="miter" d="M8.081 15.158h1.511"></path>
<path fill="none" stroke="#1a2268" stroke-width="1.5112" stroke-miterlimit="10" stroke-linecap="butt" stroke-linejoin="miter" d="M8.081 12.86h1.511"></path>
<path fill="none" stroke="#1a2268" stroke-width="1.5112" stroke-miterlimit="10" stroke-linecap="butt" stroke-linejoin="miter" d="M8.081 10.56h1.511"></path>
<path fill="none" stroke="#1a2268" stroke-width="1.5112" stroke-miterlimit="10" stroke-linecap="butt" stroke-linejoin="miter" d="M8.081 8.263h1.511"></path>
<path fill="none" stroke="#1a2268" stroke-width="1.5112" stroke-miterlimit="10" stroke-linecap="butt" stroke-linejoin="miter" d="M8.081 5.966h1.511"></path>
<path fill="none" stroke="#1a2268" stroke-width="1.5112" stroke-miterlimit="10" stroke-linecap="butt" stroke-linejoin="miter" d="M11.104 28.947h1.511"></path>
<path fill="none" stroke="#1a2268" stroke-width="1.5112" stroke-miterlimit="10" stroke-linecap="butt" stroke-linejoin="miter" d="M11.104 26.65h1.511"></path>
<path fill="none" stroke="#1a2268" stroke-width="1.5112" stroke-miterlimit="10" stroke-linecap="butt" stroke-linejoin="miter" d="M11.104 24.349h1.511"></path>
<path fill="none" stroke="#1a2268" stroke-width="1.5112" stroke-miterlimit="10" stroke-linecap="butt" stroke-linejoin="miter" d="M11.104 22.052h1.511"></path>
<path fill="none" stroke="#1a2268" stroke-width="1.5112" stroke-miterlimit="10" stroke-linecap="butt" stroke-linejoin="miter" d="M11.104 19.755h1.511"></path>
<path fill="none" stroke="#1a2268" stroke-width="1.5112" stroke-miterlimit="10" stroke-linecap="butt" stroke-linejoin="miter" d="M11.104 17.455h1.511"></path>
<path fill="none" stroke="#1a2268" stroke-width="1.5112" stroke-miterlimit="10" stroke-linecap="butt" stroke-linejoin="miter" d="M11.104 15.158h1.511"></path>
<path fill="none" stroke="#1a2268" stroke-width="1.5112" stroke-miterlimit="10" stroke-linecap="butt" stroke-linejoin="miter" d="M11.104 12.86h1.511"></path>
<path fill="none" stroke="#1a2268" stroke-width="1.5112" stroke-miterlimit="10" stroke-linecap="butt" stroke-linejoin="miter" d="M11.104 10.56h1.511"></path>
<path fill="none" stroke="#1a2268" stroke-width="1.5112" stroke-miterlimit="10" stroke-linecap="butt" stroke-linejoin="miter" d="M11.104 8.263h1.511"></path>
<path fill="none" stroke="#1a2268" stroke-width="1.5112" stroke-miterlimit="10" stroke-linecap="butt" stroke-linejoin="miter" d="M11.104 5.966h1.511"></path>
<path fill="none" stroke="#1a2268" stroke-width="1.5112" stroke-miterlimit="10" stroke-linecap="butt" stroke-linejoin="miter" d="M3.827 3.665h13.046"></path>
<path fill="none" stroke="#1a2268" stroke-width="1.5112" stroke-miterlimit="10" stroke-linecap="butt" stroke-linejoin="miter" d="M12.075 0.756h-3.449l-1.866 2.909h7.178l-1.863-2.909z"></path>
</symbol>
<symbol id="icon-stock" viewBox="0 0 35 32">
<title>stock</title>
<path fill="#fff" stroke="#1a2268" stroke-width="1.2516" stroke-miterlimit="4" stroke-linecap="round" stroke-linejoin="round" d="M34.478 0.648l-11.652 11.368-4.931-4.299-8.189 7.885-2.957-3.038-6.123 5.914"></path>
<path fill="#fff" stroke="#1a2268" stroke-width="1.2516" stroke-miterlimit="4" stroke-linecap="round" stroke-linejoin="round" d="M25.326 0.626l-5.050 5.047-3.748-3.748-7.788 7.788-2.885-2.885-5.229 5.229"></path>
<path fill="#fff" stroke="#1a2268" stroke-width="1.2516" stroke-miterlimit="4" stroke-linecap="round" stroke-linejoin="round" d="M19.781 30.72c-3.345 0-6.073-1.186-6.073-2.641 0-0.222 0.028-2.553 0.031-2.635 0.056-1.32 3.204-1.837 6.042-1.837 2.885 0 5.494 0.626 6.108 1.787 0 0-0.031 2.484-0.031 2.685-0.003 1.455-2.732 2.641-6.076 2.641z"></path>
<path fill="#fff" stroke="#1a2268" stroke-width="1.2516" stroke-miterlimit="4" stroke-linecap="round" stroke-linejoin="round" d="M19.781 28.599c-3.345 0-6.073-1.186-6.073-2.641 0-0.222 0.028-2.553 0.031-2.635 0.056-1.32 3.204-1.837 6.042-1.837 2.885 0 5.494 0.626 6.108 1.787 0 0-0.031 2.484-0.031 2.685-0.003 1.455-2.732 2.641-6.076 2.641z"></path>
<path fill="#fff" stroke="#1a2268" stroke-width="1.2516" stroke-miterlimit="4" stroke-linecap="round" stroke-linejoin="round" d="M19.781 26.474c-3.345 0-6.073-1.186-6.073-2.641 0-0.222 0.028-2.553 0.031-2.635 0.056-1.32 3.204-1.837 6.042-1.837 2.885 0 5.494 0.626 6.108 1.787 0 0-0.031 2.484-0.031 2.685-0.003 1.455-2.732 2.641-6.076 2.641z"></path>
<path fill="#fff" stroke="#1a2268" stroke-width="1.2516" stroke-miterlimit="4" stroke-linecap="round" stroke-linejoin="round" d="M19.781 24.353c-3.345 0-6.073-1.186-6.073-2.641 0-0.222 0.028-2.553 0.031-2.635 0.056-1.32 3.204-1.837 6.042-1.837 2.885 0 5.494 0.626 6.108 1.787 0 0-0.031 2.484-0.031 2.685-0.003 1.442-2.732 2.641-6.076 2.641z"></path>
<path fill="#fff" stroke="#1a2268" stroke-width="1.2516" stroke-miterlimit="4" stroke-linecap="round" stroke-linejoin="round" d="M19.781 22.216c-3.345 0-6.073-1.186-6.073-2.641 0-0.222 0.028-2.553 0.031-2.635 0.056-1.32 3.204-1.837 6.042-1.837 2.885 0 5.494 0.626 6.108 1.787 0 0-0.031 2.484-0.031 2.685-0.003 1.468-2.732 2.641-6.076 2.641z"></path>
<path fill="#fff" stroke="#1a2268" stroke-width="1.2516" stroke-miterlimit="4" stroke-linecap="round" stroke-linejoin="round" d="M19.781 20.107c-3.345 0-6.073-1.186-6.073-2.641 0-0.222 0.028-2.553 0.031-2.635 0.056-1.32 3.204-1.837 6.042-1.837 2.885 0 5.494 0.626 6.108 1.787 0 0-0.031 2.484-0.031 2.685-0.003 1.455-2.732 2.641-6.076 2.641z"></path>
<path fill="#fff" stroke="#1a2268" stroke-width="1.2516" stroke-miterlimit="4" stroke-linecap="round" stroke-linejoin="round" d="M19.781 17.982c-3.345 0-6.073-1.186-6.073-2.641 0-0.222 0.028-2.553 0.031-2.635 0.056-1.32 3.204-1.837 6.042-1.837 2.885 0 5.494 0.626 6.108 1.787 0 0-0.031 2.484-0.031 2.685-0.003 1.455-2.732 2.641-6.076 2.641z"></path>
<path fill="#fff" stroke="#1a2268" stroke-width="1.2516" stroke-miterlimit="4" stroke-linecap="round" stroke-linejoin="round" d="M19.797 15.645c-3.345 0-6.073-1.186-6.073-2.641s2.728-2.641 6.073-2.641 6.073 1.186 6.073 2.641-2.716 2.641-6.073 2.641z"></path>
<path fill="#fff" stroke="#1a2268" stroke-width="1.2516" stroke-miterlimit="4" stroke-linecap="round" stroke-linejoin="round" d="M9.978 31.374c-3.345 0-6.073-1.186-6.073-2.641 0-0.222 0.028-2.553 0.031-2.635 0.056-1.32 3.204-1.837 6.042-1.837 2.885 0 5.494 0.626 6.108 1.787 0 0-0.031 2.484-0.031 2.685-0.003 1.455-2.732 2.641-6.076 2.641z"></path>
<path fill="#fff" stroke="#1a2268" stroke-width="1.2516" stroke-miterlimit="4" stroke-linecap="round" stroke-linejoin="round" d="M9.978 29.253c-3.345 0-6.073-1.186-6.073-2.641 0-0.222 0.028-2.553 0.031-2.635 0.056-1.32 3.204-1.837 6.042-1.837 2.885 0 5.494 0.626 6.108 1.787 0 0-0.031 2.484-0.031 2.685-0.003 1.455-2.732 2.641-6.076 2.641z"></path>
<path fill="#fff" stroke="#1a2268" stroke-width="1.2516" stroke-miterlimit="4" stroke-linecap="round" stroke-linejoin="round" d="M9.978 27.128c-3.345 0-6.073-1.186-6.073-2.641 0-0.222 0.028-2.553 0.031-2.635 0.056-1.317 3.204-1.827 6.042-1.827 2.885 0 5.494 0.626 6.108 1.787 0 0-0.031 2.484-0.031 2.685-0.003 1.446-2.732 2.631-6.076 2.631z"></path>
<path fill="#fff" stroke="#1a2268" stroke-width="1.2516" stroke-miterlimit="4" stroke-linecap="round" stroke-linejoin="round" d="M9.994 24.797c-3.345 0-6.073-1.186-6.073-2.641s2.728-2.641 6.073-2.641 6.073 1.186 6.073 2.641-2.725 2.641-6.073 2.641z"></path>
</symbol>
<symbol id="icon-money" viewBox="0 0 28 32">
<title>money</title>
<path fill="#fff" stroke="#1a2268" stroke-width="1.3713" stroke-miterlimit="4" stroke-linecap="round" stroke-linejoin="round" d="M13.103 6.716h7.083c0.574 0 1.039 0.465 1.039 1.039v0.627c0 0.574-0.465 1.039-1.039 1.039h-7.083c-0.574 0-1.039-0.465-1.039-1.039v-0.627c0-0.574 0.465-1.039 1.039-1.039z"></path>
<path fill="#fff" stroke="#1a2268" stroke-width="1.3713" stroke-miterlimit="4" stroke-linecap="round" stroke-linejoin="round" d="M26.912 25.904c-0.241-0.911-0.38-1.956-0.38-3.034 0-0.335 0.013-0.668 0.040-0.996l-0.003 0.043-0.247-4.244c0.011-0.157 0.017-0.34 0.017-0.525 0-2.376-1.043-4.508-2.696-5.964l-0.009-0.008c-0.731-0.665-1.571-1.23-2.486-1.661l-0.062-0.026h-8.509c-0.976 0.457-1.816 1.021-2.555 1.694l0.008-0.007c-1.666 1.463-2.712 3.598-2.712 5.977 0 0.183 0.006 0.364 0.018 0.544l-0.001-0.024-0.247 4.244c0.024 0.285 0.037 0.617 0.037 0.953 0 1.078-0.139 2.124-0.399 3.12l0.019-0.086-0.425 1.714c-0.013 0.052-0.020 0.111-0.020 0.173 0 0.241 0.113 0.456 0.289 0.594l0.002 0.001c0.184 0.148 0.419 0.237 0.676 0.237 0.081 0 0.16-0.009 0.236-0.026l-0.007 0.001 1.649-0.343c1.191-0.259 2.559-0.408 3.962-0.408 0.002 0 0.004 0 0.005 0h7.436c0.001 0 0.003 0 0.005 0 1.403 0 2.771 0.149 4.089 0.431l-0.128-0.023 1.649 0.343c0.067 0.015 0.144 0.023 0.223 0.023 0.266 0 0.509-0.096 0.697-0.254l-0.002 0.001c0.178-0.139 0.291-0.354 0.291-0.595 0-0.061-0.007-0.121-0.021-0.178l0.001 0.005z"></path>
<path fill="#fff" stroke="#1a2268" stroke-width="1.3713" stroke-miterlimit="4" stroke-linecap="round" stroke-linejoin="round" d="M13.312 6.644h7.258l0.168-0.504 0.665-1.978c0.104-0.294 0.164-0.633 0.164-0.986 0-0.838-0.337-1.596-0.884-2.148l-0.038-0.038c-0.192-0.192-0.458-0.311-0.751-0.311s-0.559 0.119-0.751 0.311l0-0c-0.192 0.192-0.458 0.311-0.751 0.311s-0.559-0.119-0.751-0.311l0 0c-0.192-0.192-0.458-0.311-0.751-0.311s-0.559 0.119-0.751 0.311l0-0c-0.192 0.192-0.458 0.311-0.751 0.311s-0.559-0.119-0.751-0.311l0 0c-0.192-0.192-0.458-0.311-0.751-0.311s-0.559 0.119-0.751 0.311l0-0c-0.552 0.552-0.893 1.315-0.893 2.157 0 0.374 0.067 0.732 0.19 1.063l-0.007-0.021z"></path>
<path fill="#fff" stroke="#1a2268" stroke-width="1.3713" stroke-miterlimit="4" stroke-linecap="round" stroke-linejoin="round" d="M6.699 31.314c3.295 0 5.979-1.166 5.979-2.599 0-0.216-0.027-2.513-0.031-2.592-0.055-1.303-3.154-1.81-5.948-1.81s-5.41 0.6-6.013 1.742c0 0 0.031 2.444 0.031 2.643 0 1.447 2.688 2.616 5.982 2.616z"></path>
<path fill="#fff" stroke="#1a2268" stroke-width="1.3713" stroke-miterlimit="4" stroke-linecap="round" stroke-linejoin="round" d="M6.699 29.223c3.295 0 5.979-1.166 5.979-2.599 0-0.216-0.027-2.513-0.031-2.592-0.055-1.303-3.154-1.81-5.948-1.81s-5.41 0.603-6.013 1.776c0 0 0.031 2.444 0.031 2.643 0 1.416 2.688 2.582 5.982 2.582z"></path>
<path fill="#fff" stroke="#1a2268" stroke-width="1.3713" stroke-miterlimit="4" stroke-linecap="round" stroke-linejoin="round" d="M6.699 27.132c3.295 0 5.979-1.166 5.979-2.599 0-0.216-0.027-2.513-0.031-2.592-0.055-1.303-3.154-1.81-5.948-1.81s-5.41 0.603-6.013 1.762c0 0 0.031 2.444 0.031 2.643 0 1.43 2.688 2.595 5.982 2.595z"></path>
<path fill="#fff" stroke="#1a2268" stroke-width="1.3713" stroke-miterlimit="4" stroke-linecap="round" stroke-linejoin="round" d="M6.699 25.027c3.291 0 5.986-1.152 5.986-2.582 0-0.216-0.027-2.513-0.031-2.592-0.055-1.303-3.154-1.81-5.948-1.81s-5.417 0.603-6.020 1.759c0 0 0.031 2.444 0.031 2.643 0 1.43 2.688 2.582 5.982 2.582z"></path>
<path fill="#fff" stroke="#1a2268" stroke-width="1.3713" stroke-miterlimit="4" stroke-linecap="round" stroke-linejoin="round" d="M6.699 22.97c3.291 0 5.986-1.183 5.986-2.616 0-0.216-0.027-2.513-0.031-2.592-0.055-1.303-3.154-1.81-5.948-1.81s-5.417 0.603-6.020 1.759c0 0 0.031 2.444 0.031 2.643 0 1.433 2.688 2.616 5.982 2.616z"></path>
<path fill="#fff" stroke="#1a2268" stroke-width="1.3713" stroke-miterlimit="4" stroke-linecap="round" stroke-linejoin="round" d="M6.699 20.865c3.295 0 5.979-1.166 5.979-2.599 0-0.216-0.027-2.513-0.031-2.592-0.055-1.303-3.154-1.81-5.948-1.81s-5.41 0.6-6.013 1.759c0 0 0.031 2.444 0.031 2.643 0 1.43 2.688 2.599 5.982 2.599z"></path>
<path fill="#fff" stroke="#1a2268" stroke-width="1.3713" stroke-miterlimit="4" stroke-linecap="round" stroke-linejoin="round" d="M6.699 18.774c3.295 0 5.979-1.166 5.979-2.599 0-0.216-0.027-2.513-0.031-2.592-0.055-1.303-3.154-1.81-5.948-1.81s-5.41 0.603-6.013 1.759c0 0 0.031 2.444 0.031 2.643 0 1.43 2.688 2.599 5.982 2.599z"></path>
<path fill="#fff" stroke="#1a2268" stroke-width="1.3713" stroke-miterlimit="4" stroke-linecap="round" stroke-linejoin="round" d="M6.682 16.48c3.295 0 5.979-1.166 5.979-2.599s-2.688-2.599-5.979-2.599-5.996 1.166-5.996 2.599 2.702 2.599 5.996 2.599z"></path>
</symbol>
<symbol id="icon-tree" viewBox="0 0 28 32">
<title>tree</title>
<path fill="#fff" stroke="#1a2268" stroke-width="1.3636" stroke-miterlimit="4" stroke-linecap="round" stroke-linejoin="round" d="M4.977 12.187s0.198 5.032 5.202 6.255c0 0 0.682 9.474-0.927 12.879h6.695s-2.045-7.217-0.661-10.435l3.181-3.774-0.74-1.115s-2.022 2.727-3.644 2.666c0 0-0.099-3.409 0.365-5.366l-1.493-0.075s0.794 2.628-0.661 4.070c0 0-2.253-1.96-3.017-4.588l-1.227-0.222 2.253 4.108s-3.303-0.447-5.325-4.404z"></path>
<path fill="#fff" stroke="#1a2268" stroke-width="1.3636" stroke-miterlimit="4" stroke-linecap="round" stroke-linejoin="round" d="M26.992 14.457c0-0.001 0-0.003 0-0.005 0-1.072-0.438-2.041-1.145-2.739l-0-0c0.327-0.555 0.521-1.223 0.521-1.936 0-2.131-1.728-3.859-3.859-3.859-0.002 0-0.004 0-0.007 0h0c-0.106 0-0.211 0-0.314 0-0.385-1.759-1.93-3.057-3.777-3.057-1.066 0-2.031 0.432-2.73 1.131l0-0c-0.249-1.982-1.923-3.499-3.952-3.499-2.199 0-3.982 1.783-3.982 3.982 0 0.304 0.034 0.6 0.098 0.884l-0.005-0.027c-0.342-0.117-0.737-0.185-1.147-0.185-2.016 0-3.651 1.635-3.651 3.651 0 0.415 0.069 0.814 0.197 1.185l-0.008-0.026c-1.499 0.477-2.567 1.857-2.567 3.486 0 1.417 0.807 2.645 1.987 3.251l0.021 0.010c-0.146 0.379-0.231 0.818-0.231 1.277 0 2.016 1.635 3.651 3.651 3.651 1.866 0 3.405-1.399 3.624-3.206l0.002-0.018c0.872 0.758 2.019 1.22 3.274 1.22 1.031 0 1.989-0.312 2.785-0.847l-0.018 0.011c0.177 2.161 1.975 3.848 4.166 3.848 2.308 0 4.179-1.871 4.179-4.179 0-0.063-0.001-0.126-0.004-0.189l0 0.009c0-0.027 0-0.055 0-0.082 1.676-0.446 2.891-1.95 2.891-3.738 0-0.002 0-0.003 0-0.005v0z"></path>
</symbol>
<symbol id="icon-building" viewBox="0 0 34 32">
<title>building</title>
<path fill="#fff" stroke="#1a2268" stroke-width="1.3713" stroke-miterlimit="4" stroke-linecap="round" stroke-linejoin="round" d="M9.277 0.686h15.438v30.629h-15.438v-30.629z"></path>
<path fill="#fff" stroke="#1a2268" stroke-width="1.3713" stroke-miterlimit="4" stroke-linecap="round" stroke-linejoin="round" d="M9.277 31.314h-8.591v-24.279h8.591v24.279z"></path>
<path fill="#fff" stroke="#1a2268" stroke-width="1.3713" stroke-miterlimit="4" stroke-linecap="round" stroke-linejoin="round" d="M2.99 9.774h3.984v3.984h-3.984v-3.984z"></path>
<path fill="#fff" stroke="#1a2268" stroke-width="1.3713" stroke-miterlimit="4" stroke-linecap="round" stroke-linejoin="round" d="M2.99 16.247h3.984v3.984h-3.984v-3.984z"></path>
<path fill="#fff" stroke="#1a2268" stroke-width="1.3713" stroke-miterlimit="4" stroke-linecap="round" stroke-linejoin="round" d="M2.99 22.723h3.984v3.984h-3.984v-3.984z"></path>
<path fill="#fff" stroke="#1a2268" stroke-width="1.3713" stroke-miterlimit="4" stroke-linecap="round" stroke-linejoin="round" d="M33.306 31.314h-8.591v-24.279h8.591v24.279z"></path>
<path fill="#fff" stroke="#1a2268" stroke-width="1.3713" stroke-miterlimit="4" stroke-linecap="round" stroke-linejoin="round" d="M27.019 9.774h3.984v3.984h-3.984v-3.984z"></path>
<path fill="#fff" stroke="#1a2268" stroke-width="1.3713" stroke-miterlimit="4" stroke-linecap="round" stroke-linejoin="round" d="M27.019 16.247h3.984v3.984h-3.984v-3.984z"></path>
<path fill="#fff" stroke="#1a2268" stroke-width="1.3713" stroke-miterlimit="4" stroke-linecap="round" stroke-linejoin="round" d="M27.019 22.723h3.984v3.984h-3.984v-3.984z"></path>
<path fill="#fff" stroke="#1a2268" stroke-width="1.3713" stroke-miterlimit="4" stroke-linecap="round" stroke-linejoin="round" d="M14.382 24.218h5.228v7.097h-5.228v-7.097z"></path>
<path fill="#fff" stroke="#1a2268" stroke-width="1.3713" stroke-miterlimit="4" stroke-linecap="round" stroke-linejoin="round" d="M11.807 3.799h3.984v3.984h-3.984v-3.984z"></path>
<path fill="#fff" stroke="#1a2268" stroke-width="1.3713" stroke-miterlimit="4" stroke-linecap="round" stroke-linejoin="round" d="M11.807 10.271h3.984v3.984h-3.984v-3.984z"></path>
<path fill="#fff" stroke="#1a2268" stroke-width="1.3713" stroke-miterlimit="4" stroke-linecap="round" stroke-linejoin="round" d="M11.807 16.747h3.984v3.984h-3.984v-3.984z"></path>
<path fill="#fff" stroke="#1a2268" stroke-width="1.3713" stroke-miterlimit="4" stroke-linecap="round" stroke-linejoin="round" d="M18.324 3.799h3.984v3.984h-3.984v-3.984z"></path>
<path fill="#fff" stroke="#1a2268" stroke-width="1.3713" stroke-miterlimit="4" stroke-linecap="round" stroke-linejoin="round" d="M18.324 10.271h3.984v3.984h-3.984v-3.984z"></path>
<path fill="#fff" stroke="#1a2268" stroke-width="1.3713" stroke-miterlimit="4" stroke-linecap="round" stroke-linejoin="round" d="M18.324 16.747h3.984v3.984h-3.984v-3.984z"></path>
</symbol>
<symbol id="icon-graph" viewBox="0 0 29 32">
<title>graph</title>
<path fill="#fff" stroke="#1a2268" stroke-width="1.3713" stroke-miterlimit="4" stroke-linecap="round" stroke-linejoin="round" d="M24.317 6.812h3.73v17.817h-3.73v-17.817z"></path>
<path fill="#fff" stroke="#1a2268" stroke-width="1.3713" stroke-miterlimit="4" stroke-linecap="round" stroke-linejoin="round" d="M17.478 13.278h3.73v11.348h-3.73v-11.348z"></path>
<path fill="#fff" stroke="#1a2268" stroke-width="1.3713" stroke-miterlimit="4" stroke-linecap="round" stroke-linejoin="round" d="M10.635 16.699h3.73v7.93h-3.73v-7.93z"></path>
<path fill="#fff" stroke="#1a2268" stroke-width="1.3713" stroke-miterlimit="4" stroke-linecap="round" stroke-linejoin="round" d="M3.795 19.651h3.73v4.974h-3.73v-4.974z"></path>
<path fill="#fff" stroke="#1a2268" stroke-width="1.3713" stroke-miterlimit="4" stroke-linecap="round" stroke-linejoin="round" d="M19.548 1.32l3.991-0.634 0.634 3.991"></path>
<path fill="#fff" stroke="#1a2268" stroke-width="1.3713" stroke-miterlimit="4" stroke-linecap="round" stroke-linejoin="round" d="M3.017 16.854s10.261-1.244 20.522-16.168"></path>
<path fill="#fff" stroke="#1a2268" stroke-width="1.3713" stroke-miterlimit="4" stroke-linecap="round" stroke-linejoin="round" d="M0.686 2.396v28.918"></path>
</symbol>
<symbol id="icon-logo-color" viewBox="0 0 32 32">
<title>logo-color</title>
<path fill="#013e7e" d="M27.283 20.717l4.717-4.717-16-16-16 16 4.717 4.717h22.566z"></path>
<path fill="#fff" d="M12.080 10.061v-0.64h-3.6v0.64h0.269c0.295 0.005 0.531 0.245 0.531 0.541 0 0 0 0 0 0v7.107c-0.005 0.291-0.24 0.526-0.531 0.531h-0.269v0.64h3.6v-0.64h-0.272c-0.299 0-0.541-0.242-0.541-0.541v-7.098c0-0.299 0.242-0.541 0.541-0.541z"></path>
<path fill="#fff" d="M23.52 10.061v-0.64h-3.6v0.64h0.269c0.299 0 0.541 0.242 0.541 0.541v7.107c-0.005 0.293-0.244 0.529-0.537 0.531h-0.269v0.64h3.597v-0.64h-0.269c-0.291-0.005-0.526-0.24-0.531-0.531v-7.108c0-0.299 0.242-0.541 0.541-0.541z"></path>
<path fill="#fff" d="M12.755 9.478h4.63s1.949 0.128 1.949 2.138-1.981 2.403-1.981 2.403 2.31 0.534 2.31 2.019 0.035 1.674-0.765 2.374c-0.431 0.316-0.97 0.508-1.554 0.515h-4.59v-0.64h0.365c0.353 0 0.64-0.287 0.64-0.64v-6.912c0-0.353-0.287-0.64-0.64-0.64h-0.365zM17.408 12.227v-0.602c0-0.848-0.688-1.536-1.536-1.536h-0.32v3.67h0.32c0 0 0 0 0 0 0.847 0 1.534-0.686 1.536-1.533zM15.542 14.381v3.149s0.029 0.736 0.707 0.736 1.35-0.4 1.35-1.226v-1.219s0.016-1.44-2.058-1.44z"></path>
<path fill="#013e7e" d="M28.464 21.398h-24.928l4.365 4.432h16.198l4.365-4.432z"></path>
<path fill="#013e7e" d="M22.17 25.83l4.432-4.432h-21.203l4.432 4.432h12.339z"></path>
<path fill="#013e7e" d="M10.509 26.509l5.491 5.491 5.491-5.491h-10.982z"></path>
<path fill="#fff" d="M7.379 22.304h0.445v2.115h-0.445z"></path>
<path fill="#fff" d="M8.4 22.304h0.445v1.744h0.848v0.371h-1.28z"></path>
<path fill="#fff" d="M10.24 24.378c-0.139-0.054-0.258-0.131-0.359-0.228l0.256-0.32c0.073 0.067 0.158 0.122 0.25 0.164 0.087 0.040 0.181 0.062 0.281 0.063 0.007 0 0.016 0.001 0.024 0.001 0.079 0 0.153-0.023 0.215-0.062 0.049-0.035 0.082-0.093 0.082-0.159 0-0.002-0-0.005-0-0.007 0-0.001 0-0.002 0-0.003 0-0.041-0.014-0.079-0.039-0.109s-0.056-0.055-0.091-0.073l-0.184-0.081-0.278-0.118c-0.127-0.047-0.234-0.122-0.319-0.217-0.075-0.091-0.12-0.207-0.12-0.334 0-0.008 0-0.015 0-0.023-0-0.002-0-0.006-0-0.010 0-0.115 0.036-0.223 0.097-0.311 0.065-0.094 0.154-0.17 0.257-0.221 0.111-0.054 0.238-0.085 0.371-0.085 0.004 0 0.007 0 0.011 0 0.13 0.001 0.254 0.028 0.367 0.076 0.118 0.045 0.225 0.113 0.314 0.199l-0.224 0.281c-0.063-0.051-0.134-0.094-0.212-0.126-0.073-0.028-0.151-0.044-0.233-0.044-0.001 0-0.002 0-0.004 0-0.006-0-0.013-0.001-0.020-0.001-0.071 0-0.137 0.020-0.192 0.056-0.045 0.031-0.076 0.084-0.076 0.145 0 0.003 0 0.006 0 0.009-0 0.001-0 0.002-0 0.003 0 0.042 0.016 0.080 0.042 0.109 0.027 0.035 0.062 0.064 0.101 0.085l0.187 0.081 0.272 0.109c0.128 0.047 0.235 0.123 0.319 0.22 0.069 0.091 0.11 0.205 0.11 0.328 0 0.009-0 0.017-0.001 0.026 0-0.001 0-0 0 0.001 0 0.118-0.035 0.228-0.094 0.321-0.066 0.099-0.158 0.179-0.267 0.23-0.119 0.056-0.255 0.088-0.398 0.088-0.009 0-0.018-0-0.027-0-0.012 0.001-0.027 0.001-0.042 0.001-0.136 0-0.266-0.024-0.387-0.067z"></path>
<path fill="#fff"  d="M12.602 22.304h0.707c0.017-0.001 0.036-0.001 0.056-0.001 0.205 0 0.396 0.059 0.557 0.161 0.134 0.105 0.222 0.271 0.222 0.458 0 0.018-0.001 0.036-0.002 0.053 0.001 0.008 0.001 0.021 0.001 0.033 0 0.198-0.090 0.374-0.23 0.492-0.153 0.113-0.345 0.181-0.552 0.181-0.013 0-0.026-0-0.039-0.001l-0.273 0v0.739h-0.445zM13.293 23.328q0.416 0 0.416-0.352c0.001-0.010 0.002-0.022 0.002-0.034 0-0.091-0.043-0.171-0.11-0.222-0.081-0.048-0.178-0.075-0.281-0.075-0.014 0-0.027 0-0.041 0.001l-0.232-0v0.672z"></path>
<path fill="#fff"  d="M14.483 24.32c-0.081-0.085-0.131-0.2-0.131-0.327 0-0.005 0-0.011 0-0.016-0-0.003-0-0.007-0-0.012 0-0.162 0.086-0.305 0.216-0.383 0.204-0.111 0.442-0.18 0.696-0.193 0.005-0.007 0.005-0.016 0.005-0.024 0-0.131-0.106-0.237-0.237-0.237-0.011 0-0.021 0.001-0.031 0.002-0.073 0-0.143 0.014-0.208 0.040-0.084 0.033-0.159 0.069-0.23 0.111l-0.153-0.295c0.19-0.127 0.423-0.205 0.674-0.211 0.014-0.001 0.029-0.002 0.044-0.002 0.167 0 0.317 0.069 0.424 0.181 0.101 0.132 0.162 0.299 0.162 0.48 0 0.020-0.001 0.041-0.002 0.061l0 0.922h-0.352l-0.032-0.17c-0.124 0.121-0.29 0.199-0.475 0.208-0.014 0.001-0.029 0.002-0.044 0.002-0.127 0-0.243-0.052-0.326-0.136zM15.123 24.077c0.055-0.033 0.102-0.070 0.144-0.112v-0.32c-0.138 0.011-0.266 0.049-0.38 0.108-0.060 0.032-0.104 0.099-0.106 0.176-0 0.004-0 0.008-0 0.012 0 0.046 0.020 0.087 0.052 0.116 0.037 0.028 0.083 0.045 0.134 0.045 0.005 0 0.009-0 0.014-0 0.006 0.001 0.014 0.001 0.021 0.001 0.044 0 0.086-0.010 0.124-0.027z"></path>
<path fill="#fff"  d="M16.192 22.816h0.358l0.032 0.282c0.050-0.096 0.119-0.175 0.203-0.235 0.070-0.052 0.156-0.082 0.248-0.085 0.006-0 0.011-0 0.017-0 0.062 0 0.121 0.012 0.175 0.033l-0.077 0.38h-0.058c-0.016-0.002-0.035-0.003-0.054-0.003s-0.038 0.001-0.057 0.003c-0.075 0-0.145 0.028-0.2 0.074-0.072 0.061-0.128 0.14-0.161 0.229l-0.001 0.964h-0.426z"></path>
<path fill="#fff"  d="M17.712 24.298c-0.081-0.112-0.129-0.252-0.129-0.404 0-0.016 0-0.031 0.002-0.046l-0-0.683h-0.224v-0.32l0.24-0.029 0.058-0.416h0.365v0.416h0.39v0.349h-0.39v0.682q0 0.262 0.214 0.262c0.058-0.002 0.113-0.013 0.163-0.033l0.067 0.321c-0.103 0.036-0.222 0.057-0.345 0.058-0.014 0.001-0.031 0.002-0.047 0.002-0.143 0-0.272-0.061-0.362-0.159z"></path>
<path fill="#fff" d="M18.803 22.816h0.358l0.032 0.208c0.069-0.069 0.148-0.128 0.235-0.176 0.084-0.045 0.177-0.070 0.276-0.070 0.003 0 0.005 0 0.008 0 0.009-0.001 0.021-0.001 0.032-0.001 0.139 0 0.262 0.065 0.341 0.167 0.078 0.122 0.124 0.27 0.124 0.428 0 0.017-0.001 0.035-0.002 0.052l0 0.996h-0.429v-0.944c0.001-0.011 0.002-0.024 0.002-0.037 0-0.078-0.020-0.151-0.054-0.215-0.033-0.041-0.086-0.069-0.145-0.069-0.006 0-0.012 0-0.018 0.001-0.002-0-0.004-0-0.007-0-0.056 0-0.108 0.014-0.154 0.039-0.060 0.037-0.114 0.079-0.162 0.127l0 1.094h-0.438z"></path>
<path fill="#fff" d="M22.016 23.744h-0.992c0.013 0.115 0.071 0.214 0.156 0.281 0.078 0.057 0.175 0.090 0.28 0.090 0.004 0 0.008-0 0.012-0 0.132-0.006 0.254-0.049 0.357-0.117l0.145 0.27c-0.077 0.054-0.166 0.099-0.262 0.129-0.095 0.032-0.196 0.049-0.301 0.050-0.004 0-0.009 0-0.014 0-0.145 0-0.281-0.037-0.4-0.102-0.118-0.066-0.217-0.165-0.282-0.285-0.068-0.133-0.107-0.286-0.107-0.449s0.039-0.315 0.108-0.45c0.064-0.117 0.158-0.216 0.272-0.287 0.107-0.066 0.232-0.104 0.366-0.104 0.001 0 0.001 0 0.002 0 0.011-0.001 0.024-0.001 0.038-0.001 0.185 0 0.351 0.082 0.464 0.212 0.111 0.158 0.176 0.353 0.176 0.563 0 0.068-0.007 0.135-0.020 0.199zM21.658 23.45c0-0.006 0.001-0.014 0.001-0.022 0-0.083-0.027-0.16-0.072-0.223-0.048-0.054-0.118-0.089-0.197-0.089-0.007 0-0.014 0-0.020 0.001-0.081 0.001-0.155 0.032-0.211 0.083-0.066 0.065-0.111 0.151-0.124 0.247z"></path>
<path fill="#fff"  d="M22.438 22.816h0.358l0.032 0.282c0.050-0.096 0.119-0.175 0.203-0.235 0.070-0.052 0.156-0.082 0.248-0.085 0.006-0 0.011-0 0.017-0 0.062 0 0.121 0.012 0.175 0.033l-0.077 0.38h-0.058c-0.016-0.002-0.035-0.003-0.054-0.003s-0.038 0.001-0.057 0.003c-0.075 0-0.145 0.028-0.2 0.074-0.072 0.061-0.128 0.14-0.161 0.229l-0.001 0.964h-0.426z"></path>
<path fill="#fff"  d="M23.878 24.397c-0.112-0.041-0.208-0.096-0.293-0.165l0.203-0.277c0.062 0.049 0.133 0.092 0.208 0.126 0.068 0.029 0.139 0.044 0.214 0.044 0.006 0 0.012 0.001 0.019 0.001 0.055 0 0.106-0.016 0.149-0.043 0.032-0.024 0.053-0.063 0.053-0.107 0-0.003-0-0.005-0-0.007-0.001-0.036-0.018-0.068-0.045-0.089-0.036-0.030-0.077-0.055-0.122-0.073l-0.166-0.068c-0.123-0.044-0.229-0.106-0.322-0.184-0.073-0.066-0.12-0.163-0.12-0.271 0-0.006 0-0.011 0-0.017-0-0.003-0-0.007-0-0.011 0-0.14 0.065-0.265 0.166-0.346 0.111-0.087 0.252-0.139 0.405-0.139 0.012 0 0.024 0 0.036 0.001 0.21 0.002 0.403 0.078 0.553 0.203l-0.2 0.264c-0.093-0.077-0.211-0.127-0.34-0.137-0.008-0.001-0.014-0.001-0.020-0.001-0.049 0-0.095 0.015-0.133 0.040-0.030 0.022-0.050 0.059-0.050 0.1 0 0.001 0 0.001 0 0.002 0.001 0.045 0.026 0.085 0.063 0.105 0.044 0.027 0.093 0.051 0.146 0.069l0.114 0.040c0.123 0.042 0.229 0.103 0.322 0.18 0.072 0.069 0.118 0.168 0.118 0.277 0 0.009-0 0.018-0.001 0.027 0 0 0 0.002 0 0.003 0 0.095-0.029 0.183-0.078 0.256-0.054 0.078-0.129 0.14-0.216 0.179-0.099 0.044-0.212 0.069-0.33 0.069-0.008 0-0.016-0-0.024-0-0.001 0-0.003 0-0.005 0-0.109 0-0.213-0.019-0.311-0.053z"></path>
<path fill="#5071a7" d="M27.283 20.717l-0.682 0.682h1.862l-1.181-0.682z"></path>
<path fill="#5071a7" d="M4.717 20.717l0.682 0.682h-1.862l1.181-0.682z"></path>
</symbol>
<symbol id="icon-logo-white" viewBox="0 0 32 32">
<title>logo-white</title>
<path fill="#fff"  d="M10.509 26.509h10.982l-5.491 5.491zM17.408 12.227v-0.602c0-0.848-0.688-1.536-1.536-1.536h-0.32v3.67h0.32c0 0 0 0 0 0 0.847 0 1.534-0.686 1.536-1.533zM15.542 14.381v3.149s0.029 0.736 0.707 0.736 1.35-0.4 1.35-1.226v-1.219s0.016-1.44-2.058-1.44zM16 0l-16 16 4.717 4.717h22.566l4.717-4.717zM12.080 10.061h-0.272c-0.299 0-0.541 0.242-0.541 0.541v7.107c0.005 0.295 0.245 0.531 0.541 0.531 0 0 0 0 0 0h0.269v0.64h-3.597v-0.64h0.269c0.291-0.005 0.526-0.24 0.531-0.531v-7.108c0-0.299-0.242-0.541-0.541-0.541h-0.259v-0.64h3.6zM18.902 18.41c-0.431 0.316-0.97 0.508-1.554 0.515h-4.594v-0.64h0.365c0.353 0 0.64-0.287 0.64-0.64v-6.909c0-0.353-0.287-0.64-0.64-0.64h-0.365v-0.64h4.63s1.949 0.128 1.949 2.138-1.981 2.403-1.981 2.403 2.31 0.534 2.31 2.019 0.035 1.696-0.762 2.394zM23.52 10.061h-0.269c-0.295 0.005-0.531 0.245-0.531 0.541 0 0 0 0 0 0v7.107c0.005 0.291 0.24 0.526 0.531 0.531h0.269v0.64h-3.6v-0.64h0.269c0.299 0 0.541-0.242 0.541-0.541v-7.098c0-0.299-0.242-0.541-0.541-0.541h-0.269v-0.64h3.6zM14.778 23.942c-0 0.003-0 0.008-0 0.012 0 0.046 0.020 0.087 0.052 0.116 0.036 0.028 0.083 0.045 0.133 0.045 0.005 0 0.010-0 0.015-0-0 0 0.001 0 0.001 0 0.053 0 0.104-0.014 0.147-0.039 0.053-0.032 0.1-0.069 0.143-0.111v-0.32c-0.138 0.011-0.266 0.049-0.38 0.108-0.063 0.032-0.11 0.102-0.11 0.184 0 0.002 0 0.004 0 0.006zM21.37 23.117c-0.082 0.001-0.156 0.032-0.211 0.083-0.066 0.065-0.111 0.151-0.124 0.247l0.64 0.002c0-0.006 0.001-0.013 0.001-0.021 0-0.083-0.027-0.161-0.072-0.224-0.048-0.055-0.119-0.091-0.199-0.091-0.012 0-0.024 0.001-0.036 0.002zM13.277 22.656h-0.234v0.672h0.246q0.416 0 0.416-0.352c0.001-0.011 0.002-0.023 0.002-0.036 0-0.089-0.042-0.169-0.107-0.22-0.078-0.043-0.169-0.067-0.267-0.067-0.020 0-0.040 0.001-0.059 0.003zM28.461 21.398l-1.181-0.678-0.678 0.678h-21.203l-0.678-0.678-1.181 0.678 4.362 4.432h16.198l4.365-4.432zM7.821 24.419h-0.442v-2.115h0.445zM9.69 24.419h-1.28v-2.115h0.445v1.744h0.848zM11.36 24.134c-0.067 0.102-0.159 0.182-0.268 0.232-0.119 0.056-0.255 0.088-0.398 0.088-0.009 0-0.018-0-0.027-0-0.004 0-0.010 0-0.015 0-0.148 0-0.29-0.028-0.42-0.080-0.131-0.052-0.251-0.129-0.351-0.225l0.256-0.32c0.073 0.067 0.158 0.122 0.25 0.164 0.087 0.040 0.181 0.062 0.281 0.063 0.007 0 0.015 0.001 0.023 0.001 0.079 0 0.153-0.023 0.216-0.062 0.049-0.035 0.082-0.093 0.082-0.159 0-0.002-0-0.005-0-0.007 0-0.001 0-0.002 0-0.003 0-0.041-0.014-0.079-0.039-0.109s-0.056-0.055-0.091-0.073l-0.184-0.081-0.278-0.118c-0.127-0.047-0.234-0.122-0.319-0.217-0.075-0.091-0.12-0.207-0.12-0.334 0-0.008 0-0.015 0-0.023-0-0.002-0-0.006-0-0.010 0-0.115 0.036-0.223 0.097-0.311 0.065-0.094 0.154-0.17 0.257-0.221 0.111-0.054 0.237-0.085 0.37-0.085 0.004 0 0.008 0 0.012 0 0.13 0.001 0.254 0.028 0.367 0.076 0.118 0.045 0.225 0.113 0.314 0.199l-0.224 0.281c-0.063-0.051-0.134-0.094-0.212-0.126-0.073-0.028-0.151-0.044-0.233-0.044-0.001 0-0.002 0-0.004 0-0.006-0-0.013-0.001-0.020-0.001-0.071 0-0.137 0.020-0.192 0.056-0.045 0.031-0.076 0.084-0.076 0.145 0 0.003 0 0.006 0 0.009-0 0.001-0 0.002-0 0.003 0 0.042 0.016 0.080 0.042 0.109 0.027 0.035 0.062 0.064 0.101 0.085l0.187 0.081 0.272 0.109c0.128 0.047 0.235 0.123 0.319 0.22 0.069 0.091 0.11 0.205 0.11 0.328 0 0.009-0 0.017-0.001 0.026 0.001 0.007 0.001 0.018 0.001 0.028 0 0.112-0.031 0.217-0.085 0.306zM13.92 23.494c-0.152 0.112-0.344 0.18-0.551 0.18-0.013 0-0.026-0-0.039-0.001l-0.273 0v0.739h-0.454v-2.109h0.707c0.017-0.001 0.036-0.001 0.056-0.001 0.205 0 0.396 0.059 0.557 0.161 0.134 0.105 0.222 0.271 0.222 0.458 0 0.018-0.001 0.036-0.002 0.053 0.001 0.008 0.001 0.021 0.001 0.033 0 0.198-0.090 0.374-0.23 0.492zM15.722 24.41h-0.362l-0.032-0.17c-0.124 0.121-0.29 0.199-0.475 0.208-0.016 0.002-0.033 0.003-0.050 0.003-0.125 0-0.238-0.050-0.32-0.131-0.081-0.085-0.131-0.2-0.131-0.327 0-0.005 0-0.011 0-0.016-0-0.003-0-0.007-0-0.012 0-0.162 0.086-0.305 0.216-0.383 0.204-0.111 0.442-0.18 0.696-0.193 0.005-0.007 0.005-0.016 0.005-0.024 0-0.131-0.106-0.237-0.237-0.237-0.011 0-0.021 0.001-0.031 0.002-0.073 0-0.143 0.014-0.208 0.040-0.084 0.033-0.159 0.069-0.23 0.111l-0.153-0.295c0.19-0.127 0.423-0.205 0.674-0.211 0.014-0.001 0.029-0.002 0.044-0.002 0.167 0 0.317 0.069 0.424 0.181 0.101 0.132 0.162 0.299 0.162 0.48 0 0.020-0.001 0.041-0.002 0.061zM17.174 23.181h-0.058c-0.016-0.002-0.035-0.003-0.054-0.003s-0.038 0.001-0.057 0.003c-0.075 0-0.145 0.028-0.2 0.074-0.072 0.061-0.128 0.14-0.161 0.229l-0.001 0.964h-0.451v-1.6h0.358l0.032 0.282c0.050-0.096 0.119-0.175 0.203-0.235 0.070-0.052 0.156-0.082 0.248-0.085 0.006-0 0.011-0 0.017-0 0.062 0 0.121 0.012 0.175 0.033zM18.134 24.461c-0.013 0.001-0.029 0.002-0.044 0.002-0.145 0-0.275-0.062-0.365-0.162-0.083-0.113-0.133-0.255-0.133-0.408 0-0.014 0-0.028 0.001-0.042l-0-0.686h-0.224v-0.32l0.23-0.029 0.058-0.416h0.365v0.416h0.39v0.349h-0.39v0.682q0 0.262 0.214 0.262c0.058-0.002 0.113-0.013 0.163-0.033l0.067 0.321c-0.104 0.037-0.224 0.060-0.348 0.061zM20.237 24.422h-0.458v-0.947c0.001-0.011 0.002-0.024 0.002-0.037 0-0.078-0.020-0.151-0.054-0.215-0.033-0.041-0.086-0.069-0.145-0.069-0.006 0-0.012 0-0.018 0.001-0.002-0-0.004-0-0.007-0-0.056 0-0.108 0.014-0.154 0.039-0.060 0.038-0.114 0.081-0.161 0.13l-0 1.095h-0.438v-1.6h0.358l0.032 0.208c0.069-0.069 0.148-0.128 0.235-0.176 0.084-0.045 0.177-0.070 0.276-0.070 0.003 0 0.005 0 0.008 0 0.009-0.001 0.021-0.001 0.032-0.001 0.139 0 0.262 0.065 0.341 0.167 0.078 0.122 0.124 0.27 0.124 0.428 0 0.017-0.001 0.035-0.002 0.052zM22.016 23.744h-0.992c0.013 0.115 0.071 0.214 0.156 0.281 0.078 0.057 0.175 0.090 0.28 0.090 0.004 0 0.008-0 0.012-0 0.132-0.006 0.254-0.049 0.357-0.117l0.145 0.27c-0.077 0.054-0.166 0.099-0.262 0.129-0.095 0.032-0.196 0.049-0.301 0.050-0.004 0-0.009 0-0.014 0-0.145 0-0.281-0.037-0.4-0.102-0.118-0.066-0.217-0.165-0.282-0.285-0.068-0.133-0.107-0.286-0.107-0.449s0.039-0.315 0.108-0.45c0.064-0.117 0.158-0.216 0.272-0.287 0.107-0.066 0.232-0.104 0.366-0.104 0.001 0 0.001 0 0.002 0 0.011-0.001 0.024-0.001 0.038-0.001 0.185 0 0.351 0.082 0.464 0.212 0.111 0.158 0.176 0.353 0.176 0.563 0 0.068-0.007 0.135-0.020 0.199zM23.408 23.19h-0.058c-0.016-0.002-0.035-0.003-0.054-0.003s-0.038 0.001-0.057 0.003c-0.075 0-0.145 0.028-0.2 0.074-0.072 0.061-0.128 0.14-0.161 0.229l-0.001 0.964h-0.438v-1.6h0.358l0.032 0.282c0.050-0.096 0.119-0.175 0.203-0.235 0.070-0.052 0.156-0.082 0.248-0.085 0.006-0 0.011-0 0.017-0 0.062 0 0.121 0.012 0.175 0.033zM24.774 24.205c-0.055 0.080-0.13 0.142-0.218 0.181-0.099 0.044-0.212 0.069-0.33 0.069-0.008 0-0.016-0-0.024-0-0.114-0.001-0.224-0.023-0.325-0.063-0.105-0.038-0.202-0.094-0.287-0.163l0.203-0.277c0.062 0.049 0.133 0.092 0.208 0.126 0.068 0.029 0.139 0.044 0.214 0.044 0.006 0 0.012 0.001 0.019 0.001 0.055 0 0.106-0.016 0.149-0.043 0.032-0.024 0.053-0.063 0.053-0.107 0-0.003-0-0.005-0-0.007-0.001-0.036-0.018-0.068-0.045-0.089-0.036-0.030-0.077-0.055-0.122-0.073l-0.166-0.068c-0.123-0.044-0.229-0.106-0.322-0.184-0.073-0.066-0.12-0.163-0.12-0.271 0-0.006 0-0.011 0-0.017-0-0.003-0-0.007-0-0.011 0-0.14 0.065-0.265 0.166-0.346 0.111-0.087 0.252-0.139 0.405-0.139 0.012 0 0.024 0 0.036 0.001 0.21 0.002 0.403 0.078 0.553 0.203l-0.2 0.264c-0.093-0.077-0.211-0.127-0.34-0.137-0.008-0.001-0.014-0.001-0.020-0.001-0.049 0-0.095 0.015-0.133 0.040-0.030 0.022-0.050 0.059-0.050 0.1 0 0.001 0 0.001 0 0.002 0.001 0.045 0.026 0.085 0.063 0.105 0.044 0.027 0.093 0.051 0.146 0.069l0.114 0.040c0.123 0.042 0.229 0.103 0.322 0.18 0.072 0.069 0.118 0.168 0.118 0.277 0 0.009-0 0.018-0.001 0.027 0.001 0.007 0.001 0.017 0.001 0.027 0 0.089-0.025 0.172-0.069 0.243z"></path>
</symbol>
<symbol id="icon-menu" viewBox="0 0 24 24">
<title>menu</title>
<path d="M3 6h18v2.016h-18v-2.016zM3 12.984v-1.969h18v1.969h-18zM3 18v-2.016h18v2.016h-18z"></path>
</symbol>
<symbol id="icon-linkedin" viewBox="0 0 32 32">
<title>linkedin</title>
<path d="M16 32c-8.837 0-16-7.163-16-16s7.163-16 16-16c8.837 0 16 7.163 16 16s-7.163 16-16 16zM16 0.838c-8.374 0-15.162 6.788-15.162 15.162s6.788 15.162 15.162 15.162c8.374 0 15.162-6.788 15.162-15.162-0.011-8.369-6.792-15.151-15.161-15.162z"></path>
<path d="M11.917 21.325c0 0.102-0.083 0.186-0.186 0.186h-2.874c-0.102 0-0.186-0.083-0.186-0.186v-9.35c0-0.102 0.083-0.186 0.186-0.186h2.867c0.102 0 0.186 0.083 0.186 0.186zM11.917 9.165c0-0.894-0.725-1.619-1.619-1.619s-1.619 0.725-1.619 1.619c0 0.894 0.725 1.619 1.619 1.619 0 0 0 0 0 0 0.894 0 1.619-0.725 1.619-1.619 0-0.005-0-0.009-0-0.014zM23.168 21.325v-6.49c0-0.018 0.001-0.040 0.001-0.061 0-0.853-0.34-1.626-0.891-2.192-0.608-0.579-1.433-0.936-2.343-0.936-0.047 0-0.094 0.001-0.14 0.003-0.004-0-0.016-0-0.029-0-1.118 0-2.126 0.472-2.836 1.227l-0.002-0.9c0-0.102-0.083-0.186-0.186-0.186h-2.88c-0.102 0-0.186 0.083-0.186 0.186v9.35c0 0.102 0.083 0.186 0.186 0.186h2.867c0.102 0 0.186-0.083 0.186-0.186v-5.709c0.049-0.795 0.705-1.421 1.508-1.421 0.008 0 0.015 0 0.023 0 1.388 0 1.484 0.832 1.484 1.85v5.28c0 0.102 0.083 0.186 0.186 0.186h2.867c0.102 0 0.186-0.083 0.186-0.186z"></path>
</symbol>
<symbol id="icon-email" viewBox="0 0 32 32">
<title>email</title>
<path d="M28.262 32h-24.768c-1.928-0.004-3.491-1.566-3.494-3.494v-14.983c0.006-1.058 0.482-2.003 1.23-2.639l11.429-9.694c0.867-0.742 2.001-1.194 3.242-1.194s2.375 0.452 3.248 1.199l11.372 9.684c0.758 0.644 1.235 1.597 1.235 2.662v14.963c-0.004 1.928-1.566 3.491-3.494 3.494zM15.898 1.882c-0 0-0.001 0-0.001 0-0.773 0-1.48 0.281-2.026 0.746l-11.42 9.667c-0.349 0.297-0.569 0.737-0.57 1.229v14.982c0 0.891 0.722 1.613 1.613 1.613h24.768c0.891 0 1.613-0.722 1.613-1.613v-14.989c-0-0.491-0.22-0.931-0.567-1.227l-11.388-9.659c-0.541-0.464-1.248-0.747-2.022-0.749z"></path>
<path d="M24.237 18.202h-1.882v-6.605c0-0.237-0.192-0.429-0.429-0.429h-12.102c-0.237 0-0.429 0.192-0.429 0.429v6.605h-1.882v-6.605c0-1.276 1.034-2.31 2.31-2.31h12.102c1.276 0 2.31 1.034 2.31 2.31z"></path>
<path d="M15.878 23.117c-0.172-0.002-0.333-0.049-0.472-0.13l-13-7.486c-0.284-0.166-0.471-0.469-0.471-0.816 0-0.52 0.422-0.942 0.942-0.942 0.173 0 0.335 0.047 0.475 0.128l12.527 7.249 12.531-7.251c0.135-0.079 0.297-0.126 0.47-0.126 0.52 0 0.942 0.422 0.942 0.942 0 0.347-0.188 0.65-0.467 0.814l-13.009 7.49c-0.134 0.079-0.295 0.126-0.467 0.128z"></path>
<path d="M20.371 17.325h-8.992c-0.52 0-0.941-0.421-0.941-0.941s0.421-0.941 0.941-0.941h8.992c0.52 0 0.941 0.421 0.941 0.941s-0.421 0.941-0.941 0.941z"></path>
<path d="M20.371 14.72h-8.992c-0.52 0-0.941-0.421-0.941-0.941s0.421-0.941 0.941-0.941h8.992c0.52 0 0.941 0.421 0.941 0.941s-0.421 0.941-0.941 0.941z"></path>
</symbol>
<symbol id="icon-phone" viewBox="0 0 31 32">
<title>phone</title>
<path d="M26.931 32h-23.174c-2.073-0.004-3.753-1.683-3.757-3.756v-3.2c0-0.001 0-0.003 0-0.004 0-0.453 0.129-0.876 0.351-1.235l4.596-7.497c0.674-1.081 1.853-1.791 3.199-1.798h13.166c1.223 0.001 2.31 0.581 3.001 1.482l5.914 7.734c0.299 0.392 0.48 0.888 0.48 1.427v3.104c-0.011 2.070-1.692 3.744-3.763 3.744-0.005 0-0.009 0-0.014-0zM8.154 16.397c-0.671 0.009-1.259 0.361-1.595 0.888l-4.638 7.534c-0.044 0.069-0.070 0.153-0.070 0.243v3.2c0 1.036 0.84 1.875 1.875 1.875h23.206c1.033-0.004 1.869-0.842 1.869-1.875 0-0.007-0-0.014-0-0.020v-3.103c-0-0.106-0.037-0.204-0.097-0.283l-5.9-7.724c-0.351-0.445-0.887-0.729-1.49-0.736z"></path>
<path d="M14.842 15.674h-1.882v-3.514c0-0.429-0.348-0.778-0.778-0.778s-0.778 0.348-0.778 0.778v3.488h-1.882v-3.488c-0.002-0.039-0.003-0.085-0.003-0.13 0-1.47 1.192-2.662 2.662-2.662s2.662 1.192 2.662 2.662c0 0.046-0.001 0.092-0.003 0.137z"></path>
<path d="M21.165 15.674h-1.882v-3.514c0-0.429-0.348-0.778-0.778-0.778s-0.778 0.348-0.778 0.778v3.488h-1.882v-3.488c-0.002-0.039-0.003-0.085-0.003-0.13 0-1.47 1.192-2.662 2.662-2.662s2.662 1.192 2.662 2.662c0 0.046-0.001 0.092-0.003 0.137z"></path>
<path d="M15.36 28.832c-3.050 0-5.523-2.473-5.523-5.523s2.473-5.523 5.523-5.523c3.050 0 5.523 2.473 5.523 5.523-0.004 3.049-2.474 5.52-5.523 5.523zM15.36 19.667c-2.011 0-3.642 1.63-3.642 3.642s1.63 3.642 3.642 3.642c2.011 0 3.642-1.63 3.642-3.642-0.004-2.010-1.632-3.638-3.641-3.642z"></path>
<path d="M28.282 14.72l-6.682-2.56v-4.294c-0.104-0.111-0.229-0.2-0.37-0.26-0.903-0.323-2.401-0.86-5.908-0.86s-4.992 0.538-5.888 0.858c-0.153 0.057-0.277 0.163-0.357 0.298l-0.002 4.259-6.675 2.56-0.429-0.557c-2.81-3.699-2.566-7.763 0.589-10.323 2.291-1.92 7.68-3.84 12.749-3.84s10.483 1.958 12.781 3.84c3.2 2.56 3.424 6.611 0.64 10.278zM15.36 1.882c-5.056 0-9.888 2.048-11.558 3.43-3.072 2.483-1.677 5.613-0.71 7.11l4.134-1.587v-2.97c0.079-0.955 0.721-1.741 1.59-2.030 0.932-0.338 2.704-0.965 6.545-0.965s5.587 0.64 6.528 0.966c0.891 0.293 1.539 1.078 1.625 2.026l0.001 2.979 4.128 1.587c0.966-1.498 2.362-4.627-0.71-7.104v0c-1.709-1.395-6.541-3.443-11.571-3.443z"></path>
</symbol>
<symbol id="icon-lock" viewBox="0 0 29 32">
<title>lock</title>
<path fill="#fff" stroke="#1a2268" stroke-width="1.3847" stroke-miterlimit="4" stroke-linecap="round" stroke-linejoin="round" d="M14.193 0.692h-6.532c-1.681 0-3.043 1.362-3.043 3.043v0 3.988h2.219v-2.402c0.004-1.219 0.993-2.205 2.212-2.205 0.001 0 0.002 0 0.004 0h3.756c1.222 0 2.212 0.99 2.212 2.212v0 2.402h2.219v-3.995c0-1.681-1.362-3.043-3.043-3.043-0.001 0-0.002 0-0.004 0h0z"></path>
<path fill="#fff" stroke="#1a2268" stroke-width="1.3847" stroke-miterlimit="4" stroke-linecap="round" stroke-linejoin="round" d="M17.765 7.373h-13.66c-1.885 0-3.413 1.528-3.413 3.413 0 0.001 0 0.002 0 0.004v-0 11.607c0 1.885 1.528 3.413 3.413 3.413v0h13.66c1.885 0 3.413-1.528 3.413-3.413v0-11.607c0-0.001 0-0.002 0-0.003 0-1.885-1.528-3.413-3.413-3.413v0zM13.355 20.331h-4.846l0.855-4.621c-0.67-0.489-1.101-1.271-1.101-2.154 0-1.468 1.19-2.659 2.659-2.659s2.659 1.19 2.659 2.659c0 0.883-0.431 1.666-1.093 2.149l-0.008 0.005z"></path>
<path fill="#fff" stroke="#1a2268" stroke-width="1.3847" stroke-miterlimit="4" stroke-linecap="round" stroke-linejoin="round" d="M17.634 27.725h-9.859l-2.049-2.049 2.818-2.562 0.765 1.025 1.281-1.281 1.281 1.281 1.537-1.281 1.281 1.281 1.537-1.281 1.302 1.073"></path>
<path fill="#fff" stroke="#1a2268" stroke-width="1.3847" stroke-miterlimit="4" stroke-linecap="round" stroke-linejoin="round" d="M28.518 25.675c0 3.113-2.523 5.636-5.636 5.636s-5.636-2.523-5.636-5.636c0-3.113 2.523-5.636 5.636-5.636v0c3.113 0 5.636 2.523 5.636 5.636v0zM24.163 23.626c-1.132 0-2.049 0.918-2.049 2.049s0.918 2.049 2.049 2.049c1.132 0 2.049-0.918 2.049-2.049v0c0-1.132-0.918-2.049-2.049-2.049v0z"></path>
</symbol>
</defs>
</svg>
