<svg style="position: absolute; width: 0; height: 0; overflow: hidden;" version="1.1" xmlns="http://www.w3.org/2000/svg" xmlns:xlink="http://www.w3.org/1999/xlink">
<defs>
<symbol id="icon-business" viewBox="0 0 34 32">
<title>business</title>
<path fill="#ede5da" style="fill: var(--color1, #ede5da)" d="M9.114 0.314h15.815v31.373h-15.815v-31.373z"></path>
<path fill="#0e2d6d" style="fill: var(--color2, #0e2d6d)" d="M25.242 32h-16.458v-32h16.458zM9.412 31.373h15.203v-30.745h-15.203z"></path>
<path fill="#ede5da" style="fill: var(--color1, #ede5da)" d="M9.114 31.686h-8.8v-24.869h8.8v24.869z"></path>
<path fill="#0e2d6d" style="fill: var(--color2, #0e2d6d)" d="M9.412 32h-9.412v-25.496h9.412zM0.627 31.373h8.157v-24.242h-8.157z"></path>
<path fill="#c0ac8e" style="fill: var(--color3, #c0ac8e)" d="M2.673 9.622h4.082v4.082h-4.082v-4.082z"></path>
<path fill="#0e2d6d" style="fill: var(--color2, #0e2d6d)" d="M7.068 14.017h-4.706v-4.706h4.706zM2.99 13.39h3.451v-3.451h-3.451z"></path>
<path fill="#c0ac8e" style="fill: var(--color3, #c0ac8e)" d="M2.673 16.254h4.082v4.082h-4.082v-4.082z"></path>
<path fill="#0e2d6d" style="fill: var(--color2, #0e2d6d)" d="M7.068 20.649h-4.706v-4.706h4.706zM2.99 20.022h3.451v-3.451h-3.451z"></path>
<path fill="#c0ac8e" style="fill: var(--color3, #c0ac8e)" d="M2.673 22.886h4.082v4.082h-4.082v-4.082z"></path>
<path fill="#0e2d6d" style="fill: var(--color2, #0e2d6d)" d="M7.068 27.294h-4.706v-4.706h4.706zM2.99 26.667h3.451v-3.451h-3.451z"></path>
<path fill="#ede5da" style="fill: var(--color1, #ede5da)" d="M33.725 31.686h-8.8v-24.869h8.8v24.869z"></path>
<path fill="#0e2d6d" style="fill: var(--color2, #0e2d6d)" d="M34.039 32h-9.412v-25.496h9.412zM25.255 31.373h8.157v-24.242h-8.157z"></path>
<path fill="#c0ac8e" style="fill: var(--color3, #c0ac8e)" d="M27.288 9.622h4.082v4.082h-4.082v-4.082z"></path>
<path fill="#0e2d6d" style="fill: var(--color2, #0e2d6d)" d="M31.686 14.017h-4.706v-4.706h4.706zM27.608 13.39h3.451v-3.451h-3.451z"></path>
<path fill="#c0ac8e" style="fill: var(--color3, #c0ac8e)" d="M27.288 16.254h4.082v4.082h-4.082v-4.082z"></path>
<path fill="#0e2d6d" style="fill: var(--color2, #0e2d6d)" d="M31.686 20.649h-4.706v-4.706h4.706zM27.608 20.022h3.451v-3.451h-3.451z"></path>
<path fill="#c0ac8e" style="fill: var(--color3, #c0ac8e)" d="M27.288 22.886h4.082v4.082h-4.082v-4.082z"></path>
<path fill="#0e2d6d" style="fill: var(--color2, #0e2d6d)" d="M31.686 27.294h-4.706v-4.706h4.706zM27.608 26.667h3.451v-3.451h-3.451z"></path>
<path fill="#c0ac8e" style="fill: var(--color3, #c0ac8e)" d="M14.344 24.417h5.355v7.269h-5.355v-7.269z"></path>
<path fill="#0e2d6d" style="fill: var(--color2, #0e2d6d)" d="M20.013 32h-5.983v-7.896h5.983zM14.657 31.373h4.728v-6.642h-4.728z"></path>
<path fill="#c0ac8e" style="fill: var(--color3, #c0ac8e)" d="M11.705 3.501h4.082v4.082h-4.082v-4.082z"></path>
<path fill="#0e2d6d" style="fill: var(--color2, #0e2d6d)" d="M16.1 7.896h-4.706v-4.706h4.706zM12.022 7.269h3.451v-3.451h-3.451z"></path>
<path fill="#c0ac8e" style="fill: var(--color3, #c0ac8e)" d="M11.705 10.133h4.082v4.082h-4.082v-4.082z"></path>
<path fill="#0e2d6d" style="fill: var(--color2, #0e2d6d)" d="M16.1 14.529h-4.706v-4.706h4.706zM12.022 13.901h3.451v-3.451h-3.451z"></path>
<path fill="#c0ac8e" style="fill: var(--color3, #c0ac8e)" d="M11.705 16.765h4.082v4.082h-4.082v-4.082z"></path>
<path fill="#0e2d6d" style="fill: var(--color2, #0e2d6d)" d="M16.1 21.161h-4.706v-4.706h4.706zM12.022 20.533h3.451v-3.451h-3.451z"></path>
<path fill="#c0ac8e" style="fill: var(--color3, #c0ac8e)" d="M18.381 3.501h4.082v4.082h-4.082v-4.082z"></path>
<path fill="#0e2d6d" style="fill: var(--color2, #0e2d6d)" d="M22.776 7.896h-4.706v-4.706h4.706zM18.698 7.269h3.451v-3.451h-3.451z"></path>
<path fill="#c0ac8e" style="fill: var(--color3, #c0ac8e)" d="M18.381 10.133h4.082v4.082h-4.082v-4.082z"></path>
<path fill="#0e2d6d" style="fill: var(--color2, #0e2d6d)" d="M22.776 14.529h-4.706v-4.706h4.706zM18.698 13.901h3.451v-3.451h-3.451z"></path>
<path fill="#c0ac8e" style="fill: var(--color3, #c0ac8e)" d="M18.381 16.765h4.082v4.082h-4.082v-4.082z"></path>
<path fill="#0e2d6d" style="fill: var(--color2, #0e2d6d)" d="M22.776 21.161h-4.706v-4.706h4.706zM18.698 20.533h3.451v-3.451h-3.451z"></path>
</symbol>
<symbol id="icon-secure" viewBox="0 0 29 32">
<title>secure</title>
<path fill="#ede5da" style="fill: var(--color1, #ede5da)" d="M14.166 0.317h-6.707c-1.722 0-3.118 1.396-3.118 3.118v4.084h2.275v-2.449c0-0.003-0-0.006-0-0.010 0-1.248 1.008-2.261 2.255-2.268h3.872c1.252 0.002 2.265 1.017 2.265 2.268 0 0.003 0 0.007-0 0.010v2.461h2.275v-4.097c0-1.722-1.396-3.118-3.118-3.118z"></path>
<path fill="#0e2d6d" style="fill: var(--color2, #0e2d6d)" d="M17.6 7.835h-2.909v-2.766c0-1.078-0.874-1.952-1.952-1.952h-3.868c-1.074 0.005-1.942 0.877-1.942 1.952 0 0 0 0 0 0v2.779h-2.905v-4.413c0.002-1.896 1.538-3.433 3.434-3.434h6.707c1.896 0.002 3.433 1.538 3.434 3.434zM15.325 7.202h1.641v-3.767c-0.002-1.546-1.255-2.799-2.801-2.801h-6.707c-1.546 0.002-2.799 1.255-2.801 2.801v3.767h1.641v-2.132c0-0.003-0-0.006-0-0.010 0-1.423 1.15-2.578 2.572-2.585h3.872c1.427 0.002 2.582 1.159 2.582 2.585 0 0.003 0 0.007-0 0.010z"></path>
<path fill="#c0ac8e" style="fill: var(--color3, #c0ac8e)" d="M17.809 7.164h-14.007c-1.925 0-3.485 1.56-3.485 3.485v11.907c0 1.925 1.56 3.485 3.485 3.485h14.007c1.925 0 3.485-1.56 3.485-3.485v-11.894c0-0.004 0-0.008 0-0.013 0-1.925-1.56-3.485-3.485-3.485 0 0-0 0-0 0zM13.288 20.436h-4.955l0.874-4.737c-0.684-0.501-1.123-1.301-1.123-2.204 0-1.505 1.22-2.725 2.725-2.725s2.725 1.22 2.725 2.725c0 0.903-0.439 1.703-1.116 2.199z"></path>
<path fill="#0e2d6d" style="fill: var(--color2, #0e2d6d)" d="M17.809 26.37h-14.007c-2.096-0.009-3.793-1.706-3.802-3.801v-11.907c0.009-2.096 1.706-3.793 3.801-3.802h14.008c2.096 0.009 3.793 1.706 3.802 3.801v11.895c-0.002 2.102-1.701 3.806-3.801 3.815zM3.802 7.48c-1.746 0.009-3.159 1.422-3.168 3.167v11.907c0.009 1.746 1.422 3.159 3.167 3.168h14.008c1.746-0.009 3.159-1.422 3.168-3.167v-11.895c-0.009-1.746-1.422-3.159-3.167-3.168zM13.671 20.752h-5.703l0.903-4.911c-0.67-0.562-1.093-1.399-1.093-2.335 0-1.68 1.362-3.042 3.042-3.042s3.042 1.362 3.042 3.042c0 0.936-0.423 1.774-1.088 2.332zM8.716 20.119h4.192l-0.843-4.559 0.162-0.117c0.605-0.443 0.993-1.15 0.993-1.949 0-1.33-1.078-2.408-2.408-2.408s-2.408 1.078-2.408 2.408c0 0.798 0.388 1.506 0.986 1.944l0.168 0.122z"></path>
<path fill="#ede5da" style="fill: var(--color1, #ede5da)" d="M17.673 28.011h-10.101l-2.101-2.101 2.886-2.623 0.789 1.049 1.312-1.312 1.312 1.312 1.575-1.312 1.312 1.312 1.575-1.312 1.331 1.099z"></path>
<path fill="#0e2d6d" style="fill: var(--color2, #0e2d6d)" d="M17.673 28.328h-10.234l-2.427-2.427 3.39-3.083 0.779 1.036 1.277-1.277 1.331 1.331 1.575-1.312 1.312 1.312 1.552-1.296 1.537 1.267-0.406 0.491-1.128-0.935-1.594 1.331-1.315-1.312-1.572 1.312-1.293-1.293-1.347 1.347-0.798-1.065-2.383 2.167 1.771 1.771h9.971v0.634z"></path>
<path fill="#ede5da" style="fill: var(--color1, #ede5da)" d="M28.832 25.91c0 3.188-2.584 5.773-5.773 5.773s-5.773-2.584-5.773-5.773c0-3.186 2.581-5.769 5.766-5.773 0.002 0 0.004 0 0.007 0 3.188 0 5.773 2.584 5.773 5.773zM24.364 23.813c-1.158 0-2.097 0.939-2.097 2.097s0.939 2.097 2.097 2.097c1.158 0 2.097-0.939 2.097-2.097s-0.939-2.097-2.097-2.097z"></path>
<path fill="#0e2d6d" style="fill: var(--color2, #0e2d6d)" d="M23.053 32c-3.36-0.004-6.083-2.729-6.083-6.090 0-3.363 2.726-6.090 6.090-6.090s6.090 2.726 6.090 6.090c-0.004 3.364-2.731 6.090-6.096 6.090 0 0 0 0 0 0zM23.053 20.455c-3.010 0.004-5.45 2.445-5.45 5.456 0 3.013 2.443 5.456 5.456 5.456s5.456-2.443 5.456-5.456c-0.004-3.014-2.448-5.456-5.462-5.456 0 0 0 0 0 0zM24.364 28.328c-1.332-0.002-2.411-1.082-2.411-2.414 0-1.333 1.081-2.414 2.414-2.414s2.414 1.081 2.414 2.414c-0.002 1.334-1.083 2.414-2.417 2.414 0 0 0 0 0 0zM24.364 24.13c-0.982 0.002-1.777 0.798-1.777 1.781 0 0.983 0.797 1.781 1.781 1.781 0.982 0 1.779-0.795 1.781-1.777 0-0.985-0.799-1.784-1.784-1.784z"></path>
</symbol>
<symbol id="icon-success" viewBox="0 0 34 32">
<title>success</title>
<path fill="#ede5da" style="fill: var(--color1, #ede5da)" d="M28.909 6.689h3.854v18.405h-3.854v-18.405z"></path>
<path fill="#0e2d6d" style="fill: var(--color2, #0e2d6d)" d="M33.079 25.413h-4.486v-19.041h4.486zM29.225 24.78h3.221v-17.775h-3.221z"></path>
<path fill="#c0ac8e" style="fill: var(--color3, #c0ac8e)" d="M21.844 13.371h3.854v11.726h-3.854v-11.726z"></path>
<path fill="#0e2d6d" style="fill: var(--color2, #0e2d6d)" d="M26.014 25.413h-4.499v-12.358h4.499zM22.148 24.78h3.234v-11.093h-3.234z"></path>
<path fill="#c0ac8e" style="fill: var(--color3, #c0ac8e)" d="M14.776 16.905h3.854v8.191h-3.854v-8.191z"></path>
<path fill="#0e2d6d" style="fill: var(--color2, #0e2d6d)" d="M18.946 25.413h-4.486v-8.824h4.486zM15.092 24.78h3.221v-7.559h-3.221z"></path>
<path fill="#c0ac8e" style="fill: var(--color3, #c0ac8e)" d="M7.71 19.955h3.854v5.138h-3.854v-5.138z"></path>
<path fill="#0e2d6d" style="fill: var(--color2, #0e2d6d)" d="M11.881 25.413h-4.486v-5.774h4.486zM8.027 24.78h3.221v-4.509h-3.221z"></path>
<path fill="#0e2d6d" style="fill: var(--color2, #0e2d6d)" d="M28.45 4.537l-0.607-3.813-3.813 0.604-0.098-0.623 4.436-0.706 0.706 4.436-0.623 0.101z"></path>
<path fill="#0e2d6d" style="fill: var(--color2, #0e2d6d)" d="M6.945 17.379l-0.076-0.633c0.092-0.009 10.593-1.462 20.974-16.563l0.522 0.358c-10.558 15.361-20.983 16.785-21.42 16.838z"></path>
<path fill="#0e2d6d" style="fill: var(--color2, #0e2d6d)" d="M0 27.026h33.753v0.633h-33.753v-0.633z"></path>
<path fill="#0e2d6d" style="fill: var(--color2, #0e2d6d)" d="M4.18 2.129h0.633v29.874h-0.633v-29.874z"></path>
</symbol>
<symbol id="icon-team" viewBox="0 0 44 32">
<title>team</title>
<path fill="#c0ac8e" style="fill: var(--color3, #c0ac8e)" d="M26.711 14.551h-0.452c-0.020 0.001-0.044 0.001-0.067 0.001-0.962 0-1.741-0.78-1.741-1.741 0-0.024 0-0.047 0.001-0.071l-0-4.464c0-1.788 3.278-2.711 4.973-2.711s4.973 0.922 4.973 2.711v4.467c0.001 0.020 0.001 0.044 0.001 0.067 0 0.962-0.78 1.741-1.741 1.741-0.024 0-0.047-0-0.071-0.001l-0.448 0z"></path>
<path fill="#0e2d6d" style="fill: var(--color2, #0e2d6d)" d="M32.587 14.864h-0.452v-0.627h0.452c0.019 0.001 0.042 0.001 0.064 0.001 0.79 0 1.431-0.64 1.431-1.431 0-0.023-0.001-0.045-0.002-0.067l0-4.464c0-1.487-3.015-2.397-4.659-2.397s-4.659 0.91-4.659 2.397v4.467c-0.001 0.019-0.001 0.042-0.001 0.064 0 0.79 0.64 1.431 1.431 1.431 0.023 0 0.045-0.001 0.067-0.002l0.449 0v0.627h-0.449c-0.021 0.001-0.046 0.001-0.070 0.001-1.133 0-2.052-0.919-2.052-2.052 0-0.025 0-0.049 0.001-0.074l-0-4.464c0-2.014 3.388-3.024 5.286-3.024s5.286 1.010 5.286 3.024v4.467c0.001 0.021 0.001 0.046 0.001 0.070 0 1.133-0.919 2.052-2.052 2.052-0.026 0-0.051-0-0.077-0.001z"></path>
<path fill="#c0ac8e" style="fill: var(--color3, #c0ac8e)" d="M29.421 5.694c1.252-0.005 2.265-1.022 2.265-2.275 0-0.011-0-0.022-0-0.033l0-0.767c0.001-0.025 0.002-0.055 0.002-0.084 0-1.249-1.013-2.262-2.262-2.262s-2.262 1.013-2.262 2.262c0 0.030 0.001 0.059 0.002 0.088l-0 0.764c-0 0.009-0 0.020-0 0.031 0 1.25 1.008 2.264 2.255 2.274z"></path>
<path fill="#0e2d6d" style="fill: var(--color2, #0e2d6d)" d="M29.421 6.008c-1.424-0.016-2.573-1.174-2.573-2.601 0-0.007 0-0.013 0-0.020v-0.768c-0.001-0.027-0.002-0.058-0.002-0.090 0-1.423 1.153-2.576 2.576-2.576s2.576 1.153 2.576 2.576c0 0.032-0.001 0.063-0.002 0.094l0 0.764c0 0.006 0 0.012 0 0.019 0 1.428-1.15 2.587-2.574 2.601zM29.421 0.627c-1.078 0.016-1.945 0.893-1.945 1.973 0 0.007 0 0.013 0 0.020v0.768c-0.001 0.023-0.002 0.051-0.002 0.078 0 1.076 0.872 1.948 1.948 1.948s1.948-0.872 1.948-1.948c0-0.027-0.001-0.055-0.002-0.082l0-0.765c0-0.006 0-0.012 0-0.019 0-1.081-0.869-1.959-1.947-1.973z"></path>
<path fill="#c0ac8e" style="fill: var(--color3, #c0ac8e)" d="M26.711 10.086v7.231h5.424v-7.231z"></path>
<path fill="#0e2d6d" style="fill: var(--color2, #0e2d6d)" d="M32.449 17.631h-6.052v-7.545h0.627v6.918h4.797v-6.918h0.627v7.545z"></path>
<path fill="#c0ac8e" style="fill: var(--color3, #c0ac8e)" d="M11.583 14.551h-0.452c-0.020 0.001-0.044 0.001-0.067 0.001-0.962 0-1.741-0.78-1.741-1.741 0-0.024 0-0.047 0.001-0.071l-0-4.464c0-1.788 3.278-2.711 4.973-2.711s4.973 0.922 4.973 2.711v4.467c0.001 0.020 0.001 0.044 0.001 0.067 0 0.962-0.78 1.741-1.741 1.741-0.024 0-0.047-0-0.071-0.001l-0.452 0z"></path>
<path fill="#0e2d6d" style="fill: var(--color2, #0e2d6d)" d="M17.459 14.864h-0.452v-0.627h0.452c0.019 0.001 0.042 0.001 0.064 0.001 0.79 0 1.431-0.64 1.431-1.431 0-0.023-0.001-0.045-0.002-0.067l0-4.464c0-1.487-3.015-2.397-4.659-2.397s-4.659 0.91-4.659 2.397v4.467c-0.001 0.019-0.001 0.042-0.001 0.064 0 0.79 0.64 1.431 1.431 1.431 0.023 0 0.045-0.001 0.067-0.002l0.449 0v0.627h-0.449c-0.021 0.001-0.046 0.001-0.070 0.001-1.133 0-2.052-0.919-2.052-2.052 0-0.025 0-0.049 0.001-0.074l-0-4.464c0-2.014 3.388-3.024 5.286-3.024s5.286 1.023 5.286 3.024v4.467c0.001 0.021 0.001 0.046 0.001 0.070 0 1.133-0.919 2.052-2.052 2.052-0.026 0-0.052-0-0.077-0.001z"></path>
<path fill="#c0ac8e" style="fill: var(--color3, #c0ac8e)" d="M14.296 5.694c1.249-0.009 2.259-1.024 2.259-2.274 0-0.011-0-0.022-0-0.033l0-0.767c0.001-0.025 0.002-0.055 0.002-0.084 0-1.249-1.013-2.262-2.262-2.262s-2.262 1.013-2.262 2.262c0 0.030 0.001 0.059 0.002 0.088l-0 0.764c-0 0.009-0 0.020-0 0.031 0 1.252 1.011 2.267 2.261 2.274z"></path>
<path fill="#0e2d6d" style="fill: var(--color2, #0e2d6d)" d="M14.296 6.008c-1.424-0.016-2.573-1.174-2.573-2.601 0-0.007 0-0.013 0-0.020v-0.768c-0.001-0.027-0.002-0.058-0.002-0.090 0-1.423 1.153-2.576 2.576-2.576s2.576 1.153 2.576 2.576c0 0.032-0.001 0.063-0.002 0.094l0 0.764c0 0.006 0 0.012 0 0.019 0 1.428-1.15 2.587-2.574 2.601zM14.296 0.627c-1.078 0.016-1.945 0.893-1.945 1.973 0 0.007 0 0.013 0 0.020v0.768c-0.001 0.023-0.002 0.051-0.002 0.078 0 1.076 0.872 1.948 1.948 1.948s1.948-0.872 1.948-1.948c0-0.027-0.001-0.055-0.002-0.082l0-0.765c0-0.006 0-0.012 0-0.019 0-1.081-0.869-1.959-1.947-1.973z"></path>
<path fill="#c0ac8e" style="fill: var(--color3, #c0ac8e)" d="M11.583 10.086v7.231h5.424v-7.231z"></path>
<path fill="#0e2d6d" style="fill: var(--color2, #0e2d6d)" d="M17.321 17.631h-6.052v-7.545h0.627v6.918h4.797v-6.918h0.627v7.545z"></path>
<path fill="#ede5da" style="fill: var(--color1, #ede5da)" d="M32.198 25.882h-0.659c-0.029 0.001-0.062 0.002-0.096 0.002-1.403 0-2.541-1.138-2.541-2.541 0-0.034 0.001-0.067 0.002-0.101l-0-6.511c0-2.607 4.781-3.956 7.25-3.956s7.25 1.343 7.25 3.956v6.513c0.001 0.029 0.002 0.062 0.002 0.096 0 1.403-1.138 2.541-2.541 2.541-0.034 0-0.067-0.001-0.101-0.002l-0.654 0z"></path>
<path fill="#0e2d6d" style="fill: var(--color2, #0e2d6d)" d="M40.769 26.196h-0.659v-0.627h0.659c0.031 0.002 0.067 0.002 0.103 0.002 1.227 0 2.221-0.994 2.221-2.221 0-0.036-0.001-0.072-0.003-0.108l0-6.511c0-2.356-4.584-3.642-6.936-3.642s-6.936 1.286-6.936 3.642v6.513c-0.002 0.031-0.002 0.067-0.002 0.103 0 1.227 0.994 2.221 2.221 2.221 0.036 0 0.072-0.001 0.108-0.003l0.654 0v0.627h-0.659c-0.029 0.001-0.062 0.002-0.096 0.002-1.577 0-2.855-1.278-2.855-2.855 0-0.034 0.001-0.067 0.002-0.101l-0-6.508c0-1.289 0.998-2.409 2.886-3.244 1.376-0.609 2.978-0.982 4.661-1.026 2.73-0 7.58 1.427 7.58 4.269v6.513c0.001 0.029 0.002 0.064 0.002 0.099 0 1.577-1.278 2.855-2.855 2.855-0.034 0-0.067-0.001-0.101-0.002z"></path>
<path fill="#ede5da" style="fill: var(--color1, #ede5da)" d="M36.154 12.966c1.823-0.011 3.298-1.491 3.298-3.316 0-0.017-0-0.033-0-0.050l0-1.13c0.002-0.043 0.003-0.093 0.003-0.144 0-1.821-1.476-3.297-3.297-3.297s-3.297 1.476-3.297 3.297c0 0.051 0.001 0.101 0.003 0.151l-0 1.116c-0 0.017-0 0.037-0 0.057 0 1.823 1.471 3.302 3.29 3.316z"></path>
<path fill="#0e2d6d" style="fill: var(--color2, #0e2d6d)" d="M36.154 13.28c-1.999-0.021-3.611-1.647-3.611-3.648 0-0.010 0-0.020 0-0.030v-1.131c-0.002-0.045-0.003-0.098-0.003-0.15 0-1.994 1.617-3.611 3.611-3.611s3.611 1.617 3.611 3.611c0 0.053-0.001 0.106-0.003 0.158l0 1.116c0 0.011 0 0.025 0 0.038 0 2-1.609 3.624-3.603 3.648zM36.154 5.437c-1.652 0.021-2.984 1.366-2.984 3.021 0 0.005 0 0.009 0 0.013v1.122c-0.002 0.041-0.003 0.089-0.003 0.137 0 1.648 1.336 2.984 2.984 2.984s2.984-1.336 2.984-2.984c0-0.048-0.001-0.096-0.003-0.143l0-1.116c0-0.006 0-0.012 0-0.019 0-1.653-1.328-2.996-2.975-3.021z"></path>
<path fill="#ede5da" style="fill: var(--color1, #ede5da)" d="M32.198 19.369v10.544h7.912v-10.544z"></path>
<path fill="#0e2d6d" style="fill: var(--color2, #0e2d6d)" d="M40.424 30.227h-8.54v-10.858h0.627v10.231h7.285v-10.231h0.627v10.858z"></path>
<path fill="#ede5da" style="fill: var(--color1, #ede5da)" d="M3.611 25.882h-0.662c-0.029 0.001-0.062 0.002-0.096 0.002-1.403 0-2.541-1.138-2.541-2.541 0-0.035 0.001-0.070 0.002-0.104l-0-6.508c0-2.613 4.781-3.953 7.25-3.953s7.25 1.34 7.25 3.953v6.513c0.001 0.029 0.002 0.062 0.002 0.096 0 1.403-1.138 2.541-2.541 2.541-0.034 0-0.067-0.001-0.101-0.002l-0.654 0z"></path>
<path fill="#0e2d6d" style="fill: var(--color2, #0e2d6d)" d="M12.179 26.196h-0.659v-0.627h0.659c0.031 0.002 0.067 0.002 0.103 0.002 1.227 0 2.221-0.994 2.221-2.221 0-0.036-0.001-0.072-0.003-0.108l0-6.511c0-2.356-4.584-3.642-6.936-3.642s-6.936 1.286-6.936 3.642v6.513c-0.001 0.031-0.002 0.067-0.002 0.103 0 1.227 0.994 2.221 2.221 2.221 0.036 0 0.072-0.001 0.108-0.003l0.654 0v0.627h-0.659c-0.029 0.001-0.062 0.002-0.096 0.002-1.577 0-2.855-1.278-2.855-2.855 0-0.034 0.001-0.067 0.002-0.101l-0-6.508c0-1.289 0.998-2.409 2.886-3.241 1.376-0.609 2.978-0.982 4.661-1.026 2.73-0 7.58 1.427 7.58 4.269v6.51c0.001 0.029 0.002 0.064 0.002 0.099 0 1.577-1.278 2.855-2.855 2.855-0.034 0-0.067-0.001-0.101-0.002z"></path>
<path fill="#ede5da" style="fill: var(--color1, #ede5da)" d="M7.564 12.966c1.823-0.011 3.298-1.491 3.298-3.316 0-0.017-0-0.033-0-0.050l0-1.13c0.002-0.043 0.003-0.093 0.003-0.144 0-1.821-1.476-3.297-3.297-3.297s-3.297 1.476-3.297 3.297c0 0.051 0.001 0.101 0.003 0.151l-0 1.116c-0 0.017-0 0.037-0 0.057 0 1.823 1.471 3.302 3.29 3.316z"></path>
<path fill="#0e2d6d" style="fill: var(--color2, #0e2d6d)" d="M7.564 13.28c-1.997-0.023-3.608-1.648-3.608-3.648 0-0.010 0-0.020 0-0.030v-1.131c-0-0.006-0-0.012-0-0.019 0-2.001 1.61-3.625 3.606-3.648 2.001 0.021 3.613 1.647 3.613 3.648 0 0.007-0 0.013-0 0.020v1.122c0 0.011 0 0.025 0 0.038 0 2.002-1.612 3.627-3.609 3.648zM7.564 5.437c-1.651 0.023-2.98 1.367-2.98 3.021 0 0.005 0 0.009 0 0.014v1.122c-0.002 0.041-0.003 0.089-0.003 0.137 0 1.648 1.336 2.984 2.984 2.984s2.984-1.336 2.984-2.984c0-0.048-0.001-0.096-0.003-0.143l0-1.116c0-0.006 0-0.012 0-0.019 0-1.654-1.329-2.998-2.978-3.021z"></path>
<path fill="#ede5da" style="fill: var(--color1, #ede5da)" d="M3.611 19.369v10.544h7.909v-10.544z"></path>
<path fill="#0e2d6d" style="fill: var(--color2, #0e2d6d)" d="M11.834 30.227h-8.536v-10.858h0.627v10.231h7.282v-10.231h0.627v10.858z"></path>
<path fill="#ede5da" style="fill: var(--color1, #ede5da)" d="M17.34 27.078h-0.753c-0.033 0.001-0.073 0.002-0.112 0.002-1.604 0-2.905-1.301-2.905-2.905 0-0.039 0.001-0.079 0.002-0.118l-0-7.43c0-2.98 5.465-4.521 8.286-4.521s8.289 1.531 8.289 4.521v7.435c0.001 0.033 0.002 0.073 0.002 0.112 0 1.604-1.301 2.905-2.905 2.905-0.039 0-0.079-0.001-0.118-0.002l-0.747 0z"></path>
<path fill="#0e2d6d" style="fill: var(--color2, #0e2d6d)" d="M27.134 27.391h-0.753v-0.627h0.753c0.035 0.002 0.077 0.003 0.119 0.003 1.426 0 2.582-1.156 2.582-2.582 0-0.043-0.001-0.086-0.003-0.128l0-7.429c0-2.72-5.267-4.207-7.972-4.207s-7.975 1.478-7.975 4.207v7.435c-0.002 0.036-0.003 0.079-0.003 0.122 0 1.426 1.156 2.582 2.582 2.582 0.042 0 0.083-0.001 0.125-0.003l0.747 0v0.627h-0.753c-0.032 0.001-0.070 0.002-0.109 0.002-1.778 0-3.219-1.441-3.219-3.219 0-0.039 0.001-0.078 0.002-0.117l-0-7.43c0-1.456 1.133-2.723 3.272-3.664 1.569-0.695 3.395-1.121 5.315-1.17 1.956 0.049 3.782 0.475 5.444 1.206 2.048 0.905 3.18 2.16 3.18 3.628v7.435c0.001 0.033 0.002 0.073 0.002 0.112 0 1.778-1.441 3.219-3.219 3.219-0.041 0-0.083-0.001-0.124-0.002z"></path>
<path fill="#ede5da" style="fill: var(--color1, #ede5da)" d="M21.86 12.317c2.082-0.014 3.765-1.705 3.765-3.79 0-0.020-0-0.040-0-0.060l0-1.277c0-2.079-1.686-3.765-3.765-3.765s-3.765 1.686-3.765 3.765v1.28c-0 0.017-0 0.037-0 0.057 0 2.084 1.683 3.776 3.764 3.79z"></path>
<path fill="#0e2d6d" style="fill: var(--color2, #0e2d6d)" d="M21.86 12.631c-2.26-0.025-4.082-1.862-4.082-4.125 0-0.012 0-0.024 0-0.037v-1.278c0-2.252 1.826-4.078 4.078-4.078s4.078 1.826 4.078 4.078v1.28c0 0.010 0 0.023 0 0.035 0 2.261-1.819 4.097-4.073 4.125zM21.86 3.661c-1.911 0.025-3.451 1.58-3.451 3.495 0 0.012 0 0.024 0 0.037v1.278c0 1.906 1.545 3.451 3.451 3.451s3.451-1.545 3.451-3.451v-1.28c0-0.010 0-0.023 0-0.035 0-1.915-1.54-3.47-3.449-3.495z"></path>
<path fill="#ede5da" style="fill: var(--color1, #ede5da)" d="M17.34 19.633v12.053h9.038v-12.053z"></path>
<path fill="#0e2d6d" style="fill: var(--color2, #0e2d6d)" d="M26.692 32h-9.666v-12.367h0.627v11.74h8.411v-11.74h0.627v12.367z"></path>
</symbol>
<symbol id="icon-estate" viewBox="0 0 33 32">
<title>estate</title>
<path fill="#c0ac8e" style="fill: var(--color3, #c0ac8e)" d="M0.316 28.286h32.451v3.398h-32.451v-3.398z"></path>
<path fill="#0e2d6d" style="fill: var(--color2, #0e2d6d)" d="M33.082 32h-33.082v-4.030h33.082zM0.631 31.369h31.82v-2.767h-31.82z"></path>
<path fill="#ede5da" style="fill: var(--color1, #ede5da)" d="M1.862 12.275v16.011h29.359v-16.011z"></path>
<path fill="#0e2d6d" style="fill: var(--color2, #0e2d6d)" d="M31.536 28.602h-29.99v-16.327h0.631v15.695h28.728v-15.695h0.631v16.327z"></path>
<path fill="#c0ac8e" style="fill: var(--color3, #c0ac8e)" d="M4.512 5.26h0.091v7.482c0 1.074-0.87 1.944-1.944 1.944h-0.091c-1.071-0.004-1.937-0.872-1.937-1.944 0 0 0 0 0 0v-3.591c0-0.001 0-0.002 0-0.003 0-2.145 1.737-3.884 3.881-3.888z"></path>
<path fill="#0e2d6d" style="fill: var(--color2, #0e2d6d)" d="M2.66 15.001h-0.091c-1.244-0.005-2.251-1.014-2.253-2.259v-3.591c0.002-2.319 1.879-4.199 4.196-4.206h0.408v7.797c-0.002 1.247-1.012 2.258-2.259 2.259zM4.288 5.582c-1.871 0.128-3.341 1.677-3.342 3.569v3.591c0.002 0.899 0.73 1.626 1.628 1.628h0.092c0.899-0.002 1.626-0.73 1.628-1.628z"></path>
<path fill="#ede5da" style="fill: var(--color1, #ede5da)" d="M4.604 5.26h3.979v7.482c0 0 0 0 0 0 0 1.074-0.87 1.944-1.944 1.944-0.004 0-0.009 0-0.013-0h-0.091c-1.074 0-1.944-0.87-1.944-1.944v-7.482z"></path>
<path fill="#0e2d6d" style="fill: var(--color2, #0e2d6d)" d="M6.627 15.001h-0.091c-1.247-0.002-2.258-1.012-2.259-2.259v-7.797h4.623v7.797c-0.002 1.248-1.014 2.259-2.263 2.259-0.003 0-0.007 0-0.010-0zM4.919 5.576v7.166c0.002 0.899 0.73 1.626 1.628 1.628h0.079c0.899-0.002 1.626-0.73 1.628-1.628v-7.166z"></path>
<path fill="#c0ac8e" style="fill: var(--color3, #c0ac8e)" d="M8.583 5.26h3.979v7.482c0 1.074-0.87 1.944-1.944 1.944h-0.091c-1.074 0-1.944-0.87-1.944-1.944v-7.482z"></path>
<path fill="#0e2d6d" style="fill: var(--color2, #0e2d6d)" d="M10.618 15.001h-0.091c-1.247-0.002-2.258-1.012-2.259-2.259v-7.797h4.61v7.797c-0.002 1.247-1.012 2.258-2.259 2.259zM8.899 5.576v7.166c0.002 0.899 0.73 1.626 1.628 1.628h0.092c0.899-0.002 1.626-0.73 1.628-1.628v-7.166z"></path>
<path fill="#ede5da" style="fill: var(--color1, #ede5da)" d="M12.562 5.26h3.979v7.482c0 1.074-0.87 1.944-1.944 1.944h-0.082c-1.074 0-1.944-0.87-1.944-1.944v-7.482z"></path>
<path fill="#0e2d6d" style="fill: var(--color2, #0e2d6d)" d="M14.597 15.001h-0.082c-1.247-0.002-2.258-1.012-2.259-2.259v-7.797h4.601v7.797c-0.002 1.247-1.012 2.258-2.259 2.259zM12.878 5.576v7.166c0.002 0.9 0.732 1.628 1.631 1.628 0.002 0 0.004 0 0.007 0h0.091c0.899-0.002 1.626-0.73 1.628-1.628v-7.166z"></path>
<path fill="#c0ac8e" style="fill: var(--color3, #c0ac8e)" d="M16.541 5.26h3.97v7.482c0 1.074-0.87 1.944-1.944 1.944h-0.091c-1.074 0-1.944-0.87-1.944-1.944v-7.482cz"></path>
<path fill="#0e2d6d" style="fill: var(--color2, #0e2d6d)" d="M18.576 15.001h-0.091c-1.247-0.002-2.258-1.012-2.259-2.259v-7.797h4.601v7.797c-0.002 1.244-1.007 2.252-2.249 2.259zM16.857 5.576v7.166c0.002 0.899 0.73 1.626 1.628 1.628h0.092c0.894-0.007 1.617-0.733 1.619-1.628v-7.166z"></path>
<path fill="#ede5da" style="fill: var(--color1, #ede5da)" d="M20.511 5.26h3.989v7.482c0 1.074-0.87 1.944-1.944 1.944h-0.091c-0.003 0-0.006 0-0.009 0-1.074 0-1.944-0.87-1.944-1.944 0 0 0-0 0-0v-7.482z"></path>
<path fill="#0e2d6d" style="fill: var(--color2, #0e2d6d)" d="M22.556 15.001h-0.091c-0.002 0-0.004 0-0.006 0-1.248 0-2.261-1.011-2.262-2.259v-7.797h4.62v7.797c-0.002 1.247-1.012 2.258-2.259 2.259zM20.826 5.576v7.166c0.002 0.899 0.73 1.626 1.628 1.628h0.092c0.899-0.002 1.626-0.73 1.628-1.628v-7.166z"></path>
<path fill="#c0ac8e" style="fill: var(--color3, #c0ac8e)" d="M24.499 5.26h3.979v7.482c0 1.074-0.87 1.944-1.944 1.944h-0.091c-1.074 0-1.944-0.87-1.944-1.944v-7.482z"></path>
<path fill="#0e2d6d" style="fill: var(--color2, #0e2d6d)" d="M26.535 15.001h-0.091c-1.247-0.002-2.258-1.012-2.259-2.259v-7.797h4.61v7.797c-0.002 1.247-1.012 2.258-2.259 2.259zM24.815 5.576v7.166c0.002 0.899 0.73 1.626 1.628 1.628h0.092c0.899-0.002 1.626-0.73 1.628-1.628v-7.166z"></path>
<path fill="#ede5da" style="fill: var(--color1, #ede5da)" d="M28.478 5.26h0.091c2.147 0 3.888 1.741 3.888 3.888 0 0.001 0 0.002 0 0.003v3.591c0 1.074-0.87 1.944-1.944 1.944h-0.091c-1.074 0-1.944-0.87-1.944-1.944v-7.482z"></path>
<path fill="#0e2d6d" style="fill: var(--color2, #0e2d6d)" d="M30.514 15.001h-0.091c-1.247-0.002-2.258-1.012-2.259-2.259v-7.797h0.407c2.321 0.004 4.201 1.885 4.203 4.206v3.591c-0.002 1.247-1.012 2.258-2.259 2.259zM28.794 5.582v7.16c0.002 0.899 0.73 1.626 1.628 1.628h0.092c0.899-0.002 1.626-0.73 1.628-1.628v-3.591c-0.001-1.894-1.474-3.444-3.337-3.568z"></path>
<path fill="#c0ac8e" style="fill: var(--color3, #c0ac8e)" d="M13.452 17.16h6.182v11.126h-6.182v-11.126z"></path>
<path fill="#0e2d6d" style="fill: var(--color2, #0e2d6d)" d="M19.946 28.602h-6.81v-11.757h6.81zM13.764 27.97h5.551v-10.495h-5.547z"></path>
<path fill="#c0ac8e" style="fill: var(--color3, #c0ac8e)" d="M4.332 17.314h6.182v7.419h-6.182v-7.419z"></path>
<path fill="#0e2d6d" style="fill: var(--color2, #0e2d6d)" d="M10.83 25.048h-6.813v-8.050h6.813zM4.648 24.417h5.551v-6.788h-5.551z"></path>
<path fill="#c0ac8e" style="fill: var(--color3, #c0ac8e)" d="M22.568 17.314h6.182v7.419h-6.182v-7.419z"></path>
<path fill="#0e2d6d" style="fill: var(--color2, #0e2d6d)" d="M29.065 25.048h-6.813v-8.050h6.813zM22.884 24.417h5.551v-6.788h-5.551z"></path>
<path fill="#c0ac8e" style="fill: var(--color3, #c0ac8e)" d="M12.988 0.316h7.106c2.731 0 4.945 2.214 4.945 4.945v0h-16.996c0-2.731 2.214-4.945 4.945-4.945z"></path>
<path fill="#0e2d6d" style="fill: var(--color2, #0e2d6d)" d="M25.355 5.576h-17.627v-0.316c0.004-2.904 2.357-5.257 5.26-5.26h7.107c2.904 0.004 5.257 2.357 5.26 5.26zM8.368 4.945h16.346c-0.173-2.416-2.175-4.311-4.619-4.314h-7.106c-2.445 0.002-4.446 1.897-4.619 4.299z"></path>
</symbol>
<symbol id="icon-stocks" viewBox="0 0 35 32">
<title>stocks</title>
<path fill="#0e2d6d" style="fill: var(--color2, #0e2d6d)" d="M0.81 18.825l-0.801-0.83 6.726-6.498 3.053 3.137 8.412-8.101 5.083 4.428 10.742-10.476 0.804 0.825-11.503 11.22-5.088-4.434-8.479 8.164-3.050-3.134-5.898 5.699z"></path>
<path fill="#0e2d6d" style="fill: var(--color2, #0e2d6d)" d="M28.399 0.187l0.026 1.156 5.682-0.138-0.277 5.679 1.153 0.055 0.337-6.916-6.922 0.164z"></path>
<path fill="#c0ac8e" style="fill: var(--color3, #c0ac8e)" d="M0.816 12.197l-0.816-0.816 5.8-5.8 2.975 2.975 8.032-8.032 3.866 3.866 3.915-3.912 0.816 0.813-4.731 4.731-3.866-3.869-8.032 8.035-2.975-2.975-4.984 4.985z"></path>
<path fill="#c0ac8e" style="fill: var(--color3, #c0ac8e)" d="M18.958 0.251l0.043 1.156 5.682-0.21-0.208 5.682 1.153 0.043 0.251-6.922-6.922 0.251z"></path>
<path fill="#ede5da" style="fill: var(--color1, #ede5da)" d="M20.163 31.037c-3.459 0-6.264-1.222-6.264-2.721 0-0.228 0.029-2.632 0.035-2.716 0.058-1.364 3.304-1.894 6.23-1.894 2.975 0 5.668 0.631 6.299 1.842 0 0-0.035 2.563-0.035 2.768 0 1.499-2.814 2.721-6.265 2.721z"></path>
<path fill="#0e2d6d" style="fill: var(--color2, #0e2d6d)" d="M20.163 31.325c-3.676 0-6.553-1.323-6.553-3.010 0-0.216 0.029-2.638 0.035-2.727 0.086-2.067 5.446-2.171 6.518-2.171 2.664 0 5.786 0.525 6.553 1.998l0.035 0.063v0.072s-0.035 2.56-0.035 2.765c0 1.689-2.877 3.010-6.553 3.010zM20.163 23.991c-3.405 0-5.904 0.68-5.942 1.62 0 0.104-0.035 2.505-0.035 2.704 0 1.176 2.401 2.433 5.976 2.433s5.976-1.26 5.976-2.433c0-0.184 0.026-2.266 0.032-2.695-0.588-0.974-2.981-1.626-6.008-1.626z"></path>
<path fill="#ede5da" style="fill: var(--color1, #ede5da)" d="M20.163 28.849c-3.459 0-6.264-1.222-6.264-2.721 0-0.228 0.029-2.632 0.035-2.716 0.058-1.364 3.304-1.894 6.23-1.894 2.975 0 5.668 0.631 6.299 1.842 0 0-0.035 2.563-0.035 2.768 0 1.499-2.814 2.721-6.265 2.721z"></path>
<path fill="#0e2d6d" style="fill: var(--color2, #0e2d6d)" d="M20.163 29.137c-3.676 0-6.553-1.323-6.553-3.010 0-0.216 0.029-2.638 0.035-2.727 0.086-2.067 5.446-2.171 6.518-2.171 2.664 0 5.786 0.525 6.553 1.998l0.035 0.063v0.061s-0.035 2.56-0.035 2.765c0 1.698-2.877 3.021-6.553 3.021zM20.163 21.803c-3.405 0-5.904 0.68-5.942 1.62 0 0.104-0.035 2.505-0.035 2.704 0 1.176 2.401 2.433 5.976 2.433s5.976-1.26 5.976-2.433c0-0.184 0.026-2.266 0.032-2.695-0.588-0.977-2.981-1.629-6.008-1.629z"></path>
<path fill="#ede5da" style="fill: var(--color1, #ede5da)" d="M20.163 26.661c-3.459 0-6.264-1.222-6.264-2.721 0-0.228 0.029-2.632 0.035-2.716 0.058-1.366 3.304-1.908 6.23-1.908 2.975 0 5.668 0.631 6.299 1.842 0 0-0.035 2.563-0.035 2.768 0 1.511-2.814 2.736-6.265 2.736z"></path>
<path fill="#0e2d6d" style="fill: var(--color2, #0e2d6d)" d="M20.163 26.946c-3.676 0-6.553-1.323-6.553-3.010 0-0.216 0.029-2.638 0.035-2.727 0.086-2.067 5.446-2.182 6.518-2.182 2.667 0 5.783 0.536 6.553 2.018l0.035 0.063v0.072s-0.035 2.56-0.035 2.765c0 1.681-2.877 3.001-6.553 3.001zM20.163 19.612c-3.405 0-5.904 0.68-5.942 1.62 0 0.104-0.035 2.505-0.035 2.704 0 1.176 2.401 2.433 5.976 2.433s5.976-1.257 5.976-2.442c0-0.184 0.026-2.266 0.032-2.695-0.588-0.966-2.981-1.629-6.008-1.629z"></path>
<path fill="#ede5da" style="fill: var(--color1, #ede5da)" d="M20.163 24.47c-3.459 0-6.264-1.222-6.264-2.721 0-0.228 0.029-2.632 0.035-2.716 0.058-1.364 3.304-1.894 6.23-1.894 2.975 0 5.668 0.631 6.299 1.842 0 0-0.035 2.563-0.035 2.768 0 1.499-2.814 2.721-6.265 2.721z"></path>
<path fill="#0e2d6d" style="fill: var(--color2, #0e2d6d)" d="M20.163 24.758c-3.676 0-6.553-1.323-6.553-3.010 0-0.216 0.029-2.638 0.035-2.727 0.086-2.067 5.446-2.171 6.518-2.171 2.664 0 5.786 0.525 6.553 1.998l0.035 0.063v0.072s-0.035 2.56-0.035 2.765c0 1.686-2.877 3.010-6.553 3.010zM20.163 17.424c-3.405 0-5.904 0.68-5.942 1.62 0 0.104-0.035 2.505-0.035 2.704 0 1.176 2.401 2.433 5.976 2.433s5.976-1.26 5.976-2.433c0-0.184 0.026-2.266 0.032-2.695-0.588-0.977-2.981-1.629-6.008-1.629z"></path>
<path fill="#ede5da" style="fill: var(--color1, #ede5da)" d="M20.163 22.282c-3.459 0-6.264-1.222-6.264-2.721 0-0.228 0.029-2.632 0.035-2.716 0.058-1.364 3.304-1.894 6.23-1.894 2.975 0 5.668 0.631 6.299 1.842 0 0-0.035 2.563-0.035 2.768 0 1.485-2.814 2.721-6.265 2.721z"></path>
<path fill="#0e2d6d" style="fill: var(--color2, #0e2d6d)" d="M20.163 22.57c-3.676 0-6.553-1.323-6.553-3.010 0-0.216 0.029-2.638 0.035-2.727 0.086-2.067 5.446-2.171 6.518-2.171 2.664 0 5.786 0.525 6.553 1.998l0.035 0.063v0.072s-0.035 2.56-0.035 2.765c0 1.686-2.877 3.010-6.553 3.010zM20.163 15.236c-3.405 0-5.904 0.68-5.942 1.62 0 0.104-0.035 2.505-0.035 2.704 0 1.176 2.401 2.433 5.976 2.433s5.976-1.26 5.976-2.433c0-0.184 0.026-2.266 0.032-2.695-0.588-0.977-2.981-1.629-6.008-1.629z"></path>
<path fill="#ede5da" style="fill: var(--color1, #ede5da)" d="M20.163 20.091c-3.459 0-6.264-1.222-6.264-2.721 0-0.228 0.029-2.632 0.035-2.716 0.058-1.364 3.304-1.894 6.23-1.894 2.975 0 5.668 0.631 6.299 1.842 0 0-0.035 2.563-0.035 2.768 0 1.499-2.814 2.721-6.265 2.721z"></path>
<path fill="#0e2d6d" style="fill: var(--color2, #0e2d6d)" d="M20.163 20.379c-3.676 0-6.553-1.323-6.553-3.010 0-0.216 0.029-2.638 0.035-2.727 0.086-2.067 5.446-2.171 6.518-2.171 2.664 0 5.786 0.525 6.553 1.998l0.035 0.063v0.072s-0.035 2.56-0.035 2.765c0 1.689-2.877 3.010-6.553 3.010zM20.163 13.045c-3.405 0-5.904 0.68-5.942 1.62 0 0.104-0.035 2.505-0.035 2.704 0 1.176 2.401 2.433 5.976 2.433s5.976-1.26 5.976-2.433c0-0.184 0.026-2.266 0.032-2.695-0.588-0.974-2.981-1.626-6.008-1.626z"></path>
<path fill="#ede5da" style="fill: var(--color1, #ede5da)" d="M20.163 17.903c-3.459 0-6.264-1.222-6.264-2.721 0-0.228 0.029-2.632 0.035-2.716 0.058-1.364 3.304-1.894 6.23-1.894 2.975 0 5.668 0.631 6.299 1.842 0 0-0.035 2.563-0.035 2.768 0 1.499-2.814 2.721-6.265 2.721z"></path>
<path fill="#0e2d6d" style="fill: var(--color2, #0e2d6d)" d="M20.163 18.191c-3.676 0-6.553-1.323-6.553-3.010 0-0.216 0.029-2.638 0.035-2.727 0.086-2.067 5.446-2.171 6.518-2.171 2.664 0 5.786 0.525 6.553 1.998l0.035 0.063v0.072s-0.035 2.56-0.035 2.765c0 1.686-2.877 3.010-6.553 3.010zM20.163 10.857c-3.405 0-5.904 0.68-5.942 1.62 0 0.104-0.035 2.505-0.035 2.704 0 1.176 2.401 2.433 5.976 2.433s5.976-1.26 5.976-2.433c0-0.184 0.026-2.266 0.032-2.695-0.588-0.977-2.981-1.629-6.008-1.629z"></path>
<path fill="#ede5da" style="fill: var(--color1, #ede5da)" d="M20.18 15.498c-3.459 0-6.264-1.222-6.264-2.721s2.805-2.721 6.264-2.721 6.265 1.222 6.265 2.721-2.805 2.721-6.264 2.721z"></path>
<path fill="#0e2d6d" style="fill: var(--color2, #0e2d6d)" d="M20.18 15.787c-3.676 0-6.553-1.323-6.553-3.010s2.877-3.010 6.553-3.010 6.553 1.323 6.553 3.010-2.877 3.010-6.553 3.010zM20.18 10.344c-3.575 0-5.976 1.26-5.976 2.433s2.401 2.433 5.976 2.433 5.976-1.26 5.976-2.433-2.401-2.433-5.976-2.433z"></path>
<path fill="#ede5da" style="fill: var(--color1, #ede5da)" d="M10.053 31.712c-3.459 0-6.264-1.222-6.264-2.721 0-0.228 0.029-2.632 0.035-2.716 0.058-1.364 3.304-1.894 6.23-1.894 2.975 0 5.668 0.631 6.299 1.842 0 0-0.035 2.563-0.035 2.768 0 1.499-2.814 2.721-6.264 2.721z"></path>
<path fill="#0e2d6d" style="fill: var(--color2, #0e2d6d)" d="M10.053 32c-3.676 0-6.553-1.323-6.553-3.010 0-0.21 0.029-2.632 0.035-2.727 0.087-2.067 5.446-2.171 6.518-2.171 2.664 0 5.786 0.525 6.553 1.998l0.035 0.063v0.081s-0.035 2.56-0.035 2.765c0 1.681-2.877 3.001-6.553 3.001zM10.053 24.666c-3.405 0-5.904 0.68-5.942 1.62 0 0.069-0.035 2.448-0.035 2.704 0 1.176 2.401 2.433 5.976 2.433s5.976-1.26 5.976-2.433c0-0.184 0.026-2.266 0.032-2.695-0.588-0.974-2.981-1.626-6.008-1.626z"></path>
<path fill="#ede5da" style="fill: var(--color1, #ede5da)" d="M10.053 29.524c-3.459 0-6.264-1.222-6.264-2.721 0-0.228 0.029-2.632 0.035-2.716 0.058-1.364 3.304-1.888 6.23-1.888 2.975 0 5.668 0.631 6.299 1.842 0 0-0.035 2.563-0.035 2.768 0 1.493-2.814 2.716-6.264 2.716z"></path>
<path fill="#0e2d6d" style="fill: var(--color2, #0e2d6d)" d="M10.053 29.812c-3.676 0-6.553-1.323-6.553-3.010 0-0.21 0.029-2.632 0.035-2.727 0.087-2.070 5.446-2.165 6.518-2.165 2.664 0 5.786 0.525 6.553 1.998l0.035 0.063v0.072s-0.035 2.551-0.035 2.768c0 1.678-2.877 3.001-6.553 3.001zM10.053 22.478c-3.405 0-5.904 0.68-5.942 1.62 0 0.069-0.035 2.448-0.035 2.704 0 1.176 2.401 2.433 5.976 2.433s5.976-1.271 5.976-2.424c0-0.184 0.026-2.266 0.032-2.695-0.588-0.986-2.981-1.629-6.008-1.629z"></path>
<path fill="#ede5da" style="fill: var(--color1, #ede5da)" d="M10.053 27.333c-3.459 0-6.264-1.222-6.264-2.721 0-0.228 0.029-2.632 0.035-2.716 0.058-1.364 3.304-1.894 6.23-1.894 2.975 0 5.668 0.631 6.299 1.842 0 0-0.035 2.563-0.035 2.768 0 1.499-2.814 2.721-6.264 2.721z"></path>
<path fill="#0e2d6d" style="fill: var(--color2, #0e2d6d)" d="M10.053 27.621c-3.676 0-6.553-1.323-6.553-3.010 0-0.21 0.029-2.632 0.035-2.727 0.087-2.067 5.446-2.171 6.518-2.171 2.664 0 5.786 0.525 6.553 1.998l0.035 0.063v0.072s-0.035 2.56-0.035 2.765c0 1.689-2.877 3.010-6.553 3.010zM10.053 20.287c-3.405 0-5.904 0.68-5.942 1.62 0 0.069-0.035 2.448-0.035 2.704 0 1.176 2.401 2.433 5.976 2.433s5.976-1.257 5.976-2.433c0-0.184 0.026-2.266 0.032-2.695-0.588-0.974-2.981-1.626-6.008-1.626z"></path>
<path fill="#ede5da" style="fill: var(--color1, #ede5da)" d="M10.070 24.931c-3.439 0-6.264-1.222-6.264-2.733s2.825-2.713 6.264-2.713 6.264 1.225 6.264 2.713-2.814 2.733-6.264 2.733z"></path>
<path fill="#0e2d6d" style="fill: var(--color2, #0e2d6d)" d="M10.070 25.219c-3.673 0-6.553-1.323-6.553-3.021s2.883-3.010 6.553-3.010 6.553 1.332 6.553 3.010-2.877 3.021-6.553 3.021zM10.070 19.777c-3.575-0.003-5.976 1.268-5.976 2.422s2.401 2.433 5.976 2.433 5.976-1.248 5.976-2.433-2.401-2.424-5.976-2.424z"></path>
</symbol>
<symbol id="icon-money" viewBox="0 0 28 32">
<title>money</title>
<path fill="#c0ac8e" style="fill: var(--color3, #c0ac8e)" d="M12.922 6.491h7.482c0.525 0 0.951 0.426 0.951 0.951v0.869c0 0.525-0.426 0.951-0.951 0.951h-7.482c-0.525 0-0.951-0.426-0.951-0.951v-0.869c0-0.525 0.426-0.951 0.951-0.951z"></path>
<path fill="#0e2d6d" style="fill: var(--color2, #0e2d6d)" d="M20.392 9.575h-7.47c-0.693 0-1.255-0.562-1.255-1.255v-0.878c0-0.693 0.562-1.255 1.255-1.255h7.47c0.693 0 1.255 0.562 1.255 1.255v0.869c0 0.003 0 0.006 0 0.009 0 0.693-0.562 1.255-1.255 1.255 0 0-0 0-0 0zM12.922 6.805c-0.347 0-0.627 0.281-0.627 0.627v0.869c0 0.347 0.281 0.627 0.627 0.627h7.47c0.347 0 0.627-0.281 0.627-0.627v-0.86c0-0.347-0.281-0.627-0.627-0.627z"></path>
<path fill="#c0ac8e" style="fill: var(--color3, #c0ac8e)" d="M27.181 26.146c-0.242-0.924-0.382-1.985-0.382-3.079 0-0.352 0.014-0.7 0.043-1.045l-0.257-4.3c0.198-2.45-0.803-4.86-2.761-6.654-0.749-0.682-1.61-1.26-2.547-1.702l-0.129-0.027h-8.649c-1.001 0.468-1.861 1.047-2.619 1.736-1.949 1.787-2.95 4.196-2.752 6.647l-0.254 4.345c0.025 0.299 0.040 0.648 0.040 0.999 0 1.094-0.139 2.155-0.401 3.167l-0.417 1.65c-0.013 0.052-0.020 0.112-0.020 0.174 0 0.247 0.116 0.468 0.297 0.609 0.19 0.154 0.432 0.246 0.696 0.246 0.088 0 0.173-0.010 0.255-0.029l1.665-0.334c1.219-0.265 2.619-0.417 4.055-0.417 0.008 0 0.016 0 0.025 0h7.591c0.007 0 0.015 0 0.023 0 1.436 0 2.836 0.152 4.186 0.441l1.557 0.328c0.074 0.018 0.16 0.028 0.247 0.028 0.264 0 0.506-0.092 0.696-0.246 0.181-0.141 0.297-0.361 0.297-0.608 0-0.062-0.007-0.122-0.021-0.179z"></path>
<path fill="#0e2d6d" style="fill: var(--color2, #0e2d6d)" d="M7.062 29.224c-0.003 0-0.007 0-0.010 0-0.335 0-0.643-0.118-0.883-0.316-0.25-0.199-0.41-0.506-0.41-0.851 0-0.089 0.011-0.176 0.031-0.259l0.435-1.731c0.236-0.901 0.372-1.936 0.372-3.002 0-0.346-0.014-0.688-0.042-1.027l0.003 0.022 0.254-4.348c-0.011-0.161-0.017-0.348-0.017-0.537 0-2.532 1.111-4.805 2.872-6.357 0.781-0.711 1.667-1.308 2.633-1.763l0.134-0.059h8.847l0.069 0.031c1.031 0.482 1.917 1.079 2.697 1.79 1.762 1.553 2.873 3.825 2.873 6.357 0 0.189-0.006 0.377-0.018 0.562l0.255 4.323v0.022c-0.025 0.294-0.039 0.637-0.039 0.983 0 1.066 0.136 2.1 0.391 3.087l0.414 1.656c0.019 0.076 0.029 0.162 0.029 0.251 0 0.345-0.16 0.652-0.41 0.851-0.243 0.198-0.554 0.316-0.893 0.316-0.107 0-0.211-0.012-0.311-0.034l-1.678-0.353c-1.201-0.261-2.581-0.411-3.995-0.411-0.002 0-0.003 0-0.005 0h-7.604c-0.001 0-0.003 0-0.005 0-1.415 0-2.794 0.15-4.124 0.434l-1.559 0.328c-0.091 0.020-0.195 0.031-0.302 0.031-0.001 0-0.001 0-0.002 0zM7.187 22.058c0.025 0.302 0.039 0.654 0.039 1.009 0 1.12-0.143 2.207-0.41 3.244l-0.416 1.651c-0.006 0.027-0.009 0.058-0.009 0.089 0 0.156 0.077 0.294 0.196 0.377 0.135 0.106 0.306 0.17 0.492 0.17 0.061 0 0.12-0.007 0.176-0.020l1.67-0.344c1.239-0.269 2.662-0.424 4.121-0.424 0.003 0 0.006 0 0.008 0h7.604c0.001 0 0.003 0 0.005 0 1.459 0 2.882 0.154 4.253 0.447l1.561 0.321c0.051 0.012 0.11 0.019 0.171 0.019 0.186 0 0.357-0.064 0.493-0.17 0.112-0.084 0.184-0.218 0.184-0.369 0-0.034-0.004-0.068-0.011-0.1l-0.436-1.735c-0.248-0.947-0.391-2.034-0.391-3.154 0-0.355 0.014-0.707 0.042-1.055l-0.257-4.299v-0.022c0.010-0.149 0.016-0.322 0.016-0.497 0-2.35-1.033-4.458-2.67-5.896-0.715-0.651-1.524-1.2-2.405-1.622l-8.665-0.026c-0.937 0.45-1.743 0.998-2.455 1.648-1.636 1.438-2.668 3.545-2.668 5.894 0 0.175 0.006 0.348 0.017 0.52l-0.001-0.001z"></path>
<path fill="#c0ac8e" style="fill: var(--color3, #c0ac8e)" d="M13.252 6.419h7.454l0.173-0.514 0.681-2.027c0.101-0.295 0.16-0.635 0.16-0.988 0-0.866-0.351-1.651-0.919-2.218l-0.038-0.044c-0.197-0.197-0.469-0.319-0.77-0.319s-0.573 0.122-0.77 0.319c-0.197 0.197-0.469 0.319-0.77 0.319s-0.573-0.122-0.77-0.319c-0.197-0.197-0.469-0.319-0.77-0.319s-0.573 0.122-0.77 0.319c-0.197 0.197-0.469 0.319-0.77 0.319s-0.573-0.122-0.77-0.319c-0.197-0.197-0.469-0.319-0.77-0.319s-0.573 0.122-0.77 0.319c-0.565 0.567-0.914 1.35-0.914 2.214 0 0.382 0.068 0.748 0.193 1.087z"></path>
<path fill="#0e2d6d" style="fill: var(--color2, #0e2d6d)" d="M20.925 6.733h-7.893l-0.988-2.714c-0.13-0.349-0.205-0.752-0.205-1.173 0-0.95 0.384-1.811 1.006-2.435 0.254-0.254 0.604-0.41 0.991-0.41s0.738 0.157 0.991 0.41c0.141 0.139 0.334 0.225 0.547 0.225s0.407-0.086 0.547-0.225c0.254-0.254 0.604-0.41 0.991-0.41s0.738 0.157 0.991 0.41c0.14 0.14 0.334 0.226 0.547 0.226s0.407-0.087 0.547-0.227c0.254-0.253 0.604-0.41 0.991-0.411 0.001 0 0.002 0 0.004 0 0.386 0 0.736 0.157 0.988 0.411l0.038 0.038c0.624 0.62 1.010 1.478 1.010 2.426 0 0.394-0.067 0.772-0.189 1.124zM13.471 6.105h7.002l0.781-2.34c0.094-0.268 0.149-0.577 0.149-0.899 0-0.776-0.316-1.477-0.826-1.984l-0.038-0.038c-0.142-0.135-0.335-0.218-0.547-0.218s-0.405 0.083-0.548 0.218c-0.254 0.253-0.604 0.409-0.991 0.409s-0.737-0.156-0.991-0.409c-0.142-0.136-0.335-0.219-0.547-0.219s-0.405 0.083-0.548 0.219c-0.254 0.253-0.604 0.409-0.991 0.409s-0.737-0.156-0.991-0.409c-0.142-0.136-0.335-0.219-0.547-0.219s-0.405 0.083-0.548 0.219c-0.507 0.51-0.82 1.213-0.82 1.99 0 0.344 0.062 0.674 0.174 0.979z"></path>
<path fill="#ede5da" style="fill: var(--color1, #ede5da)" d="M6.472 31.686c3.373 0 6.127-1.195 6.127-2.66 0-0.223-0.028-2.573-0.031-2.654-0.056-1.333-3.231-1.854-6.093-1.854-2.911 0-5.54 0.627-6.158 1.801 0 0 0.031 2.51 0.031 2.707 0 1.465 2.751 2.66 6.124 2.66z"></path>
<path fill="#0e2d6d" style="fill: var(--color2, #0e2d6d)" d="M6.472 32c-3.611 0-6.438-1.308-6.438-2.974 0-0.201-0.031-2.701-0.031-2.701v-0.078l0.038-0.069c0.756-1.453 3.821-1.97 6.438-1.97 1.481 0 6.322 0.157 6.406 2.155 0 0.091 0.034 2.46 0.034 2.67-0.006 1.66-2.836 2.968-6.447 2.968zM0.627 26.397c0 0.439 0.031 2.447 0.031 2.626 0 1.384 3.062 2.347 5.813 2.347s5.813-0.963 5.813-2.347c0-0.207-0.028-2.529-0.031-2.645-0.038-0.9-2.469-1.553-5.779-1.553-2.943 0.003-5.267 0.631-5.848 1.572z"></path>
<path fill="#ede5da" style="fill: var(--color1, #ede5da)" d="M6.472 29.547c3.373 0 6.127-1.195 6.127-2.66 0-0.223-0.028-2.573-0.031-2.654-0.056-1.333-3.231-1.854-6.093-1.854-2.911 0-5.54 0.627-6.158 1.801 0 0 0.031 2.51 0.031 2.707 0 1.465 2.751 2.66 6.124 2.66z"></path>
<path fill="#0e2d6d" style="fill: var(--color2, #0e2d6d)" d="M6.472 29.86c-3.611 0-6.438-1.311-6.438-2.977 0-0.201-0.031-2.701-0.031-2.701v-0.078l0.038-0.069c0.753-1.446 3.818-1.973 6.431-1.973 1.481 0 6.322 0.157 6.406 2.155 0 0.091 0.034 2.46 0.034 2.67 0 1.663-2.83 2.974-6.441 2.974zM0.627 24.257c0 0.439 0.031 2.447 0.031 2.626 0 1.384 3.062 2.347 5.813 2.347s5.813-0.963 5.813-2.347c0-0.207-0.028-2.529-0.031-2.645-0.038-0.9-2.469-1.553-5.779-1.553-2.943 0.003-5.267 0.631-5.848 1.572z"></path>
<path fill="#ede5da" style="fill: var(--color1, #ede5da)" d="M6.472 27.404c3.373 0 6.127-1.195 6.127-2.66 0-0.223-0.028-2.573-0.031-2.654-0.056-1.333-3.231-1.854-6.093-1.854-2.911 0-5.534 0.615-6.162 1.801 0 0 0.031 2.51 0.031 2.707 0.003 1.465 2.755 2.66 6.127 2.66z"></path>
<path fill="#0e2d6d" style="fill: var(--color2, #0e2d6d)" d="M6.472 27.718c-3.611 0-6.438-1.305-6.438-2.974 0-0.201-0.031-2.701-0.031-2.701v-0.082l0.038-0.069c0.753-1.453 3.818-1.97 6.431-1.97 1.481 0 6.322 0.157 6.406 2.155 0 0.091 0.034 2.46 0.034 2.67 0 1.666-2.83 2.971-6.441 2.971zM0.627 22.118c0 0.439 0.031 2.447 0.031 2.626 0 1.384 3.062 2.347 5.813 2.347s5.813-0.963 5.813-2.347c0-0.207-0.028-2.529-0.031-2.645-0.038-0.9-2.469-1.553-5.779-1.553-2.943 0.003-5.267 0.631-5.848 1.572z"></path>
<path fill="#ede5da" style="fill: var(--color1, #ede5da)" d="M6.472 25.264c3.373 0 6.127-1.195 6.127-2.66 0-0.223-0.028-2.573-0.031-2.654-0.056-1.333-3.231-1.854-6.093-1.854-2.911 0-5.54 0.627-6.158 1.801 0 0 0.031 2.51 0.031 2.707 0 1.465 2.751 2.66 6.124 2.66z"></path>
<path fill="#0e2d6d" style="fill: var(--color2, #0e2d6d)" d="M6.472 25.578c-3.611 0-6.438-1.308-6.438-2.99 0-0.201-0.031-2.701-0.031-2.701v-0.078l0.035-0.044c0.756-1.453 3.821-1.97 6.438-1.97 1.481 0 6.322 0.157 6.406 2.155 0 0.091 0.034 2.46 0.034 2.67-0.003 1.65-2.833 2.958-6.444 2.958zM0.627 19.975c0 0.439 0.031 2.447 0.031 2.626 0 1.384 3.062 2.347 5.813 2.347s5.813-0.96 5.813-2.359c0-0.207-0.028-2.529-0.031-2.645-0.038-0.9-2.469-1.553-5.779-1.553-2.943 0.016-5.267 0.643-5.848 1.584z"></path>
<path fill="#ede5da" style="fill: var(--color1, #ede5da)" d="M6.472 23.122c3.373 0 6.127-1.195 6.127-2.66 0-0.223-0.028-2.573-0.031-2.654-0.056-1.333-3.231-1.854-6.093-1.854-2.911 0-5.54 0.627-6.158 1.801 0 0 0.031 2.51 0.031 2.707 0 1.465 2.751 2.66 6.124 2.66z"></path>
<path fill="#0e2d6d" style="fill: var(--color2, #0e2d6d)" d="M6.472 23.438c-3.611 0-6.438-1.308-6.438-2.977 0-0.201-0.031-2.701-0.031-2.701v-0.078l0.038-0.069c0.756-1.453 3.821-1.97 6.438-1.97 1.481 0 6.322 0.157 6.406 2.155 0 0.091 0.034 2.46 0.034 2.67-0.006 1.663-2.836 2.971-6.447 2.971zM0.627 17.835c0 0.439 0.031 2.447 0.031 2.626 0 1.384 3.062 2.347 5.813 2.347s5.813-0.963 5.813-2.347c0-0.207-0.028-2.529-0.031-2.645-0.038-0.9-2.469-1.553-5.779-1.553-2.943 0.003-5.267 0.631-5.848 1.572z"></path>
<path fill="#ede5da" style="fill: var(--color1, #ede5da)" d="M6.472 20.982c3.373 0 6.127-1.195 6.127-2.66 0-0.223-0.028-2.573-0.031-2.654-0.056-1.336-3.231-1.864-6.096-1.864-2.908 0-5.531 0.627-6.158 1.81 0 0 0.031 2.51 0.031 2.707 0.003 1.465 2.755 2.66 6.127 2.66z"></path>
<path fill="#0e2d6d" style="fill: var(--color2, #0e2d6d)" d="M6.472 21.296c-3.611 0-6.438-1.305-6.438-2.974 0-0.201-0.031-2.701-0.031-2.701v-0.078l0.038-0.069c0.753-1.459 3.818-1.983 6.431-1.983 1.481 0 6.322 0.157 6.406 2.155 0 0.091 0.034 2.46 0.034 2.67 0 1.675-2.83 2.98-6.441 2.98zM0.627 15.686c0 0.439 0.031 2.447 0.031 2.626 0 1.384 3.062 2.347 5.813 2.347s5.813-0.963 5.813-2.347c0-0.207-0.028-2.529-0.031-2.645-0.038-0.888-2.469-1.55-5.782-1.55-2.94 0-5.264 0.627-5.845 1.569z"></path>
<path fill="#ede5da" style="fill: var(--color1, #ede5da)" d="M6.472 18.842c3.373 0 6.127-1.195 6.127-2.66 0-0.223-0.028-2.573-0.031-2.654-0.056-1.333-3.231-1.854-6.093-1.854-2.911-0.003-5.534 0.615-6.162 1.801 0 0 0.031 2.51 0.031 2.707 0.003 1.465 2.755 2.66 6.127 2.66z"></path>
<path fill="#0e2d6d" style="fill: var(--color2, #0e2d6d)" d="M6.472 19.156c-3.611 0-6.438-1.308-6.438-2.977 0-0.201-0.035-2.689-0.035-2.689v-0.078l0.038-0.069c0.756-1.468 3.821-1.986 6.434-1.986 1.481 0 6.322 0.157 6.406 2.155 0 0.091 0.034 2.46 0.034 2.67 0 1.666-2.83 2.974-6.441 2.974zM0.627 13.553c0 0.439 0.031 2.447 0.031 2.626 0 1.384 3.062 2.347 5.813 2.347s5.813-0.957 5.813-2.347c0-0.207-0.028-2.529-0.031-2.645-0.038-0.9-2.469-1.553-5.779-1.553-2.943 0.003-5.267 0.631-5.848 1.572z"></path>
<path fill="#ede5da" style="fill: var(--color1, #ede5da)" d="M6.456 16.493c3.373 0 6.127-1.195 6.127-2.66s-2.751-2.664-6.127-2.664-6.124 1.195-6.124 2.66 2.751 2.664 6.124 2.664z"></path>
<path fill="#0e2d6d" style="fill: var(--color2, #0e2d6d)" d="M6.456 16.806c-3.611 0-6.438-1.308-6.438-2.977s2.824-2.974 6.441-2.974 6.441 1.308 6.441 2.974-2.833 2.977-6.444 2.977zM6.456 11.473c-2.748 0-5.813 0.963-5.813 2.347s3.062 2.347 5.813 2.347 5.813-0.963 5.813-2.347-3.065-2.337-5.813-2.337z"></path>
</symbol>
<symbol id="icon-rocket" viewBox="0 0 21 32">
<title>rocket</title>
<path fill="#ede5da" style="fill: var(--color1, #ede5da)" d="M11.442 0.762v0c-0.232-0.272-0.574-0.443-0.957-0.443s-0.725 0.171-0.955 0.441l-0.001 0.002c-1.876 2.239-3.015 5.151-3.015 8.329 0 0.002 0 0.004 0 0.007v11.495h7.944v-11.495c0-0.002 0-0.004 0-0.006 0-3.178-1.139-6.090-3.031-8.35z"></path>
<path fill="#0e2d6d" style="fill: var(--color2, #0e2d6d)" d="M14.77 20.907h-8.571v-11.809c0-3.257 1.167-6.241 3.104-8.558 0.272-0.32 0.702-0.535 1.181-0.535s0.909 0.215 1.197 0.554l0.002 0.002c1.92 2.296 3.087 5.28 3.087 8.536zM6.824 20.279h7.319v-11.181c-0.001-3.103-1.112-5.947-2.959-8.155l0.016 0.020c-0.174-0.202-0.43-0.329-0.715-0.329s-0.542 0.127-0.714 0.328c-1.831 2.189-2.943 5.033-2.944 8.136z"></path>
<path fill="#ded1be" style="fill: var(--color4, #ded1be)" d="M1.904 12.803v0c0.878 0 1.591 0.712 1.591 1.591v6.356h-3.181v-6.356c0-0.878 0.712-1.591 1.591-1.591z"></path>
<path fill="#0e2d6d" style="fill: var(--color2, #0e2d6d)" d="M3.805 21.064h-3.805v-6.67c0.043-1.018 0.878-1.827 1.903-1.827s1.86 0.809 1.903 1.823zM0.627 20.436h2.551v-6.042c-0.035-0.677-0.592-1.214-1.275-1.214s-1.241 0.536-1.275 1.21z"></path>
<path fill="#c0ac8e" style="fill: var(--color3, #c0ac8e)" d="M6.513 14.711l-3.021 1.907v2.544h3.021v-4.452z"></path>
<path fill="#0e2d6d" style="fill: var(--color2, #0e2d6d)" d="M6.827 19.476h-3.649v-3.031l3.646-2.303zM3.809 18.849h2.391v-3.567l-2.391 1.512z"></path>
<path fill="#ded1be" style="fill: var(--color4, #ded1be)" d="M20.656 20.753h-3.178v-6.359c0-0.878 0.712-1.591 1.591-1.591v0c0.878 0 1.591 0.712 1.591 1.591v6.359cz"></path>
<path fill="#0e2d6d" style="fill: var(--color2, #0e2d6d)" d="M20.969 21.064h-3.805v-6.67c0.043-1.018 0.878-1.827 1.903-1.827s1.86 0.809 1.903 1.823zM17.791 20.436h2.551v-6.042c-0.035-0.677-0.592-1.214-1.275-1.214s-1.241 0.536-1.275 1.21z"></path>
<path fill="#c0ac8e" style="fill: var(--color3, #c0ac8e)" d="M14.46 14.711l3.018 1.907v2.544h-3.018v-4.452z"></path>
<path fill="#0e2d6d" style="fill: var(--color2, #0e2d6d)" d="M17.791 19.476h-3.649v-5.333l3.645 2.303zM14.773 18.849h2.391v-2.058l-2.391-1.512z"></path>
<path fill="#0e2d6d" style="fill: var(--color2, #0e2d6d)" d="M0.314 17.575h3.178v0.627h-3.178v-0.627z"></path>
<path fill="#0e2d6d" style="fill: var(--color2, #0e2d6d)" d="M17.478 17.575h3.178v0.627h-3.178v-0.627z"></path>
<path fill="#1a2268" style="fill: var(--color5, #1a2268)" d="M10.485 28.831c-0.173 0-0.314-0.14-0.314-0.314v-3.953c0-0.173 0.14-0.314 0.314-0.314s0.314 0.14 0.314 0.314v3.953c0 0.173-0.14 0.314-0.314 0.314z"></path>
<path fill="#1a2268" style="fill: var(--color5, #1a2268)" d="M10.485 32c-0.173 0-0.314-0.14-0.314-0.314v-1.719c0-0.173 0.14-0.314 0.314-0.314s0.314 0.14 0.314 0.314v1.719c0 0.173-0.14 0.314-0.314 0.314z"></path>
<path fill="#1a2268" style="fill: var(--color5, #1a2268)" d="M8.577 26.598c-0.173 0-0.314-0.14-0.314-0.314v-1.719c0-0.173 0.14-0.314 0.314-0.314s0.314 0.14 0.314 0.314v1.719c0 0.173-0.14 0.314-0.314 0.314z"></path>
<path fill="#1a2268" style="fill: var(--color5, #1a2268)" d="M1.904 24.373c-0.173 0-0.314-0.14-0.314-0.314v-1.719c0-0.173 0.14-0.314 0.314-0.314s0.314 0.14 0.314 0.314v1.719c0 0.173-0.14 0.314-0.314 0.314z"></path>
<path fill="#1a2268" style="fill: var(--color5, #1a2268)" d="M19.068 24.373c-0.173 0-0.314-0.14-0.314-0.314v-1.719c0-0.173 0.14-0.314 0.314-0.314s0.314 0.14 0.314 0.314v1.719c0 0.173-0.14 0.314-0.314 0.314z"></path>
<path fill="#1a2268" style="fill: var(--color5, #1a2268)" d="M12.392 26.598c-0.173 0-0.314-0.14-0.314-0.314v-1.719c0-0.173 0.14-0.314 0.314-0.314s0.314 0.14 0.314 0.314v1.719c0 0.173-0.14 0.314-0.314 0.314z"></path>
<path fill="#0e2d6d" style="fill: var(--color2, #0e2d6d)" d="M10.962 18.789c0 0.263-0.213 0.477-0.477 0.477s-0.477-0.213-0.477-0.477c0-0.263 0.213-0.477 0.477-0.477s0.477 0.213 0.477 0.477z"></path>
<path fill="#0e2d6d" style="fill: var(--color2, #0e2d6d)" d="M10.962 16.267c0 0.263-0.213 0.477-0.477 0.477s-0.477-0.213-0.477-0.477c0-0.263 0.213-0.477 0.477-0.477s0.477 0.213 0.477 0.477z"></path>
<path fill="#0e2d6d" style="fill: var(--color2, #0e2d6d)" d="M10.962 13.744c0 0.263-0.213 0.477-0.477 0.477s-0.477-0.213-0.477-0.477c0-0.263 0.213-0.477 0.477-0.477s0.477 0.213 0.477 0.477z"></path>
<path fill="#ede5da" style="fill: var(--color1, #ede5da)" d="M12.552 9.634c0 1.142-0.926 2.067-2.067 2.067s-2.067-0.926-2.067-2.067c0-1.142 0.926-2.067 2.067-2.067s2.067 0.926 2.067 2.067z"></path>
<path fill="#0e2d6d" style="fill: var(--color2, #0e2d6d)" d="M10.485 12.013c-0.001 0-0.002 0-0.003 0-1.315 0-2.381-1.066-2.381-2.381s1.066-2.381 2.381-2.381c1.315 0 2.381 1.066 2.381 2.381 0 0.001 0 0.002 0 0.003-0.002 1.312-1.065 2.376-2.378 2.378zM10.485 7.881c-0.001 0-0.002 0-0.003 0-0.969 0-1.754 0.785-1.754 1.754s0.785 1.754 1.754 1.754c0.969 0 1.754-0.785 1.754-1.754 0 0 0 0 0 0 0-0.967-0.783-1.752-1.75-1.754z"></path>
<path fill="#0e2d6d" style="fill: var(--color2, #0e2d6d)" d="M7.307 4.863h6.356v0.627h-6.356v-0.627z"></path>
<path fill="#ede5da" style="fill: var(--color1, #ede5da)" d="M12.925 22.689l-0.483-2.099h-3.912l-0.486 2.099c-0.007 0.026-0.011 0.057-0.011 0.088 0 0.195 0.156 0.353 0.349 0.358h4.204c0.194-0.004 0.35-0.163 0.35-0.358 0-0.031-0.004-0.062-0.012-0.090z"></path>
<path fill="#0e2d6d" style="fill: var(--color2, #0e2d6d)" d="M12.587 23.448h-4.204c-0.208-0-0.394-0.098-0.513-0.25-0.093-0.116-0.148-0.263-0.148-0.423 0-0.056 0.007-0.111 0.020-0.163l0.542-2.336h4.408l0.54 2.34c0.011 0.046 0.017 0.098 0.017 0.152 0 0.161-0.056 0.31-0.15 0.426-0.119 0.152-0.303 0.25-0.51 0.253zM8.784 20.907l-0.43 1.854c-0.003 0.007-0.005 0.015-0.005 0.024s0.002 0.017 0.006 0.024l4.226-0c0.028-0.022 0.038-0.038 0.034-0.060l-0.427-1.854z"></path>
</symbol>
<symbol id="icon-phone" viewBox="0 0 31 32">
<title>phone</title>
<path d="M26.931 32h-23.174c-2.073-0.004-3.753-1.683-3.757-3.756v-3.2c0-0.001 0-0.003 0-0.004 0-0.453 0.129-0.876 0.351-1.235l4.596-7.497c0.674-1.081 1.853-1.791 3.199-1.798h13.166c1.223 0.001 2.31 0.581 3.001 1.482l5.914 7.734c0.299 0.392 0.48 0.888 0.48 1.427v3.104c-0.011 2.070-1.692 3.744-3.763 3.744-0.005 0-0.009 0-0.014-0zM8.154 16.397c-0.671 0.009-1.259 0.361-1.595 0.888l-4.638 7.534c-0.044 0.069-0.070 0.153-0.070 0.243v3.2c0 1.036 0.84 1.875 1.875 1.875h23.206c1.033-0.004 1.869-0.842 1.869-1.875 0-0.007-0-0.014-0-0.020v-3.103c-0-0.106-0.037-0.204-0.097-0.283l-5.9-7.724c-0.351-0.445-0.887-0.729-1.49-0.736z"></path>
<path d="M14.842 15.674h-1.882v-3.514c0-0.429-0.348-0.778-0.778-0.778s-0.778 0.348-0.778 0.778v3.488h-1.882v-3.488c-0.002-0.039-0.003-0.085-0.003-0.13 0-1.47 1.192-2.662 2.662-2.662s2.662 1.192 2.662 2.662c0 0.046-0.001 0.092-0.003 0.137z"></path>
<path d="M21.165 15.674h-1.882v-3.514c0-0.429-0.348-0.778-0.778-0.778s-0.778 0.348-0.778 0.778v3.488h-1.882v-3.488c-0.002-0.039-0.003-0.085-0.003-0.13 0-1.47 1.192-2.662 2.662-2.662s2.662 1.192 2.662 2.662c0 0.046-0.001 0.092-0.003 0.137z"></path>
<path d="M15.36 28.832c-3.050 0-5.523-2.473-5.523-5.523s2.473-5.523 5.523-5.523c3.050 0 5.523 2.473 5.523 5.523-0.004 3.049-2.474 5.52-5.523 5.523zM15.36 19.667c-2.011 0-3.642 1.63-3.642 3.642s1.63 3.642 3.642 3.642c2.011 0 3.642-1.63 3.642-3.642-0.004-2.010-1.632-3.638-3.641-3.642z"></path>
<path d="M28.282 14.72l-6.682-2.56v-4.294c-0.104-0.111-0.229-0.2-0.37-0.26-0.903-0.323-2.401-0.86-5.908-0.86s-4.992 0.538-5.888 0.858c-0.153 0.057-0.277 0.163-0.357 0.298l-0.002 4.259-6.675 2.56-0.429-0.557c-2.81-3.699-2.566-7.763 0.589-10.323 2.291-1.92 7.68-3.84 12.749-3.84s10.483 1.958 12.781 3.84c3.2 2.56 3.424 6.611 0.64 10.278zM15.36 1.882c-5.056 0-9.888 2.048-11.558 3.43-3.072 2.483-1.677 5.613-0.71 7.11l4.134-1.587v-2.97c0.079-0.955 0.721-1.741 1.59-2.030 0.932-0.338 2.704-0.965 6.545-0.965s5.587 0.64 6.528 0.966c0.891 0.293 1.539 1.078 1.625 2.026l0.001 2.979 4.128 1.587c0.966-1.498 2.362-4.627-0.71-7.104v0c-1.709-1.395-6.541-3.443-11.571-3.443z"></path>
</symbol>
<symbol id="icon-email" viewBox="0 0 32 32">
<title>email</title>
<path d="M28.262 32h-24.768c-1.928-0.004-3.491-1.566-3.494-3.494v-14.983c0.006-1.058 0.482-2.003 1.23-2.639l11.429-9.694c0.867-0.742 2.001-1.194 3.242-1.194s2.375 0.452 3.248 1.199l11.372 9.684c0.758 0.644 1.235 1.597 1.235 2.662v14.963c-0.004 1.928-1.566 3.491-3.494 3.494zM15.898 1.882c-0 0-0.001 0-0.001 0-0.773 0-1.48 0.281-2.026 0.746l-11.42 9.667c-0.349 0.297-0.569 0.737-0.57 1.229v14.982c0 0.891 0.722 1.613 1.613 1.613h24.768c0.891 0 1.613-0.722 1.613-1.613v-14.989c-0-0.491-0.22-0.931-0.567-1.227l-11.388-9.659c-0.541-0.464-1.248-0.747-2.022-0.749z"></path>
<path d="M24.237 18.202h-1.882v-6.605c0-0.237-0.192-0.429-0.429-0.429h-12.102c-0.237 0-0.429 0.192-0.429 0.429v6.605h-1.882v-6.605c0-1.276 1.034-2.31 2.31-2.31h12.102c1.276 0 2.31 1.034 2.31 2.31z"></path>
<path d="M15.878 23.117c-0.172-0.002-0.333-0.049-0.472-0.13l-13-7.486c-0.284-0.166-0.471-0.469-0.471-0.816 0-0.52 0.422-0.942 0.942-0.942 0.173 0 0.335 0.047 0.475 0.128l12.527 7.249 12.531-7.251c0.135-0.079 0.297-0.126 0.47-0.126 0.52 0 0.942 0.422 0.942 0.942 0 0.347-0.188 0.65-0.467 0.814l-13.009 7.49c-0.134 0.079-0.295 0.126-0.467 0.128z"></path>
<path d="M20.371 17.325h-8.992c-0.52 0-0.941-0.421-0.941-0.941s0.421-0.941 0.941-0.941h8.992c0.52 0 0.941 0.421 0.941 0.941s-0.421 0.941-0.941 0.941z"></path>
<path d="M20.371 14.72h-8.992c-0.52 0-0.941-0.421-0.941-0.941s0.421-0.941 0.941-0.941h8.992c0.52 0 0.941 0.421 0.941 0.941s-0.421 0.941-0.941 0.941z"></path>
</symbol>
<symbol id="icon-linkedin" viewBox="0 0 32 32">
<title>linkedin</title>
<path d="M16 32c-8.837 0-16-7.163-16-16s7.163-16 16-16c8.837 0 16 7.163 16 16s-7.163 16-16 16zM16 0.838c-8.374 0-15.162 6.788-15.162 15.162s6.788 15.162 15.162 15.162c8.374 0 15.162-6.788 15.162-15.162-0.011-8.369-6.792-15.151-15.161-15.162z"></path>
<path d="M11.917 21.325c0 0.102-0.083 0.186-0.186 0.186h-2.874c-0.102 0-0.186-0.083-0.186-0.186v-9.35c0-0.102 0.083-0.186 0.186-0.186h2.867c0.102 0 0.186 0.083 0.186 0.186zM11.917 9.165c0-0.894-0.725-1.619-1.619-1.619s-1.619 0.725-1.619 1.619c0 0.894 0.725 1.619 1.619 1.619 0 0 0 0 0 0 0.894 0 1.619-0.725 1.619-1.619 0-0.005-0-0.009-0-0.014zM23.168 21.325v-6.49c0-0.018 0.001-0.040 0.001-0.061 0-0.853-0.34-1.626-0.891-2.192-0.608-0.579-1.433-0.936-2.343-0.936-0.047 0-0.094 0.001-0.14 0.003-0.004-0-0.016-0-0.029-0-1.118 0-2.126 0.472-2.836 1.227l-0.002-0.9c0-0.102-0.083-0.186-0.186-0.186h-2.88c-0.102 0-0.186 0.083-0.186 0.186v9.35c0 0.102 0.083 0.186 0.186 0.186h2.867c0.102 0 0.186-0.083 0.186-0.186v-5.709c0.049-0.795 0.705-1.421 1.508-1.421 0.008 0 0.015 0 0.023 0 1.388 0 1.484 0.832 1.484 1.85v5.28c0 0.102 0.083 0.186 0.186 0.186h2.867c0.102 0 0.186-0.083 0.186-0.186z"></path>
</symbol>
<symbol id="icon-pdf" viewBox="0 0 32 32">
<title>pdf</title>
<path fill="#bdc3c7" style="fill: var(--color6, #bdc3c7)" d="M26.835 9.28l-9.014-9.28h-10.176c-0.005-0-0.010-0-0.015-0-0.975 0-1.86 0.385-2.511 1.012-0.651 0.624-1.056 1.5-1.058 2.472v21.44c0.007 0.966 0.411 1.837 1.058 2.456 0.651 0.627 1.536 1.012 2.511 1.012 0.003 0 0.006 0 0.010 0h15.852c0.002 0 0.005 0 0.008 0 0.975 0 1.861-0.385 2.512-1.012 0.651-0.623 1.056-1.5 1.058-2.472v-15.389zM24.79 9.562h-4.461c-0.006 0-0.012 0-0.019 0-0.783 0-1.495-0.304-2.024-0.802-0.503-0.466-0.818-1.131-0.821-1.87v-4.871zM24.854 26.202c-0.351 0.337-0.828 0.544-1.353 0.544-0.005 0-0.009-0-0.014-0h-15.842c-0.003 0-0.008 0-0.012 0-0.526 0-1.003-0.207-1.355-0.545-0.338-0.322-0.549-0.776-0.55-1.279v-21.44c0-0.504 0.211-0.958 0.55-1.279 0.352-0.337 0.829-0.545 1.355-0.545 0.004 0 0.008 0 0.012 0h8.035v5.229c0.004 1.247 0.531 2.371 1.374 3.163 0.847 0.795 1.988 1.282 3.242 1.282 0.010 0 0.019-0 0.029-0h5.080v13.568c0 0.002 0 0.003 0 0.005 0 0.504-0.211 0.959-0.55 1.28z"></path>
<path fill="#fff" style="fill: var(--color7, #fff)" d="M24.243 32l-0.563-0.621-7.482-8.221h3.741v-6.518c0-0.768 0.682-1.366 1.549-1.366h5.507c0.87 0 1.549 0.602 1.549 1.366v6.522h3.741l-1.162 1.28-6.88 7.558z"></path>
<path fill="#013e7e" style="fill: var(--color8, #013e7e)" d="M27.782 23.926v-7.286c-0.053-0.347-0.349-0.609-0.706-0.609-0.029 0-0.057 0.002-0.085 0.005l-5.504-0c-0.024-0.003-0.053-0.005-0.081-0.005-0.357 0-0.653 0.263-0.705 0.605l-0 7.29h-2.781l6.317 6.944 6.323-6.944z"></path>
<path fill="#fff" style="fill: var(--color7, #fff)" d="M13.315 16.106h-11.715c-0.887-0.014-1.6-0.737-1.6-1.625 0-0.003 0-0.007 0-0.010v-6.719c-0-0.003-0-0.006-0-0.010 0-0.889 0.713-1.611 1.599-1.625l11.717-0c0.887 0.014 1.6 0.737 1.6 1.625 0 0.003 0 0.007-0 0.010v6.719c0 0.003 0 0.006 0 0.010 0 0.889-0.713 1.611-1.599 1.625z"></path>
<path fill="#013e7e" style="fill: var(--color8, #013e7e)" d="M14.835 14.47c-0.002 0.478-0.389 0.864-0.867 0.864 0 0 0 0 0 0h-12.070c0 0 0 0 0 0-0.478 0-0.865-0.386-0.867-0.864v-6.72c0.002-0.478 0.389-0.864 0.867-0.864 0 0 0 0 0 0h12.070c0 0 0 0 0 0 0.478 0 0.865 0.386 0.867 0.864z"></path>
<path fill="#fff" style="fill: var(--color7, #fff)" d="M2.173 8.506h1.526c0.037-0.001 0.081-0.002 0.125-0.002 0.339 0 0.667 0.043 0.981 0.123 0.247 0.086 0.469 0.27 0.61 0.507 0.167 0.272 0.263 0.595 0.263 0.941 0 0.023-0 0.046-0.001 0.069 0.001 0.021 0.002 0.049 0.002 0.078 0 0.321-0.079 0.623-0.218 0.889-0.125 0.229-0.325 0.416-0.567 0.527-0.301 0.111-0.64 0.174-0.993 0.174-0.054 0-0.108-0.001-0.161-0.004l-0.402 0v1.92h-1.165zM3.338 9.35v1.549h0.362q0.477 0 0.614-0.218c0.087-0.15 0.139-0.329 0.139-0.521 0-0.016-0-0.032-0.001-0.047 0.001-0.011 0.001-0.025 0.001-0.040 0-0.159-0.039-0.308-0.109-0.439-0.051-0.1-0.138-0.181-0.244-0.227-0.108-0.034-0.228-0.053-0.353-0.053-0.016 0-0.033 0-0.049 0.001z"></path>
<path fill="#fff" style="fill: var(--color7, #fff)" d="M6.237 8.506h1.254c0.034-0.001 0.075-0.002 0.116-0.002 0.434 0 0.85 0.081 1.233 0.227 0.336 0.157 0.62 0.434 0.788 0.779 0.208 0.433 0.327 0.929 0.327 1.454 0 0.045-0.001 0.089-0.003 0.134 0.001 0.014 0.001 0.037 0.001 0.061 0 0.423-0.068 0.83-0.194 1.211-0.096 0.305-0.263 0.592-0.48 0.832-0.179 0.193-0.409 0.339-0.669 0.418-0.271 0.071-0.57 0.11-0.878 0.11-0.032 0-0.065-0-0.097-0.001l-1.397 0zM7.402 9.402v3.43h0.198c0.023 0.002 0.050 0.003 0.076 0.003 0.208 0 0.403-0.058 0.568-0.159 0.156-0.129 0.276-0.306 0.336-0.508 0.087-0.296 0.136-0.627 0.136-0.969 0-0.049-0.001-0.098-0.003-0.146 0.002-0.028 0.003-0.069 0.003-0.11 0-0.326-0.055-0.639-0.156-0.93-0.062-0.183-0.189-0.351-0.356-0.468-0.161-0.084-0.347-0.132-0.545-0.132-0.021 0-0.042 0.001-0.063 0.002z"></path>
<path fill="#fff" style="fill: var(--color7, #fff)" d="M10.704 8.506h3.146v0.896h-1.981v1.366h1.526v0.896h-1.526v2.064h-1.165z"></path>
</symbol>
<symbol id="icon-logo-color" viewBox="0 0 32 32">
<title>logo-color</title>
<path fill="#013e7e" style="fill: var(--color8, #013e7e)" d="M27.283 20.717l4.717-4.717-16-16-16 16 4.717 4.717h22.566z"></path>
<path fill="#fff" style="fill: var(--color7, #fff)" d="M12.080 10.061v-0.64h-3.6v0.64h0.269c0.295 0.005 0.531 0.245 0.531 0.541 0 0 0 0 0 0v7.107c-0.005 0.291-0.24 0.526-0.531 0.531h-0.269v0.64h3.6v-0.64h-0.272c-0.299 0-0.541-0.242-0.541-0.541v-7.098c0-0.299 0.242-0.541 0.541-0.541z"></path>
<path fill="#fff" style="fill: var(--color7, #fff)" d="M23.52 10.061v-0.64h-3.6v0.64h0.269c0.299 0 0.541 0.242 0.541 0.541v7.107c-0.005 0.293-0.244 0.529-0.537 0.531h-0.269v0.64h3.597v-0.64h-0.269c-0.291-0.005-0.526-0.24-0.531-0.531v-7.108c0-0.299 0.242-0.541 0.541-0.541z"></path>
<path fill="#fff" style="fill: var(--color7, #fff)" d="M12.755 9.478h4.63s1.949 0.128 1.949 2.138-1.981 2.403-1.981 2.403 2.31 0.534 2.31 2.019 0.035 1.674-0.765 2.374c-0.431 0.316-0.97 0.508-1.554 0.515h-4.59v-0.64h0.365c0.353 0 0.64-0.287 0.64-0.64v-6.912c0-0.353-0.287-0.64-0.64-0.64h-0.365zM17.408 12.227v-0.602c0-0.848-0.688-1.536-1.536-1.536h-0.32v3.67h0.32c0 0 0 0 0 0 0.847 0 1.534-0.686 1.536-1.533zM15.542 14.381v3.149s0.029 0.736 0.707 0.736 1.35-0.4 1.35-1.226v-1.219s0.016-1.44-2.058-1.44z"></path>
<path fill="#013e7e" style="fill: var(--color8, #013e7e)" d="M28.464 21.398h-24.928l4.365 4.432h16.198l4.365-4.432z"></path>
<path fill="#013e7e" style="fill: var(--color8, #013e7e)" d="M22.17 25.83l4.432-4.432h-21.203l4.432 4.432h12.339z"></path>
<path fill="#013e7e" style="fill: var(--color8, #013e7e)" d="M10.509 26.509l5.491 5.491 5.491-5.491h-10.982z"></path>
<path fill="#fff" style="fill: var(--color7, #fff)" d="M7.379 22.304h0.445v2.115h-0.445z"></path>
<path fill="#fff" style="fill: var(--color7, #fff)" d="M8.4 22.304h0.445v1.744h0.848v0.371h-1.28z"></path>
<path fill="#fff" style="fill: var(--color7, #fff)" d="M10.24 24.378c-0.139-0.054-0.258-0.131-0.359-0.228l0.256-0.32c0.073 0.067 0.158 0.122 0.25 0.164 0.087 0.040 0.181 0.062 0.281 0.063 0.007 0 0.016 0.001 0.024 0.001 0.079 0 0.153-0.023 0.215-0.062 0.049-0.035 0.082-0.093 0.082-0.159 0-0.002-0-0.005-0-0.007 0-0.001 0-0.002 0-0.003 0-0.041-0.014-0.079-0.039-0.109s-0.056-0.055-0.091-0.073l-0.184-0.081-0.278-0.118c-0.127-0.047-0.234-0.122-0.319-0.217-0.075-0.091-0.12-0.207-0.12-0.334 0-0.008 0-0.015 0-0.023-0-0.002-0-0.006-0-0.010 0-0.115 0.036-0.223 0.097-0.311 0.065-0.094 0.154-0.17 0.257-0.221 0.111-0.054 0.238-0.085 0.371-0.085 0.004 0 0.007 0 0.011 0 0.13 0.001 0.254 0.028 0.367 0.076 0.118 0.045 0.225 0.113 0.314 0.199l-0.224 0.281c-0.063-0.051-0.134-0.094-0.212-0.126-0.073-0.028-0.151-0.044-0.233-0.044-0.001 0-0.002 0-0.004 0-0.006-0-0.013-0.001-0.020-0.001-0.071 0-0.137 0.020-0.192 0.056-0.045 0.031-0.076 0.084-0.076 0.145 0 0.003 0 0.006 0 0.009-0 0.001-0 0.002-0 0.003 0 0.042 0.016 0.080 0.042 0.109 0.027 0.035 0.062 0.064 0.101 0.085l0.187 0.081 0.272 0.109c0.128 0.047 0.235 0.123 0.319 0.22 0.069 0.091 0.11 0.205 0.11 0.328 0 0.009-0 0.017-0.001 0.026 0-0.001 0-0 0 0.001 0 0.118-0.035 0.228-0.094 0.321-0.066 0.099-0.158 0.179-0.267 0.23-0.119 0.056-0.255 0.088-0.398 0.088-0.009 0-0.018-0-0.027-0-0.012 0.001-0.027 0.001-0.042 0.001-0.136 0-0.266-0.024-0.387-0.067z"></path>
<path fill="#fff" style="fill: var(--color7, #fff)" d="M12.602 22.304h0.707c0.017-0.001 0.036-0.001 0.056-0.001 0.205 0 0.396 0.059 0.557 0.161 0.134 0.105 0.222 0.271 0.222 0.458 0 0.018-0.001 0.036-0.002 0.053 0.001 0.008 0.001 0.021 0.001 0.033 0 0.198-0.090 0.374-0.23 0.492-0.153 0.113-0.345 0.181-0.552 0.181-0.013 0-0.026-0-0.039-0.001l-0.273 0v0.739h-0.445zM13.293 23.328q0.416 0 0.416-0.352c0.001-0.010 0.002-0.022 0.002-0.034 0-0.091-0.043-0.171-0.11-0.222-0.081-0.048-0.178-0.075-0.281-0.075-0.014 0-0.027 0-0.041 0.001l-0.232-0v0.672z"></path>
<path fill="#fff" style="fill: var(--color7, #fff)" d="M14.483 24.32c-0.081-0.085-0.131-0.2-0.131-0.327 0-0.005 0-0.011 0-0.016-0-0.003-0-0.007-0-0.012 0-0.162 0.086-0.305 0.216-0.383 0.204-0.111 0.442-0.18 0.696-0.193 0.005-0.007 0.005-0.016 0.005-0.024 0-0.131-0.106-0.237-0.237-0.237-0.011 0-0.021 0.001-0.031 0.002-0.073 0-0.143 0.014-0.208 0.040-0.084 0.033-0.159 0.069-0.23 0.111l-0.153-0.295c0.19-0.127 0.423-0.205 0.674-0.211 0.014-0.001 0.029-0.002 0.044-0.002 0.167 0 0.317 0.069 0.424 0.181 0.101 0.132 0.162 0.299 0.162 0.48 0 0.020-0.001 0.041-0.002 0.061l0 0.922h-0.352l-0.032-0.17c-0.124 0.121-0.29 0.199-0.475 0.208-0.014 0.001-0.029 0.002-0.044 0.002-0.127 0-0.243-0.052-0.326-0.136zM15.123 24.077c0.055-0.033 0.102-0.070 0.144-0.112v-0.32c-0.138 0.011-0.266 0.049-0.38 0.108-0.060 0.032-0.104 0.099-0.106 0.176-0 0.004-0 0.008-0 0.012 0 0.046 0.020 0.087 0.052 0.116 0.037 0.028 0.083 0.045 0.134 0.045 0.005 0 0.009-0 0.014-0 0.006 0.001 0.014 0.001 0.021 0.001 0.044 0 0.086-0.010 0.124-0.027z"></path>
<path fill="#fff" style="fill: var(--color7, #fff)" d="M16.192 22.816h0.358l0.032 0.282c0.050-0.096 0.119-0.175 0.203-0.235 0.070-0.052 0.156-0.082 0.248-0.085 0.006-0 0.011-0 0.017-0 0.062 0 0.121 0.012 0.175 0.033l-0.077 0.38h-0.058c-0.016-0.002-0.035-0.003-0.054-0.003s-0.038 0.001-0.057 0.003c-0.075 0-0.145 0.028-0.2 0.074-0.072 0.061-0.128 0.14-0.161 0.229l-0.001 0.964h-0.426z"></path>
<path fill="#fff" style="fill: var(--color7, #fff)" d="M17.712 24.298c-0.081-0.112-0.129-0.252-0.129-0.404 0-0.016 0-0.031 0.002-0.046l-0-0.683h-0.224v-0.32l0.24-0.029 0.058-0.416h0.365v0.416h0.39v0.349h-0.39v0.682q0 0.262 0.214 0.262c0.058-0.002 0.113-0.013 0.163-0.033l0.067 0.321c-0.103 0.036-0.222 0.057-0.345 0.058-0.014 0.001-0.031 0.002-0.047 0.002-0.143 0-0.272-0.061-0.362-0.159z"></path>
<path fill="#fff" style="fill: var(--color7, #fff)" d="M18.803 22.816h0.358l0.032 0.208c0.069-0.069 0.148-0.128 0.235-0.176 0.084-0.045 0.177-0.070 0.276-0.070 0.003 0 0.005 0 0.008 0 0.009-0.001 0.021-0.001 0.032-0.001 0.139 0 0.262 0.065 0.341 0.167 0.078 0.122 0.124 0.27 0.124 0.428 0 0.017-0.001 0.035-0.002 0.052l0 0.996h-0.429v-0.944c0.001-0.011 0.002-0.024 0.002-0.037 0-0.078-0.020-0.151-0.054-0.215-0.033-0.041-0.086-0.069-0.145-0.069-0.006 0-0.012 0-0.018 0.001-0.002-0-0.004-0-0.007-0-0.056 0-0.108 0.014-0.154 0.039-0.060 0.037-0.114 0.079-0.162 0.127l0 1.094h-0.438z"></path>
<path fill="#fff" style="fill: var(--color7, #fff)" d="M22.016 23.744h-0.992c0.013 0.115 0.071 0.214 0.156 0.281 0.078 0.057 0.175 0.090 0.28 0.090 0.004 0 0.008-0 0.012-0 0.132-0.006 0.254-0.049 0.357-0.117l0.145 0.27c-0.077 0.054-0.166 0.099-0.262 0.129-0.095 0.032-0.196 0.049-0.301 0.050-0.004 0-0.009 0-0.014 0-0.145 0-0.281-0.037-0.4-0.102-0.118-0.066-0.217-0.165-0.282-0.285-0.068-0.133-0.107-0.286-0.107-0.449s0.039-0.315 0.108-0.45c0.064-0.117 0.158-0.216 0.272-0.287 0.107-0.066 0.232-0.104 0.366-0.104 0.001 0 0.001 0 0.002 0 0.011-0.001 0.024-0.001 0.038-0.001 0.185 0 0.351 0.082 0.464 0.212 0.111 0.158 0.176 0.353 0.176 0.563 0 0.068-0.007 0.135-0.020 0.199zM21.658 23.45c0-0.006 0.001-0.014 0.001-0.022 0-0.083-0.027-0.16-0.072-0.223-0.048-0.054-0.118-0.089-0.197-0.089-0.007 0-0.014 0-0.020 0.001-0.081 0.001-0.155 0.032-0.211 0.083-0.066 0.065-0.111 0.151-0.124 0.247z"></path>
<path fill="#fff" style="fill: var(--color7, #fff)" d="M22.438 22.816h0.358l0.032 0.282c0.050-0.096 0.119-0.175 0.203-0.235 0.070-0.052 0.156-0.082 0.248-0.085 0.006-0 0.011-0 0.017-0 0.062 0 0.121 0.012 0.175 0.033l-0.077 0.38h-0.058c-0.016-0.002-0.035-0.003-0.054-0.003s-0.038 0.001-0.057 0.003c-0.075 0-0.145 0.028-0.2 0.074-0.072 0.061-0.128 0.14-0.161 0.229l-0.001 0.964h-0.426z"></path>
<path fill="#fff" style="fill: var(--color7, #fff)" d="M23.878 24.397c-0.112-0.041-0.208-0.096-0.293-0.165l0.203-0.277c0.062 0.049 0.133 0.092 0.208 0.126 0.068 0.029 0.139 0.044 0.214 0.044 0.006 0 0.012 0.001 0.019 0.001 0.055 0 0.106-0.016 0.149-0.043 0.032-0.024 0.053-0.063 0.053-0.107 0-0.003-0-0.005-0-0.007-0.001-0.036-0.018-0.068-0.045-0.089-0.036-0.030-0.077-0.055-0.122-0.073l-0.166-0.068c-0.123-0.044-0.229-0.106-0.322-0.184-0.073-0.066-0.12-0.163-0.12-0.271 0-0.006 0-0.011 0-0.017-0-0.003-0-0.007-0-0.011 0-0.14 0.065-0.265 0.166-0.346 0.111-0.087 0.252-0.139 0.405-0.139 0.012 0 0.024 0 0.036 0.001 0.21 0.002 0.403 0.078 0.553 0.203l-0.2 0.264c-0.093-0.077-0.211-0.127-0.34-0.137-0.008-0.001-0.014-0.001-0.020-0.001-0.049 0-0.095 0.015-0.133 0.040-0.030 0.022-0.050 0.059-0.050 0.1 0 0.001 0 0.001 0 0.002 0.001 0.045 0.026 0.085 0.063 0.105 0.044 0.027 0.093 0.051 0.146 0.069l0.114 0.040c0.123 0.042 0.229 0.103 0.322 0.18 0.072 0.069 0.118 0.168 0.118 0.277 0 0.009-0 0.018-0.001 0.027 0 0 0 0.002 0 0.003 0 0.095-0.029 0.183-0.078 0.256-0.054 0.078-0.129 0.14-0.216 0.179-0.099 0.044-0.212 0.069-0.33 0.069-0.008 0-0.016-0-0.024-0-0.001 0-0.003 0-0.005 0-0.109 0-0.213-0.019-0.311-0.053z"></path>
<path fill="#5071a7" style="fill: var(--color9, #5071a7)" d="M27.283 20.717l-0.682 0.682h1.862l-1.181-0.682z"></path>
<path fill="#5071a7" style="fill: var(--color9, #5071a7)" d="M4.717 20.717l0.682 0.682h-1.862l1.181-0.682z"></path>
</symbol>
<symbol id="icon-logo-white" viewBox="0 0 32 32">
<title>logo-white</title>
<path fill="#fff" style="fill: var(--color7, #fff)" d="M10.509 26.509h10.982l-5.491 5.491zM17.408 12.227v-0.602c0-0.848-0.688-1.536-1.536-1.536h-0.32v3.67h0.32c0 0 0 0 0 0 0.847 0 1.534-0.686 1.536-1.533zM15.542 14.381v3.149s0.029 0.736 0.707 0.736 1.35-0.4 1.35-1.226v-1.219s0.016-1.44-2.058-1.44zM16 0l-16 16 4.717 4.717h22.566l4.717-4.717zM12.080 10.061h-0.272c-0.299 0-0.541 0.242-0.541 0.541v7.107c0.005 0.295 0.245 0.531 0.541 0.531 0 0 0 0 0 0h0.269v0.64h-3.597v-0.64h0.269c0.291-0.005 0.526-0.24 0.531-0.531v-7.108c0-0.299-0.242-0.541-0.541-0.541h-0.259v-0.64h3.6zM18.902 18.41c-0.431 0.316-0.97 0.508-1.554 0.515h-4.594v-0.64h0.365c0.353 0 0.64-0.287 0.64-0.64v-6.909c0-0.353-0.287-0.64-0.64-0.64h-0.365v-0.64h4.63s1.949 0.128 1.949 2.138-1.981 2.403-1.981 2.403 2.31 0.534 2.31 2.019 0.035 1.696-0.762 2.394zM23.52 10.061h-0.269c-0.295 0.005-0.531 0.245-0.531 0.541 0 0 0 0 0 0v7.107c0.005 0.291 0.24 0.526 0.531 0.531h0.269v0.64h-3.6v-0.64h0.269c0.299 0 0.541-0.242 0.541-0.541v-7.098c0-0.299-0.242-0.541-0.541-0.541h-0.269v-0.64h3.6zM14.778 23.942c-0 0.003-0 0.008-0 0.012 0 0.046 0.020 0.087 0.052 0.116 0.036 0.028 0.083 0.045 0.133 0.045 0.005 0 0.010-0 0.015-0-0 0 0.001 0 0.001 0 0.053 0 0.104-0.014 0.147-0.039 0.053-0.032 0.1-0.069 0.143-0.111v-0.32c-0.138 0.011-0.266 0.049-0.38 0.108-0.063 0.032-0.11 0.102-0.11 0.184 0 0.002 0 0.004 0 0.006zM21.37 23.117c-0.082 0.001-0.156 0.032-0.211 0.083-0.066 0.065-0.111 0.151-0.124 0.247l0.64 0.002c0-0.006 0.001-0.013 0.001-0.021 0-0.083-0.027-0.161-0.072-0.224-0.048-0.055-0.119-0.091-0.199-0.091-0.012 0-0.024 0.001-0.036 0.002zM13.277 22.656h-0.234v0.672h0.246q0.416 0 0.416-0.352c0.001-0.011 0.002-0.023 0.002-0.036 0-0.089-0.042-0.169-0.107-0.22-0.078-0.043-0.169-0.067-0.267-0.067-0.020 0-0.040 0.001-0.059 0.003zM28.461 21.398l-1.181-0.678-0.678 0.678h-21.203l-0.678-0.678-1.181 0.678 4.362 4.432h16.198l4.365-4.432zM7.821 24.419h-0.442v-2.115h0.445zM9.69 24.419h-1.28v-2.115h0.445v1.744h0.848zM11.36 24.134c-0.067 0.102-0.159 0.182-0.268 0.232-0.119 0.056-0.255 0.088-0.398 0.088-0.009 0-0.018-0-0.027-0-0.004 0-0.010 0-0.015 0-0.148 0-0.29-0.028-0.42-0.080-0.131-0.052-0.251-0.129-0.351-0.225l0.256-0.32c0.073 0.067 0.158 0.122 0.25 0.164 0.087 0.040 0.181 0.062 0.281 0.063 0.007 0 0.015 0.001 0.023 0.001 0.079 0 0.153-0.023 0.216-0.062 0.049-0.035 0.082-0.093 0.082-0.159 0-0.002-0-0.005-0-0.007 0-0.001 0-0.002 0-0.003 0-0.041-0.014-0.079-0.039-0.109s-0.056-0.055-0.091-0.073l-0.184-0.081-0.278-0.118c-0.127-0.047-0.234-0.122-0.319-0.217-0.075-0.091-0.12-0.207-0.12-0.334 0-0.008 0-0.015 0-0.023-0-0.002-0-0.006-0-0.010 0-0.115 0.036-0.223 0.097-0.311 0.065-0.094 0.154-0.17 0.257-0.221 0.111-0.054 0.237-0.085 0.37-0.085 0.004 0 0.008 0 0.012 0 0.13 0.001 0.254 0.028 0.367 0.076 0.118 0.045 0.225 0.113 0.314 0.199l-0.224 0.281c-0.063-0.051-0.134-0.094-0.212-0.126-0.073-0.028-0.151-0.044-0.233-0.044-0.001 0-0.002 0-0.004 0-0.006-0-0.013-0.001-0.020-0.001-0.071 0-0.137 0.020-0.192 0.056-0.045 0.031-0.076 0.084-0.076 0.145 0 0.003 0 0.006 0 0.009-0 0.001-0 0.002-0 0.003 0 0.042 0.016 0.080 0.042 0.109 0.027 0.035 0.062 0.064 0.101 0.085l0.187 0.081 0.272 0.109c0.128 0.047 0.235 0.123 0.319 0.22 0.069 0.091 0.11 0.205 0.11 0.328 0 0.009-0 0.017-0.001 0.026 0.001 0.007 0.001 0.018 0.001 0.028 0 0.112-0.031 0.217-0.085 0.306zM13.92 23.494c-0.152 0.112-0.344 0.18-0.551 0.18-0.013 0-0.026-0-0.039-0.001l-0.273 0v0.739h-0.454v-2.109h0.707c0.017-0.001 0.036-0.001 0.056-0.001 0.205 0 0.396 0.059 0.557 0.161 0.134 0.105 0.222 0.271 0.222 0.458 0 0.018-0.001 0.036-0.002 0.053 0.001 0.008 0.001 0.021 0.001 0.033 0 0.198-0.090 0.374-0.23 0.492zM15.722 24.41h-0.362l-0.032-0.17c-0.124 0.121-0.29 0.199-0.475 0.208-0.016 0.002-0.033 0.003-0.050 0.003-0.125 0-0.238-0.050-0.32-0.131-0.081-0.085-0.131-0.2-0.131-0.327 0-0.005 0-0.011 0-0.016-0-0.003-0-0.007-0-0.012 0-0.162 0.086-0.305 0.216-0.383 0.204-0.111 0.442-0.18 0.696-0.193 0.005-0.007 0.005-0.016 0.005-0.024 0-0.131-0.106-0.237-0.237-0.237-0.011 0-0.021 0.001-0.031 0.002-0.073 0-0.143 0.014-0.208 0.040-0.084 0.033-0.159 0.069-0.23 0.111l-0.153-0.295c0.19-0.127 0.423-0.205 0.674-0.211 0.014-0.001 0.029-0.002 0.044-0.002 0.167 0 0.317 0.069 0.424 0.181 0.101 0.132 0.162 0.299 0.162 0.48 0 0.020-0.001 0.041-0.002 0.061zM17.174 23.181h-0.058c-0.016-0.002-0.035-0.003-0.054-0.003s-0.038 0.001-0.057 0.003c-0.075 0-0.145 0.028-0.2 0.074-0.072 0.061-0.128 0.14-0.161 0.229l-0.001 0.964h-0.451v-1.6h0.358l0.032 0.282c0.050-0.096 0.119-0.175 0.203-0.235 0.070-0.052 0.156-0.082 0.248-0.085 0.006-0 0.011-0 0.017-0 0.062 0 0.121 0.012 0.175 0.033zM18.134 24.461c-0.013 0.001-0.029 0.002-0.044 0.002-0.145 0-0.275-0.062-0.365-0.162-0.083-0.113-0.133-0.255-0.133-0.408 0-0.014 0-0.028 0.001-0.042l-0-0.686h-0.224v-0.32l0.23-0.029 0.058-0.416h0.365v0.416h0.39v0.349h-0.39v0.682q0 0.262 0.214 0.262c0.058-0.002 0.113-0.013 0.163-0.033l0.067 0.321c-0.104 0.037-0.224 0.060-0.348 0.061zM20.237 24.422h-0.458v-0.947c0.001-0.011 0.002-0.024 0.002-0.037 0-0.078-0.020-0.151-0.054-0.215-0.033-0.041-0.086-0.069-0.145-0.069-0.006 0-0.012 0-0.018 0.001-0.002-0-0.004-0-0.007-0-0.056 0-0.108 0.014-0.154 0.039-0.060 0.038-0.114 0.081-0.161 0.13l-0 1.095h-0.438v-1.6h0.358l0.032 0.208c0.069-0.069 0.148-0.128 0.235-0.176 0.084-0.045 0.177-0.070 0.276-0.070 0.003 0 0.005 0 0.008 0 0.009-0.001 0.021-0.001 0.032-0.001 0.139 0 0.262 0.065 0.341 0.167 0.078 0.122 0.124 0.27 0.124 0.428 0 0.017-0.001 0.035-0.002 0.052zM22.016 23.744h-0.992c0.013 0.115 0.071 0.214 0.156 0.281 0.078 0.057 0.175 0.090 0.28 0.090 0.004 0 0.008-0 0.012-0 0.132-0.006 0.254-0.049 0.357-0.117l0.145 0.27c-0.077 0.054-0.166 0.099-0.262 0.129-0.095 0.032-0.196 0.049-0.301 0.050-0.004 0-0.009 0-0.014 0-0.145 0-0.281-0.037-0.4-0.102-0.118-0.066-0.217-0.165-0.282-0.285-0.068-0.133-0.107-0.286-0.107-0.449s0.039-0.315 0.108-0.45c0.064-0.117 0.158-0.216 0.272-0.287 0.107-0.066 0.232-0.104 0.366-0.104 0.001 0 0.001 0 0.002 0 0.011-0.001 0.024-0.001 0.038-0.001 0.185 0 0.351 0.082 0.464 0.212 0.111 0.158 0.176 0.353 0.176 0.563 0 0.068-0.007 0.135-0.020 0.199zM23.408 23.19h-0.058c-0.016-0.002-0.035-0.003-0.054-0.003s-0.038 0.001-0.057 0.003c-0.075 0-0.145 0.028-0.2 0.074-0.072 0.061-0.128 0.14-0.161 0.229l-0.001 0.964h-0.438v-1.6h0.358l0.032 0.282c0.050-0.096 0.119-0.175 0.203-0.235 0.070-0.052 0.156-0.082 0.248-0.085 0.006-0 0.011-0 0.017-0 0.062 0 0.121 0.012 0.175 0.033zM24.774 24.205c-0.055 0.080-0.13 0.142-0.218 0.181-0.099 0.044-0.212 0.069-0.33 0.069-0.008 0-0.016-0-0.024-0-0.114-0.001-0.224-0.023-0.325-0.063-0.105-0.038-0.202-0.094-0.287-0.163l0.203-0.277c0.062 0.049 0.133 0.092 0.208 0.126 0.068 0.029 0.139 0.044 0.214 0.044 0.006 0 0.012 0.001 0.019 0.001 0.055 0 0.106-0.016 0.149-0.043 0.032-0.024 0.053-0.063 0.053-0.107 0-0.003-0-0.005-0-0.007-0.001-0.036-0.018-0.068-0.045-0.089-0.036-0.030-0.077-0.055-0.122-0.073l-0.166-0.068c-0.123-0.044-0.229-0.106-0.322-0.184-0.073-0.066-0.12-0.163-0.12-0.271 0-0.006 0-0.011 0-0.017-0-0.003-0-0.007-0-0.011 0-0.14 0.065-0.265 0.166-0.346 0.111-0.087 0.252-0.139 0.405-0.139 0.012 0 0.024 0 0.036 0.001 0.21 0.002 0.403 0.078 0.553 0.203l-0.2 0.264c-0.093-0.077-0.211-0.127-0.34-0.137-0.008-0.001-0.014-0.001-0.020-0.001-0.049 0-0.095 0.015-0.133 0.040-0.030 0.022-0.050 0.059-0.050 0.1 0 0.001 0 0.001 0 0.002 0.001 0.045 0.026 0.085 0.063 0.105 0.044 0.027 0.093 0.051 0.146 0.069l0.114 0.040c0.123 0.042 0.229 0.103 0.322 0.18 0.072 0.069 0.118 0.168 0.118 0.277 0 0.009-0 0.018-0.001 0.027 0.001 0.007 0.001 0.017 0.001 0.027 0 0.089-0.025 0.172-0.069 0.243z"></path>
</symbol>
<symbol id="icon-phone2" viewBox="0 0 32 32">
<title>phone2</title>
<path d="M22 20c-2 2-2 4-4 4s-4-2-6-4-4-4-4-6 2-2 4-4-4-8-6-8-6 6-6 6c0 4 4.109 12.109 8 16s12 8 16 8c0 0 6-4 6-6s-6-8-8-6z"></path>
</symbol>
<symbol id="icon-arrow-up" viewBox="0 0 32 32">
<title>arrow-up</title>
<path d="M16 1l-15 15h9v16h12v-16h9z"></path>
</symbol>
<symbol id="icon-arrow-down" viewBox="0 0 32 32">
<title>arrow-down</title>
<path d="M16 31l15-15h-9v-16h-12v16h-9z"></path>
</symbol>
<symbol id="icon-menu" viewbox="0 0 43.3628 22.75">
	<g transform="translate(-.453 -1009.27)"><path d="m1.953 1009.27h40.36a1.5 1.5 0 0 1 1.5 1.5 1.5 1.5 0 0 1 -1.5 1.5h-40.36a1.5 1.5 0 0 1 -1.5-1.5 1.5 1.5 0 0 1  1.5-1.5"/><path d="m1.953 1019.15h40.36a1.5 1.5 0 0 1 1.5 1.5 1.5 1.5 0 0 1 -1.5 1.5h-40.36a1.5 1.5 0 0 1 -1.5-1.5 1.5 1.5 0 0 1  1.5-1.5"/><path d="m1.953 1029.02h40.36a1.5 1.5 0 0 1 1.5 1.5 1.5 1.5 0 0 1 -1.5 1.5h-40.36a1.5 1.5 0 0 1 -1.5-1.5 1.5 1.5 0 0 1  1.5-1.5"/></g>
</symbol>
</defs>
</svg>
